<?xml version="1.0" encoding="iso-8859-1"?>
<!-- Generator: Adobe Illustrator 19.0.0, SVG Export Plug-In . SVG Version: 6.00 Build 0)  -->
<svg version="1.1" id="Layer_1" xmlns="http://www.w3.org/2000/svg" xmlns:xlink="http://www.w3.org/1999/xlink" x="0px" y="0px"
	 viewBox="0 0 496.2 496.2" style="enable-background:new 0 0 496.2 496.2;" xml:space="preserve">
<path style="fill:#EA4949;" d="M496.2,248.1C496.2,111.1,385.1,0,248.1,0S0,111.1,0,248.1s111.1,248.1,248.1,248.1
	S496.2,385.1,496.2,248.1z"/>
<path style="fill:#E3E2E2;" d="M248.1,109.4c-76.6,0-138.7,62.1-138.7,138.7s62.1,138.7,138.7,138.7s138.7-62.1,138.7-138.7
	S324.7,109.4,248.1,109.4z M249.6,261.5c-8.4,0-15.2-6.8-15.2-15.2c0-8.4,6.8-15.3,15.2-15.3s15.3,6.8,15.3,15.3
	C264.9,254.7,258,261.5,249.6,261.5z"/>
<path style="fill:#CDCCCB;" d="M329.5,144.1c-57.5-44.9-140.4-34.8-185.4,22.6c-44.9,57.4-34.8,140.5,22.6,185.4
	s140.4,34.8,185.4-22.6C397,272,386.9,189.1,329.5,144.1z M241.4,259c-6.3-4.9-7.4-14.1-2.5-20.4c4.9-6.3,14.1-7.4,20.4-2.5
	c6.3,4.9,7.4,14.1,2.5,20.4C256.8,262.9,247.7,264,241.4,259z"/>
<path style="fill:#CBCBC9;" d="M327.9,146.1c-56.3-44.1-137.7-34.2-181.8,22.2C102,224.6,112,306,168.3,350.1s137.7,34.1,181.8-22.2
	S384.3,190.2,327.9,146.1z M241.5,258.8c-6.2-4.8-7.3-13.8-2.4-20c4.8-6.2,13.8-7.3,20-2.5s7.3,13.8,2.4,20
	C256.6,262.6,247.7,263.7,241.5,258.8z"/>
<path style="fill:#D2D2D2;" d="M260,258.1c-5,5-13,5.7-18.8,1.2c-5.7-4.5-7-12.4-3.3-18.5l-91.8-71.9
	c-44,56.2-34.1,137.5,22.1,181.4c56.2,44,137.4,34.1,181.4-22.1L260,258.1z"/>
<g>
	<path style="fill:#DCDBDC;" d="M249.6,202.2c-24.3,0-44.1,19.7-44.1,44.1c0,24.3,19.7,44.1,44.1,44.1c24.3,0,44.1-19.7,44.1-44.1
		S274,202.2,249.6,202.2z M249.6,261.5c-8.4,0-15.2-6.8-15.2-15.2c0-8.4,6.8-15.3,15.2-15.3s15.3,6.8,15.3,15.3
		C264.9,254.7,258,261.5,249.6,261.5z"/>
	<path style="fill:#DCDBDC;" d="M192.6,232.9l-54.7-11.5c6.9-34.7,30.6-63.3,62.4-76.8l26.3,49.8C209.2,200,196,214.7,192.6,232.9z"
		/>
	<path style="fill:#DCDBDC;" d="M295.9,351.6l-26.3-49.8c17.3-5.6,30.5-20.3,33.9-38.6l54.7,11.5C351.4,309.4,327.6,338,295.9,351.6
		z"/>
</g>
<path style="fill:#A4A5A4;" d="M249.6,223c-12.8,0-23.2,10.4-23.2,23.2s10.4,23.2,23.2,23.2c12.8,0,23.2-10.4,23.2-23.2
	C272.9,233.4,262.5,223,249.6,223z M249.6,261.8c-8.6,0-15.5-7-15.5-15.5c0-8.6,7-15.6,15.5-15.6c8.6,0,15.5,7,15.5,15.6
	C265.2,254.8,258.2,261.8,249.6,261.8z"/>
<g>
</g>
<g>
</g>
<g>
</g>
<g>
</g>
<g>
</g>
<g>
</g>
<g>
</g>
<g>
</g>
<g>
</g>
<g>
</g>
<g>
</g>
<g>
</g>
<g>
</g>
<g>
</g>
<g>
</g>
</svg>
