<?xml version="1.0" encoding="UTF-8" standalone="no"?>
<!-- Generator: Adobe Illustrator 19.0.0, SVG Export Plug-In . SVG Version: 6.00 Build 0)  -->

<svg
   xmlns:dc="http://purl.org/dc/elements/1.1/"
   xmlns:cc="http://creativecommons.org/ns#"
   xmlns:rdf="http://www.w3.org/1999/02/22-rdf-syntax-ns#"
   xmlns:svg="http://www.w3.org/2000/svg"
   xmlns="http://www.w3.org/2000/svg"
   xmlns:sodipodi="http://sodipodi.sourceforge.net/DTD/sodipodi-0.dtd"
   xmlns:inkscape="http://www.inkscape.org/namespaces/inkscape"
   version="1.1"
   id="Capa_1"
   x="0px"
   y="0px"
   viewBox="0 0 491.52 491.52"
   style="enable-background:new 0 0 491.52 491.52;"
   xml:space="preserve"
   inkscape:version="0.91 r13725"
   sodipodi:docname="controls_round.svg"><metadata
     id="metadata83"><rdf:RDF><cc:Work
         rdf:about=""><dc:format>image/svg+xml</dc:format><dc:type
           rdf:resource="http://purl.org/dc/dcmitype/StillImage" /></cc:Work></rdf:RDF></metadata><defs
     id="defs81" /><sodipodi:namedview
     pagecolor="#ffffff"
     bordercolor="#666666"
     borderopacity="1"
     objecttolerance="10"
     gridtolerance="10"
     guidetolerance="10"
     inkscape:pageopacity="0"
     inkscape:pageshadow="2"
     inkscape:window-width="1920"
     inkscape:window-height="1017"
     id="namedview79"
     showgrid="false"
     inkscape:zoom="0.48014324"
     inkscape:cx="245.75999"
     inkscape:cy="245.75999"
     inkscape:window-x="-8"
     inkscape:window-y="-8"
     inkscape:window-maximized="1"
     inkscape:current-layer="Capa_1" /><circle
     style="fill:#71d967;fill-opacity:1"
     cx="245.76"
     cy="245.76"
     r="245.76"
     id="circle3" /><path
     style="fill:#64798A;"
     d="M377.041,104.96H114.479c-5.257,0-9.519,4.262-9.519,9.519v262.563c0,5.257,4.262,9.519,9.519,9.519  h262.563c5.257,0,9.519-4.262,9.519-9.519V114.479C386.56,109.222,382.298,104.96,377.041,104.96z"
     id="path5" /><rect
     x="130.519"
     y="130.58"
     style="fill:#F6C358;"
     width="61.542"
     height="25.856"
     id="rect7" /><rect
     x="214.979"
     y="130.58"
     style="fill:#3EA69B;"
     width="61.542"
     height="25.856"
     id="rect9" /><rect
     x="299.418"
     y="130.58"
     style="fill:#D15241;"
     width="61.542"
     height="25.856"
     id="rect11" /><rect
     x="130.519"
     y="124.16"
     style="fill:#FCD462;"
     width="61.542"
     height="25.856"
     id="rect13" /><rect
     x="214.979"
     y="124.16"
     style="fill:#44C4A1;"
     width="61.542"
     height="25.856"
     id="rect15" /><rect
     x="299.418"
     y="124.16"
     style="fill:#E56353;"
     width="61.542"
     height="25.856"
     id="rect17" /><rect
     x="145.582"
     y="184.934"
     style="fill:#3A556A;"
     width="8.945"
     height="180.838"
     id="rect19" /><circle
     style="fill:#FCD462;"
     cx="150.067"
     cy="313.6"
     r="19.538"
     id="circle21" /><path
     style="fill:#F6C358;"
     d="M162.376,298.568c-2.612,13.223-10.959,25.115-25.103,29.715c3.433,2.996,7.87,4.871,12.784,4.871  c10.79,0,19.538-8.746,19.538-19.537C169.594,307.524,166.746,302.151,162.376,298.568z"
     id="path23" /><rect
     x="193.434"
     y="184.934"
     style="fill:#3A556A;"
     width="8.95"
     height="180.838"
     id="rect25" /><circle
     style="fill:#E56353;"
     cx="197.908"
     cy="223.79"
     r="19.538"
     id="circle27" /><path
     style="fill:#D15241;"
     d="M210.227,208.74c-2.612,13.224-10.958,25.115-25.103,29.715c3.433,2.996,7.87,4.871,12.784,4.871  c10.79,0,19.537-8.746,19.537-19.537C217.445,217.697,214.598,212.324,210.227,208.74z"
     id="path29" /><rect
     x="241.306"
     y="184.934"
     style="fill:#3A556A;"
     width="8.95"
     height="180.838"
     id="rect31" /><circle
     style="fill:#EBF0F3;"
     cx="245.76"
     cy="275.517"
     r="19.538"
     id="circle33" /><path
     style="fill:#E1E6E9;"
     d="M258.079,260.469c-2.612,13.223-10.959,25.115-25.103,29.715c3.433,2.996,7.87,4.871,12.784,4.871  c10.79,0,19.537-8.746,19.537-19.537C265.297,269.425,262.45,264.053,258.079,260.469z"
     id="path35" /><rect
     x="289.126"
     y="184.934"
     style="fill:#3A556A;"
     width="8.95"
     height="180.838"
     id="rect37" /><circle
     style="fill:#27A2DB;"
     cx="293.632"
     cy="334.848"
     r="19.538"
     id="circle39" /><path
     style="fill:#2D93BA;"
     d="M305.931,319.79c-2.612,13.223-10.959,25.115-25.103,29.715c3.433,2.996,7.87,4.871,12.784,4.871  c10.79,0,19.537-8.746,19.537-19.537C313.149,328.746,310.302,323.374,305.931,319.79z"
     id="path41" /><rect
     x="336.988"
     y="184.934"
     style="fill:#3A556A;"
     width="8.945"
     height="180.838"
     id="rect43" /><circle
     style="fill:#44C4A1;"
     cx="341.453"
     cy="238.182"
     r="19.538"
     id="circle45" /><path
     style="fill:#3EA69B;"
     d="M353.783,223.15c-2.612,13.224-10.959,25.115-25.103,29.715c3.433,2.997,7.87,4.872,12.784,4.872  c10.79,0,19.538-8.746,19.538-19.538C361.001,232.106,358.154,226.734,353.783,223.15z"
     id="path47" /><g
     id="g49" /><g
     id="g51" /><g
     id="g53" /><g
     id="g55" /><g
     id="g57" /><g
     id="g59" /><g
     id="g61" /><g
     id="g63" /><g
     id="g65" /><g
     id="g67" /><g
     id="g69" /><g
     id="g71" /><g
     id="g73" /><g
     id="g75" /><g
     id="g77" /></svg>