<?xml version="1.0" encoding="UTF-8" standalone="no"?>
<!-- Generator: Adobe Illustrator 19.0.0, SVG Export Plug-In . SVG Version: 6.00 Build 0)  -->

<svg
   xmlns:dc="http://purl.org/dc/elements/1.1/"
   xmlns:cc="http://creativecommons.org/ns#"
   xmlns:rdf="http://www.w3.org/1999/02/22-rdf-syntax-ns#"
   xmlns:svg="http://www.w3.org/2000/svg"
   xmlns="http://www.w3.org/2000/svg"
   xmlns:sodipodi="http://sodipodi.sourceforge.net/DTD/sodipodi-0.dtd"
   xmlns:inkscape="http://www.inkscape.org/namespaces/inkscape"
   version="1.1"
   id="Layer_1"
   x="0px"
   y="0px"
   viewBox="0 0 512 512"
   style="enable-background:new 0 0 512 512;"
   xml:space="preserve"
   width="512px"
   height="512px"
   inkscape:version="0.91 r13725"
   sodipodi:docname="crystallball-off.svg"><metadata
     id="metadata61"><rdf:RDF><cc:Work
         rdf:about=""><dc:format>image/svg+xml</dc:format><dc:type
           rdf:resource="http://purl.org/dc/dcmitype/StillImage" /></cc:Work></rdf:RDF></metadata><defs
     id="defs59" /><sodipodi:namedview
     pagecolor="#ffffff"
     bordercolor="#666666"
     borderopacity="1"
     objecttolerance="10"
     gridtolerance="10"
     guidetolerance="10"
     inkscape:pageopacity="0"
     inkscape:pageshadow="2"
     inkscape:window-width="1920"
     inkscape:window-height="1017"
     id="namedview57"
     showgrid="false"
     inkscape:zoom="0.4609375"
     inkscape:cx="256"
     inkscape:cy="256"
     inkscape:window-x="-8"
     inkscape:window-y="-8"
     inkscape:window-maximized="1"
     inkscape:current-layer="Layer_1" /><g
     id="g3"
     style="fill:#b3b3b3"><g
       id="g5"
       style="fill:#b3b3b3"><path
         d="M397.616,462.979h-4.818c-2.369-11.628-9.7-21.465-19.669-27.223c2.62-3.9,4.15-8.59,4.15-13.63    c0-7.168-3.094-13.626-8.014-18.113c64.879-39.454,104.607-109.503,104.607-186.142C473.871,97.737,376.134,0,256,0    S38.129,97.737,38.129,217.871c0,76.64,39.728,146.687,104.607,186.142c-4.922,4.486-8.014,10.945-8.014,18.113    c0,5.04,1.532,9.73,4.15,13.63c-9.97,5.757-17.299,15.595-19.668,27.223h-4.818c-13.516,0-24.51,10.996-24.51,24.51    c0,13.515,10.995,24.511,24.51,24.511h283.233c13.516,0,24.511-10.996,24.511-24.511    C422.128,473.975,411.132,462.979,397.616,462.979z M54.469,217.871C54.469,106.746,144.876,16.34,256,16.34    s201.531,90.406,201.531,201.531c0,75.416-41.589,143.94-108.537,178.827c-0.504,0.263-0.97,0.571-1.393,0.917H164.399    c-0.424-0.345-0.889-0.655-1.393-0.917C96.058,361.811,54.469,293.288,54.469,217.871z M159.23,446.639    c0.042-0.002,32.681-0.002,32.681-0.002c4.512,0,8.17-3.657,8.17-8.17c0-4.513-3.658-8.17-8.17-8.17H159.23    c-4.506,0-8.17-3.665-8.17-8.17s3.665-8.17,8.17-8.17h193.538c4.506,0,8.17,3.665,8.17,8.17s-3.665,8.17-8.17,8.17H224.592    c-4.512,0-8.17,3.657-8.17,8.17c0,4.513,3.658,8.17,8.17,8.17h128.135c10.693,0.002,19.775,6.834,23.148,16.343H136.126    C139.499,453.47,148.58,446.639,159.23,446.639z M397.616,495.66H114.384c-4.506,0-8.17-3.665-8.17-8.17    c0-4.506,3.665-8.17,8.17-8.17h283.233c4.506,0,8.17,3.665,8.17,8.17C405.787,491.995,402.122,495.66,397.616,495.66z"
         fill="#606060"
         id="path7"
         style="fill:#b3b3b3" /></g></g><g
     id="g9"
     style="fill:#b3b3b3"><g
       id="g11"
       style="fill:#b3b3b3"><path
         d="M335.602,139.653c-0.2-0.255-0.412-0.502-0.647-0.737c-0.234-0.234-0.483-0.446-0.736-0.646    c-20.161-19.813-47.785-32.058-78.218-32.058c-61.569,0-111.659,50.09-111.659,111.659S194.431,329.53,256,329.53    c30.433,0,58.057-12.244,78.218-32.058c0.255-0.2,0.502-0.412,0.736-0.646s0.447-0.483,0.647-0.737    c19.813-20.161,32.058-47.785,32.058-78.218S355.416,159.815,335.602,139.653z M350.965,209.701h-75.241l53.172-53.17    C341.23,171.164,349.246,189.547,350.965,209.701z M264.17,122.907c20.154,1.719,38.537,9.736,53.172,22.069l-53.172,53.17    V122.907z M247.83,122.907v86.795h-86.795C164.964,163.646,201.776,126.835,247.83,122.907z M256,313.19    c-49.807,0-90.807-38.4-94.965-87.149h91.58l64.726,64.725C300.752,304.75,279.345,313.19,256,313.19z M328.896,279.212    l-53.172-53.17h75.241C349.247,246.196,341.231,264.579,328.896,279.212z"
         fill="#606060"
         id="path13"
         style="fill:#b3b3b3" /></g></g><g
     id="g15"
     style="fill:#b3b3b3"><g
       id="g17"
       style="fill:#b3b3b3"><path
         d="M255.999,32.682c-46.408,0-90.831,17.313-125.088,48.749c-34.039,31.237-55.102,73.624-59.307,119.353    c-0.413,4.492,2.894,8.47,7.388,8.884c4.496,0.417,8.471-2.894,8.884-7.388C95.78,116.34,169.628,49.021,256,49.021    c93.104,0,168.85,75.745,168.85,168.85c0,61.572-33.634,118.314-87.777,148.082c-3.954,2.174-5.398,7.142-3.223,11.096    c1.488,2.705,4.283,4.235,7.167,4.235c1.331,0,2.68-0.326,3.928-1.012c59.367-32.639,96.245-94.868,96.245-162.4    C441.19,115.758,358.113,32.682,255.999,32.682z"
         fill="#606060"
         id="path19"
         style="fill:#b3b3b3" /></g></g><g
     id="g21"
     style="fill:#b3b3b3"><g
       id="g23"
       style="fill:#b3b3b3"><path
         d="M174.927,365.952c-49.366-27.141-81.904-76.67-87.039-132.489c-0.413-4.494-4.394-7.8-8.884-7.388    c-4.494,0.414-7.801,4.391-7.387,8.884c5.632,61.231,41.309,115.552,95.437,145.313c1.247,0.686,2.597,1.012,3.928,1.012    c2.884,0,5.679-1.529,7.167-4.235C180.325,373.094,178.881,368.127,174.927,365.952z"
         fill="#606060"
         id="path25"
         style="fill:#b3b3b3" /></g></g><g
     id="g27"
     style="fill:#b3b3b3" /><g
     id="g29"
     style="fill:#b3b3b3" /><g
     id="g31"
     style="fill:#b3b3b3" /><g
     id="g33"
     style="fill:#b3b3b3" /><g
     id="g35"
     style="fill:#b3b3b3" /><g
     id="g37"
     style="fill:#b3b3b3" /><g
     id="g39"
     style="fill:#b3b3b3" /><g
     id="g41"
     style="fill:#b3b3b3" /><g
     id="g43"
     style="fill:#b3b3b3" /><g
     id="g45"
     style="fill:#b3b3b3" /><g
     id="g47"
     style="fill:#b3b3b3" /><g
     id="g49"
     style="fill:#b3b3b3" /><g
     id="g51"
     style="fill:#b3b3b3" /><g
     id="g53"
     style="fill:#b3b3b3" /><g
     id="g55"
     style="fill:#b3b3b3" /></svg>