<?xml version="1.0" encoding="iso-8859-1"?>
<!-- Generator: Adobe Illustrator 19.0.0, SVG Export Plug-In . SVG Version: 6.00 Build 0)  -->
<svg version="1.1" id="Layer_1" xmlns="http://www.w3.org/2000/svg" xmlns:xlink="http://www.w3.org/1999/xlink" x="0px" y="0px"
	 viewBox="0 0 512 512" style="enable-background:new 0 0 512 512;" xml:space="preserve">
<path style="fill:#FFDB8A;" d="M256,8.17c115.813,0,209.701,93.888,209.701,209.701S371.813,427.573,256,427.573l-81.55-209.701
	L256,8.17z"/>
<g>
	<path style="fill:#FFEAB5;" d="M46.299,217.871c0,115.813,93.888,209.701,209.701,209.701V8.17
		C140.187,8.17,46.299,102.057,46.299,217.871z"/>
	<path style="fill:#FFEAB5;" d="M257.863,40.862v354.019c96.746-1.002,175.158-80.024,175.158-177.01S354.609,41.864,257.863,40.862
		z"/>
</g>
<path style="fill:#FFFFFF;" d="M257.863,40.862c78.739,1.231,142.477,80.166,142.477,177.01s-63.738,175.779-142.477,177.01
	c-0.621,0.011-1.242,0.011-1.863,0.011c-97.606,0-177.021-79.414-177.021-177.021S158.394,40.851,256,40.851
	C256.621,40.851,257.242,40.851,257.863,40.862z"/>
<g>
	<path style="fill:#FF4719;" d="M397.616,471.147h-12.167l-20.514-10.894v43.574h32.681c9.02,0,16.34-7.31,16.34-16.34
		C413.957,478.467,406.636,471.147,397.616,471.147z"/>
	<path style="fill:#FF4719;" d="M352.768,405.785h-32.681v43.574l32.681-10.894c9.031,0,16.34-7.31,16.34-16.34
		C369.108,413.106,361.798,405.785,352.768,405.785z"/>
</g>
<g>
	<path style="fill:#FF754F;" d="M364.936,471.147l-78.998-17.528l34.149-15.153c9.031,0,16.34-7.31,16.34-16.34
		c0-9.02-7.31-16.34-16.34-16.34H159.232c-9.031,0-16.34,7.32-16.34,16.34c0,9.031,7.31,16.34,16.34,16.34l34.149,15.153
		l-78.998,17.528c-9.02,0-16.34,7.32-16.34,16.34c0,9.031,7.32,16.34,16.34,16.34h250.552c9.02,0,16.34-7.31,16.34-16.34
		C381.276,478.467,373.956,471.147,364.936,471.147z"/>
	<path style="fill:#FF754F;" d="M352.768,438.466h-32.681l32.681,32.681h32.681C385.448,453.173,370.742,438.466,352.768,438.466z"
		/>
</g>
<path style="fill:#FF9269;" d="M352.768,471.147H126.552c0-17.974,14.706-32.681,32.681-32.681h160.854
	C338.061,438.466,352.768,453.173,352.768,471.147z"/>
<path style="fill:#FFBE35;" d="M329.183,243.635L256,321.36c28.585,0,54.446-11.58,73.183-30.306V243.635z"/>
<path style="fill:#FF4719;" d="M314.444,185.191v91.125l14.739,14.739c18.726-18.737,30.306-44.598,30.306-73.183L314.444,185.191z"
	/>
<path style="fill:#FFCD60;" d="M314.444,174.297v102.018C301.688,303.517,280.271,321.36,256,321.36
	c-57.159,0-103.489-46.33-103.489-103.489L314.444,174.297z"/>
<path style="fill:#FF754F;" d="M256,217.871l35.404-10.894l35.404,10.894c0,21.689-4.564,41.81-12.364,58.444L256,217.871z"/>
<path style="fill:#FF9269;" d="M329.183,144.688h-36.526l34.151,73.183h32.681C359.489,189.287,347.909,163.425,329.183,144.688z"/>
<path style="fill:#FFEAB5;" d="M256,114.382l18.247,54.74L256,217.871H152.511C152.511,160.713,198.841,114.382,256,114.382z"/>
<path style="fill:#FFB082;" d="M326.808,217.871H256l18.247-48.749l40.197-9.695C322.244,176.062,326.808,196.182,326.808,217.871z"
	/>
<path style="fill:#25BBCC;" d="M256,114.382l58.444,45.045l14.739-14.739C310.446,125.962,284.585,114.382,256,114.382z"/>
<path style="fill:#50D1DD;" d="M314.444,159.427L256,217.871V114.382C280.271,114.382,301.688,132.226,314.444,159.427z"/>
<path d="M397.616,462.979h-4.818c-2.369-11.628-9.7-21.465-19.669-27.223c2.62-3.9,4.15-8.59,4.15-13.63
	c0-7.168-3.094-13.626-8.014-18.113c64.879-39.454,104.607-109.503,104.607-186.142C473.871,97.737,376.134,0,256,0
	S38.129,97.737,38.129,217.871c0,76.64,39.728,146.687,104.607,186.142c-4.922,4.486-8.014,10.945-8.014,18.113
	c0,5.04,1.532,9.73,4.15,13.63c-9.97,5.757-17.299,15.595-19.668,27.223h-4.818c-13.516,0-24.511,10.996-24.511,24.511
	S100.869,512,114.385,512h283.233c13.516,0,24.511-10.996,24.511-24.511S411.132,462.979,397.616,462.979z M54.469,217.871
	C54.469,106.746,144.876,16.34,256,16.34s201.531,90.406,201.531,201.531c0,75.416-41.589,143.94-108.537,178.827
	c-0.504,0.263-0.97,0.571-1.393,0.917H164.399c-0.424-0.345-0.889-0.655-1.393-0.917C96.058,361.811,54.469,293.288,54.469,217.871z
	 M159.23,446.639c0.042-0.002,32.681-0.002,32.681-0.002c4.512,0,8.17-3.657,8.17-8.17s-3.658-8.17-8.17-8.17H159.23
	c-4.506,0-8.17-3.665-8.17-8.17c0-4.506,3.665-8.17,8.17-8.17h193.538c4.506,0,8.17,3.665,8.17,8.17c0,4.506-3.665,8.17-8.17,8.17
	H224.592c-4.512,0-8.17,3.657-8.17,8.17s3.658,8.17,8.17,8.17h128.135c10.693,0.002,19.775,6.834,23.148,16.343H136.126
	C139.499,453.47,148.58,446.639,159.23,446.639z M397.616,495.66H114.384c-4.506,0-8.17-3.665-8.17-8.17s3.665-8.17,8.17-8.17
	h283.233c4.506,0,8.17,3.665,8.17,8.17S402.122,495.66,397.616,495.66z"/>
<path d="M334.954,296.827c0.234-0.234,0.447-0.483,0.647-0.737c19.813-20.161,32.058-47.785,32.058-78.218
	s-12.243-58.056-32.058-78.218c-0.2-0.255-0.412-0.502-0.647-0.737c-0.234-0.234-0.483-0.446-0.736-0.646
	c-20.161-19.813-47.785-32.058-78.218-32.058c-61.569,0-111.659,50.09-111.659,111.659S194.431,329.53,256,329.53
	c30.433,0,58.057-12.244,78.218-32.058C334.473,297.272,334.72,297.061,334.954,296.827z M275.725,226.042h75.241
	c-1.719,20.154-9.734,38.537-22.069,53.17L275.725,226.042z M264.17,122.907c20.154,1.719,38.537,9.736,53.172,22.069l-53.172,53.17
	V122.907z M350.965,209.701h-75.241l53.172-53.17C341.23,171.164,349.246,189.547,350.965,209.701z M247.83,122.907v86.795h-86.795
	C164.964,163.646,201.776,126.835,247.83,122.907z M161.035,226.042h91.58l64.726,64.725C300.752,304.75,279.345,313.19,256,313.19
	C206.193,313.19,165.193,274.79,161.035,226.042z"/>
<path d="M78.993,209.667c4.496,0.417,8.471-2.894,8.884-7.388C95.78,116.34,169.628,49.021,256,49.021
	c93.104,0,168.85,75.745,168.85,168.85c0,61.572-33.634,118.314-87.777,148.082c-3.954,2.174-5.398,7.142-3.223,11.096
	c1.488,2.705,4.283,4.235,7.167,4.235c1.331,0,2.68-0.326,3.928-1.012c59.367-32.639,96.245-94.868,96.245-162.4
	c0-102.114-83.077-185.191-185.191-185.191c-46.408,0-90.831,17.313-125.088,48.749c-34.039,31.237-55.102,73.624-59.307,119.353
	C71.192,205.276,74.499,209.253,78.993,209.667z"/>
<path d="M170.983,381.284c2.884,0,5.679-1.529,7.167-4.235c2.174-3.954,0.731-8.921-3.223-11.096
	c-49.366-27.141-81.904-76.67-87.039-132.489c-0.413-4.494-4.394-7.8-8.884-7.388c-4.494,0.414-7.801,4.391-7.387,8.884
	c5.632,61.231,41.31,115.552,95.437,145.313C168.302,380.958,169.652,381.284,170.983,381.284z"/>
<g>
</g>
<g>
</g>
<g>
</g>
<g>
</g>
<g>
</g>
<g>
</g>
<g>
</g>
<g>
</g>
<g>
</g>
<g>
</g>
<g>
</g>
<g>
</g>
<g>
</g>
<g>
</g>
<g>
</g>
</svg>
