<?xml version="1.0" encoding="iso-8859-1"?>
<!-- Generator: Adobe Illustrator 19.0.0, SVG Export Plug-In . SVG Version: 6.00 Build 0)  -->
<svg version="1.1" id="Layer_1" xmlns="http://www.w3.org/2000/svg" xmlns:xlink="http://www.w3.org/1999/xlink" x="0px" y="0px"
	 viewBox="0 0 512 512" style="enable-background:new 0 0 512 512;" xml:space="preserve">
<path style="fill:#FFDB8A;" d="M256,0c119.631,0,216.615,96.984,216.615,216.615S375.631,433.231,256,433.231l-84.239-216.615L256,0
	z"/>
<g>
	<path style="fill:#FFEAB5;" d="M39.385,216.615c0,119.631,96.984,216.615,216.615,216.615V0
		C136.369,0,39.385,96.983,39.385,216.615z"/>
	<path style="fill:#FFEAB5;" d="M257.924,33.769v365.692c99.936-1.035,180.933-82.663,180.933-182.846S357.86,34.805,257.924,33.769
		z"/>
</g>
<path style="fill:#FFFFFF;" d="M257.924,33.769c81.335,1.272,147.175,82.809,147.175,182.846s-65.84,181.574-147.175,182.846
	c-0.641,0.011-1.283,0.011-1.924,0.011c-100.825,0-182.857-82.033-182.857-182.857S155.175,33.758,256,33.758
	C256.641,33.758,257.283,33.758,257.924,33.769z"/>
<g>
	<path style="fill:#FF4719;" d="M402.286,478.242h-12.568l-21.19-11.253V512h33.758c9.317,0,16.879-7.551,16.879-16.879
		C419.165,485.804,411.603,478.242,402.286,478.242z"/>
	<path style="fill:#FF4719;" d="M355.958,410.725H322.2v45.011l33.758-11.253c9.329,0,16.879-7.551,16.879-16.879
		C372.837,418.287,365.287,410.725,355.958,410.725z"/>
</g>
<g>
	<path style="fill:#FF754F;" d="M368.527,478.242l-81.603-18.106l35.275-15.653c9.329,0,16.879-7.551,16.879-16.879
		c0-9.317-7.551-16.879-16.879-16.879H156.042c-9.329,0-16.879,7.562-16.879,16.879c0,9.329,7.551,16.879,16.879,16.879
		l35.275,15.653l-81.603,18.106c-9.317,0-16.879,7.562-16.879,16.879c0,9.329,7.562,16.879,16.879,16.879h258.813
		c9.317,0,16.879-7.551,16.879-16.879C385.407,485.804,377.845,478.242,368.527,478.242z"/>
	<path style="fill:#FF754F;" d="M355.958,444.484H322.2l33.758,33.758h33.758C389.716,459.675,374.525,444.484,355.958,444.484z"/>
</g>
<path style="fill:#FF9269;" d="M355.958,478.242H122.284c0-18.567,15.191-33.758,33.758-33.758H322.2
	C340.767,444.484,355.958,459.675,355.958,478.242z"/>
<path style="fill:#FFBE35;" d="M331.596,243.228L256,323.517c29.527,0,56.241-11.962,75.596-31.305V243.228z"/>
<path style="fill:#FF4719;" d="M316.371,182.857v94.129l15.225,15.225c19.343-19.355,31.305-46.069,31.305-75.596L316.371,182.857z"
	/>
<path style="fill:#FFCD60;" d="M316.371,171.604v105.382c-13.177,28.098-35.3,46.53-60.371,46.53
	c-59.043,0-106.901-47.858-106.901-106.901L316.371,171.604z"/>
<path style="fill:#FF754F;" d="M256,216.615l36.571-11.253l36.571,11.253c0,22.404-4.715,43.188-12.772,60.371L256,216.615z"/>
<path style="fill:#FF9269;" d="M331.596,141.019h-37.73l35.277,75.596h33.758C362.901,187.088,350.939,160.374,331.596,141.019z"/>
<path style="fill:#FFEAB5;" d="M256,109.714l18.848,56.545L256,216.615H149.099C149.099,157.572,196.957,109.714,256,109.714z"/>
<path style="fill:#FFB082;" d="M329.143,216.615H256l18.848-50.356l41.523-10.015C324.428,173.427,329.143,194.211,329.143,216.615z
	"/>
<path style="fill:#25BBCC;" d="M256,109.714l60.371,46.53l15.225-15.225C312.241,121.676,285.527,109.714,256,109.714z"/>
<path style="fill:#50D1DD;" d="M316.371,156.244L256,216.615V109.714C281.071,109.714,303.194,128.146,316.371,156.244z"/>
<g>
</g>
<g>
</g>
<g>
</g>
<g>
</g>
<g>
</g>
<g>
</g>
<g>
</g>
<g>
</g>
<g>
</g>
<g>
</g>
<g>
</g>
<g>
</g>
<g>
</g>
<g>
</g>
<g>
</g>
</svg>
