<?xml version="1.0" encoding="UTF-8" standalone="no"?>
<!-- Generator: Adobe Illustrator 15.0.2, SVG Export Plug-In . SVG Version: 6.00 Build 0)  -->

<svg
   xmlns:dc="http://purl.org/dc/elements/1.1/"
   xmlns:cc="http://creativecommons.org/ns#"
   xmlns:rdf="http://www.w3.org/1999/02/22-rdf-syntax-ns#"
   xmlns:svg="http://www.w3.org/2000/svg"
   xmlns="http://www.w3.org/2000/svg"
   xmlns:sodipodi="http://sodipodi.sourceforge.net/DTD/sodipodi-0.dtd"
   xmlns:inkscape="http://www.inkscape.org/namespaces/inkscape"
   version="1.1"
   id="Ebene_1"
   x="0px"
   y="0px"
   width="128"
   height="128"
   viewBox="0 0 128 127.99999"
   enable-background="new 0 0 841.89 595.275"
   xml:space="preserve"
   inkscape:version="0.91 r13725"
   sodipodi:docname="Kodi-side-by-side.svg"><metadata
     id="metadata35"><rdf:RDF><cc:Work
         rdf:about=""><dc:format>image/svg+xml</dc:format><dc:type
           rdf:resource="http://purl.org/dc/dcmitype/StillImage" /><dc:title></dc:title></cc:Work></rdf:RDF></metadata><defs
     id="defs33" /><sodipodi:namedview
     pagecolor="#ffffff"
     bordercolor="#666666"
     borderopacity="1"
     objecttolerance="10"
     gridtolerance="10"
     guidetolerance="10"
     inkscape:pageopacity="0"
     inkscape:pageshadow="2"
     inkscape:window-width="1920"
     inkscape:window-height="1017"
     id="namedview31"
     showgrid="false"
     inkscape:snap-page="false"
     inkscape:zoom="2.2426904"
     inkscape:cx="-26.797691"
     inkscape:cy="36.177527"
     inkscape:window-x="-8"
     inkscape:window-y="-8"
     inkscape:window-maximized="1"
     inkscape:current-layer="g3" /><g
     id="g3"
     transform="translate(0,-467.27502)"><g
       id="g15"
       transform="matrix(0.68574947,0,0,0.68574947,-86.721324,332.38887)"><path
         d="m 313.057,291.184 c -0.602,1.953 -1.921,3.383 -3.333,4.79 -9.465,9.433 -18.9,18.897 -28.345,28.349 -3.403,3.405 -7.04,3.396 -10.457,-0.024 -9.748,-9.755 -19.497,-19.51 -29.24,-29.267 -3.32,-3.323 -3.318,-6.953 0.01,-10.283 9.799,-9.815 19.601,-19.625 29.404,-29.433 3.189,-3.192 6.937,-3.194 10.126,-0.004 9.503,9.505 18.992,19.023 28.513,28.512 1.413,1.407 2.728,2.842 3.323,4.797 l 0,2.563 z"
         id="path17"
         inkscape:connector-curvature="0"
         style="clip-rule:evenodd;fill:#31afe1;fill-rule:evenodd" /><path
         d="m 219.101,382.575 c -1.944,-0.617 -3.352,-1.962 -4.753,-3.372 -9.425,-9.474 -18.878,-18.916 -28.322,-28.371 -3.379,-3.384 -3.382,-6.993 -0.011,-10.369 9.773,-9.781 19.547,-19.563 29.324,-29.343 3.25,-3.251 6.974,-3.264 10.206,-0.029 9.775,9.779 19.549,19.563 29.321,29.347 3.357,3.362 3.366,7.045 0.024,10.389 -9.526,9.538 -19.066,19.062 -28.57,28.617 -1.36,1.366 -2.759,2.596 -4.655,3.132 l -2.564,0 z"
         id="path19"
         inkscape:connector-curvature="0"
         style="clip-rule:evenodd;fill:#31afe1;fill-rule:evenodd" /><path
         d="m 184.799,266.464 c 0,-10.877 0.098,-21.754 -0.063,-32.628 -0.045,-3.147 0.706,-5.605 3.11,-7.682 1.932,-1.671 3.647,-3.599 5.458,-5.414 7.166,-7.173 14.329,-14.344 21.497,-21.515 3.37,-3.37 7.006,-3.367 10.374,0.002 9.749,9.751 19.495,19.505 29.243,29.259 3.349,3.353 3.346,7.037 -0.002,10.389 -11.527,11.543 -23.059,23.082 -34.589,34.621 -10.182,10.194 -20.362,20.386 -30.545,30.576 -1.887,1.889 -3.559,1.448 -4.244,-1.169 -0.211,-0.81 -0.229,-1.685 -0.229,-2.532 -0.014,-11.301 -0.01,-22.605 -0.01,-33.907"
         id="path21"
         inkscape:connector-curvature="0"
         style="clip-rule:evenodd;fill:#31afe1;fill-rule:evenodd" /><path
         d="m 161.487,290.03 c 0,9.98 0.014,19.964 -0.021,29.944 -0.004,0.947 -0.154,1.951 -0.494,2.832 -0.666,1.732 -1.916,1.947 -3.224,0.641 -4.591,-4.582 -9.169,-9.179 -13.75,-13.768 -5.296,-5.304 -10.594,-10.609 -15.887,-15.917 -2.191,-2.197 -2.2,-5.245 -0.018,-7.453 9.748,-9.859 19.498,-19.717 29.252,-29.574 0.645,-0.651 1.252,-1.535 2.349,-1.121 1.047,0.396 1.461,1.341 1.609,2.388 0.094,0.649 0.167,1.31 0.168,1.965 0.01,10.021 0.006,20.041 0.006,30.063 l 0.01,0 z"
         id="path23"
         inkscape:connector-curvature="0"
         style="clip-rule:evenodd;fill:#31afe1;fill-rule:evenodd" /></g></g></svg>