<?xml version="1.0" encoding="iso-8859-1"?>
<!-- Generator: Adobe Illustrator 19.0.0, SVG Export Plug-In . SVG Version: 6.00 Build 0)  -->
<svg version="1.1" id="Layer_1" xmlns="http://www.w3.org/2000/svg" xmlns:xlink="http://www.w3.org/1999/xlink" x="0px" y="0px"
	 viewBox="0 0 491.54 491.54" style="enable-background:new 0 0 491.54 491.54;" xml:space="preserve">
<rect x="237.015" style="fill:#D5D6DB;" width="17.505" height="252.467"/>
<path style="fill:#EBF0F3;" d="M245.77,180.726c-102.702,0-186.656,80.266-192.552,181.488c-0.361,6.192,4.646,11.395,10.848,11.395
	h363.408c6.202,0,11.209-5.203,10.849-11.395C432.426,260.992,348.471,180.726,245.77,180.726z"/>
<path style="fill:#E1E6E9;" d="M229.47,196.951c-1.893,0-3.766,0.076-5.646,0.13c89.097,8.648,158.514,77.572,158.514,161.335
	h23.715C406.054,269.241,326.994,196.951,229.47,196.951z"/>
<g>
	<path style="fill:#FCD462;" d="M245.77,460.52c48,0,86.911-38.911,86.911-86.911H158.858
		C158.858,421.608,197.77,460.52,245.77,460.52z"/>
	<rect x="241.981" y="473.754" style="fill:#FCD462;" width="7.598" height="17.787"/>
	
		<rect x="296.47" y="459.114" transform="matrix(-0.8659 0.5001 -0.5001 -0.8659 794.3576 723.0944)" style="fill:#FCD462;" width="7.598" height="17.787"/>
	
		<rect x="142.448" y="424.271" transform="matrix(-0.8661 0.4999 -0.4999 -0.8661 496.4186 723.1449)" style="fill:#FCD462;" width="17.787" height="7.598"/>
	
		<rect x="182.37" y="464.235" transform="matrix(-0.5 0.866 -0.866 -0.5 692.2267 536.399)" style="fill:#FCD462;" width="17.787" height="7.598"/>
	
		<rect x="336.391" y="419.207" transform="matrix(-0.5 0.866 -0.866 -0.5 881.0286 347.5234)" style="fill:#FCD462;" width="7.598" height="17.787"/>
</g>
<g>
</g>
<g>
</g>
<g>
</g>
<g>
</g>
<g>
</g>
<g>
</g>
<g>
</g>
<g>
</g>
<g>
</g>
<g>
</g>
<g>
</g>
<g>
</g>
<g>
</g>
<g>
</g>
<g>
</g>
</svg>
