<?xml version="1.0" encoding="iso-8859-1"?>
<!-- Generator: Adobe Illustrator 19.1.0, SVG Export Plug-In . SVG Version: 6.00 Build 0)  -->
<svg version="1.1" id="Capa_1" xmlns="http://www.w3.org/2000/svg" xmlns:xlink="http://www.w3.org/1999/xlink" x="0px" y="0px"
	 viewBox="0 0 217.222 217.222" style="enable-background:new 0 0 217.222 217.222;" xml:space="preserve">
<g>
	<g id="group-73svg">
		<path id="path-1_131_" style="fill:#FBB713;" d="M102.371,211.622c0-0.761,0.667-1.377,1.489-1.377s1.489,0.616,1.489,1.377v4.222
			c0,0.761-0.667,1.378-1.489,1.378s-1.489-0.617-1.489-1.378V211.622z"/>
		<path id="path-2_131_" style="fill:#FBB713;" d="M180.158,146.709l-3.962-3.962c-0.763-0.763-2.049-0.716-2.871,0.106
			c-0.822,0.822-0.869,2.108-0.105,2.871l0.184,0.184c0.764,0.764,0.717,2.049-0.105,2.871c-0.822,0.823-2.107,0.869-2.871,0.106
			l-8.516-8.516c-0.764-0.764-2.049-0.715-2.871,0.106c-0.822,0.822-0.869,2.107-0.105,2.871l10.233,10.233l20.917,20.917
			c0.764,0.763,2.049,0.717,2.871-0.106c0.822-0.821,0.869-2.108,0.105-2.871l-2.363-2.363c-0.764-0.764-0.717-2.05,0.106-2.872
			c0.821-0.822,2.107-0.869,2.871-0.104l9.282,9.28c0.764,0.765,2.049,0.718,2.871-0.104c0.822-0.822,0.869-2.107,0.105-2.872
			l-0.692-0.693L180.158,146.709z"/>
		<path id="path-3_131_" style="fill:#FBB713;" d="M195.444,180.121c-0.538-0.538-0.503-1.445,0.079-2.027s1.489-0.616,2.027-0.078
			l2.985,2.984c0.538,0.538,0.502,1.446-0.078,2.028c-0.582,0.581-1.489,0.616-2.028,0.078L195.444,180.121z"/>
		<path id="path-4_131_" style="fill:#FBB713;" d="M115.189,177.187v-5.602c0-1.08-0.942-1.955-2.105-1.955
			c-1.162,0-2.105,0.875-2.105,1.955v0.261c0,1.08-0.942,1.955-2.104,1.955c-1.162,0-2.105-0.875-2.105-1.955v-12.042
			c0-1.08-0.943-1.956-2.105-1.956c-1.162,0-2.105,0.876-2.105,1.956v14.472v29.58c0,1.08,0.943,1.955,2.105,1.955
			c1.162,0,2.105-0.875,2.105-1.955v-3.343c0-1.08,0.943-1.956,2.105-1.956c1.162,0,2.104,0.876,2.104,1.956v13.126
			c0,1.081,0.943,1.957,2.105,1.957c1.163,0,2.105-0.876,2.105-1.957v-0.98V177.187z"/>
		<path id="path-5_130_" style="fill:#FBB713;" d="M37.065,146.709l3.961-3.962c0.764-0.763,2.05-0.716,2.872,0.106
			c0.821,0.822,0.868,2.108,0.105,2.871l-0.184,0.184c-0.764,0.764-0.717,2.049,0.105,2.871c0.822,0.823,2.107,0.869,2.871,0.106
			l8.516-8.516c0.763-0.764,2.049-0.715,2.871,0.106c0.821,0.822,0.869,2.107,0.105,2.871l-10.234,10.233l-20.916,20.917
			c-0.764,0.763-2.05,0.717-2.872-0.106c-0.821-0.821-0.869-2.108-0.105-2.871l2.364-2.363c0.763-0.764,0.716-2.05-0.106-2.872
			c-0.822-0.822-2.107-0.869-2.871-0.104l-9.282,9.28c-0.764,0.765-2.05,0.718-2.871-0.104c-0.822-0.822-0.87-2.107-0.106-2.872
			l0.693-0.693L37.065,146.709z"/>
		<path id="path-6_127_" style="fill:#FBB713;" d="M21.778,180.121c0.539-0.538,0.503-1.445-0.078-2.027s-1.489-0.616-2.027-0.078
			L16.688,181c-0.538,0.538-0.503,1.446,0.078,2.028c0.582,0.581,1.489,0.616,2.027,0.078L21.778,180.121z"/>
		<path id="path-7_124_" style="fill:#FF3A2F;" d="M108.292,70.98h-7.938V0h7.938V70.98z"/>
		<path id="path-8_101_" style="opacity:0.35;enable-background:new    ;" d="M108.292,70.98h-7.938v-2.9l7.938-4.922V70.98z"/>
		<path id="path-9_87_" style="fill:#FBB713;" d="M104.323,70.541c-32.909,0-59.586,26.676-59.586,59.584h119.172
			C163.909,97.217,137.232,70.541,104.323,70.541z"/>
		<path id="path-10_79_" style="fill:#EDEDED;" d="M59.388,114.949c-0.319,0-0.637-0.041-0.958-0.128
			c-1.928-0.528-3.066-2.518-2.539-4.447c4.487-16.44,17.399-29.756,33.698-34.752c1.92-0.583,3.935,0.49,4.522,2.401
			c0.587,1.911-0.488,3.937-2.4,4.521c-13.949,4.276-24.994,15.67-28.834,29.736C62.439,113.89,60.979,114.949,59.388,114.949z"/>
		<path id="path-11_68_" style="fill:#FF3A2F;" d="M104.323,146.142c9.061,0,16.405-7.344,16.405-16.404h-32.81
			C87.918,138.798,95.263,146.142,104.323,146.142z"/>
		<path id="path-12_58_" style="opacity:0.25;enable-background:new    ;" d="M104.323,70.541c-1.659,0-3.297,0.086-4.921,0.219
			c30.603,2.503,54.664,28.115,54.664,59.365h9.844C163.91,97.217,137.232,70.541,104.323,70.541z"/>
		<path id="path-13_45_" style="opacity:0.35;enable-background:new    ;" d="M87.918,129.738c0,1.716,0.17,0,0,1.716l22.967,3.205
			c0,4.41-1.749,8.404-4.58,11.352c8.124-0.98,14.423-7.886,14.423-16.273H87.918z"/>
	</g>
</g>
<g>
</g>
<g>
</g>
<g>
</g>
<g>
</g>
<g>
</g>
<g>
</g>
<g>
</g>
<g>
</g>
<g>
</g>
<g>
</g>
<g>
</g>
<g>
</g>
<g>
</g>
<g>
</g>
<g>
</g>
</svg>
