<?xml version="1.0" encoding="iso-8859-1"?>
<!-- Generator: Adobe Illustrator 18.0.0, SVG Export Plug-In . SVG Version: 6.00 Build 0)  -->
<!DOCTYPE svg PUBLIC "-//W3C//DTD SVG 1.1//EN" "http://www.w3.org/Graphics/SVG/1.1/DTD/svg11.dtd">
<svg version="1.1" id="Capa_1" xmlns="http://www.w3.org/2000/svg" xmlns:xlink="http://www.w3.org/1999/xlink" x="0px" y="0px"
	 viewBox="0 0 512 512" style="enable-background:new 0 0 512 512;" xml:space="preserve">
<g>
	<path style="fill:#576D7E;" d="M432,368v48c0,44.113-35.891,80-80,80s-80-35.887-80-80h-8v-8c0-4.418-3.578-8-8-8s-8,3.582-8,8v8
		h-8c0,44.113-35.891,80-80,80s-80-35.887-80-80v-48H64v48c0,52.934,43.063,96,96,96c39.34,0,73.188-23.805,88-57.748V504
		c0,4.418,3.578,8,8,8s8-3.582,8-8v-49.748C278.813,488.195,312.66,512,352,512c52.938,0,96-43.066,96-96v-48H432z"/>
	<g>
		<path style="fill:#35495C;" d="M320,16l-128,0c-4.418,0-8-3.582-8-8v0c0-4.418,3.582-8,8-8l128,0c4.418,0,8,3.582,8,8v0
			C328,12.418,324.418,16,320,16z"/>
	</g>
	<g>
		<path style="fill:#576D7E;" d="M280,48h-48c-8.837,0-16-7.163-16-16V16h80v16C296,40.837,288.837,48,280,48z"/>
	</g>
	<g>
		<rect x="247" y="48" style="fill:#35495C;" width="16" height="16"/>
	</g>
	<g>
		<rect x="247" y="368" style="fill:#35495C;" width="16" height="16"/>
	</g>
	<g>
		<rect x="432" y="368" style="fill:#35495C;" width="16" height="16"/>
	</g>
	<g>
		<rect x="64" y="368" style="fill:#35495C;" width="16" height="16"/>
	</g>
	<path style="fill:#F5B445;" d="M503.758,334.059l-24-96C478.867,234.5,475.672,232,472,232h-64c-3.672,0-6.867,2.5-7.758,6.059
		l-24,96C376.078,334.695,376,335.348,376,336v24c0,4.418,3.578,8,8,8h112c4.422,0,8-3.582,8-8v-24
		C504,335.348,503.922,334.695,503.758,334.059z"/>
	<path style="fill:#F5B445;" d="M319.758,334.059l-24-96C294.867,234.5,291.672,232,288,232h-64c-3.672,0-6.867,2.5-7.758,6.059
		l-24,96C192.078,334.695,192,335.348,192,336v24c0,4.418,3.578,8,8,8h112c4.422,0,8-3.582,8-8v-24
		C320,335.348,319.922,334.695,319.758,334.059z"/>
	<g>
		<rect x="247" y="368" style="fill:#576D7E;" width="16" height="24"/>
		<rect x="247" y="64" style="fill:#576D7E;" width="16" height="168"/>
	</g>
	<path style="fill:#F5B445;" d="M135.758,334.059l-24-96C110.867,234.5,107.672,232,104,232H40c-3.672,0-6.867,2.5-7.758,6.059
		l-24,96C8.078,334.695,8,335.348,8,336v24c0,4.418,3.578,8,8,8h112c4.422,0,8-3.582,8-8v-24
		C136,335.348,135.922,334.695,135.758,334.059z"/>
	<g>
		<path style="fill:#576D7E;" d="M272,416h-32c-4.418,0-8-3.582-8-8v-8c0-4.418,3.582-8,8-8h32c4.418,0,8,3.582,8,8v8
			C280,412.418,276.418,416,272,416z"/>
	</g>
	<path style="fill:#F09820;" d="M136,360v-24c-0.079-0.641-0.157-1.275-0.236-1.916l-24.006-96.025
		c-0.89-3.561-4.089-6.059-7.76-6.059h0c-13.019,0-23.353,10.96-22.589,23.957l4.221,71.763C86.405,340.893,75.932,352,62.737,352
		H16c-4.418,0-8,3.582-8,8v0c0,4.418,3.582,8,8,8h72h8h32C132.418,368,136,364.418,136,360z"/>
	<path style="fill:#F09820;" d="M320,360v-24c-0.079-0.641-0.157-1.275-0.236-1.916l-24.006-96.025
		c-0.89-3.561-4.089-6.059-7.76-6.059h0c-13.019,0-23.353,10.96-22.589,23.957l4.221,71.763c0.775,13.172-9.699,24.28-22.894,24.28
		H200c-4.418,0-8,3.582-8,8v0c0,4.418,3.582,8,8,8h72h8h32C316.418,368,320,364.418,320,360z"/>
	<path style="fill:#F09820;" d="M504,360v-24c-0.079-0.641-0.157-1.275-0.236-1.916l-24.006-96.025
		c-0.89-3.561-4.089-6.059-7.76-6.059h0c-13.019,0-23.353,10.96-22.589,23.957l4.221,71.763c0.775,13.172-9.699,24.28-22.894,24.28
		H384c-4.418,0-8,3.582-8,8v0c0,4.418,3.582,8,8,8h72h8h32C500.418,368,504,364.418,504,360z"/>
	<path style="fill:#35495C;" d="M273.613,432c-1.054-5.171-1.613-10.521-1.613-16h-8h-16h-8c0,5.479-0.559,10.829-1.613,16H273.613z
		"/>
</g>
<g>
</g>
<g>
</g>
<g>
</g>
<g>
</g>
<g>
</g>
<g>
</g>
<g>
</g>
<g>
</g>
<g>
</g>
<g>
</g>
<g>
</g>
<g>
</g>
<g>
</g>
<g>
</g>
<g>
</g>
</svg>
