<?xml version="1.0" encoding="iso-8859-1"?>
<!-- Generator: Adobe Illustrator 19.0.0, SVG Export Plug-In . SVG Version: 6.00 Build 0)  -->
<svg version="1.1" id="Layer_1" xmlns="http://www.w3.org/2000/svg" xmlns:xlink="http://www.w3.org/1999/xlink" x="0px" y="0px"
	 viewBox="0 0 496.2 496.2" style="enable-background:new 0 0 496.2 496.2;" xml:space="preserve">
<path style="fill:#FABC3D;" d="M496.2,248.1C496.2,111.1,385.1,0,248.1,0S0,111.1,0,248.1s111.1,248.1,248.1,248.1
	S496.2,385.1,496.2,248.1z"/>
<g>
	<path style="fill:#FFFFFF;" d="M0.1,241.4h496c-0.1-2.7-0.2-5.4-0.4-8.1H0.5C0.3,236,0.2,238.7,0.1,241.4z"/>
	<path style="fill:#FFFFFF;" d="M9.7,179.4h476.9c-0.8-2.7-1.6-5.4-2.5-8.1h-472C11.3,174,10.4,176.7,9.7,179.4z"/>
	<path style="fill:#FFFFFF;" d="M453.8,109.4H42.4c-1.8,2.7-3.5,5.4-5.2,8.1H459C457.3,114.7,455.6,112,453.8,109.4z"/>
	<path style="fill:#FFFFFF;" d="M6.2,303.4h483.7c0.6-2.7,1.2-5.4,1.7-8.1H4.5C5.1,298.1,5.6,300.8,6.2,303.4z"/>
	<path style="fill:#FFFFFF;" d="M29.5,365.4h437.2c1.4-2.7,2.8-5.4,4.2-8.1H25.3C26.7,360.1,28.1,362.8,29.5,365.4z"/>
</g>
<g>
	<path style="fill:#3A3A38;" d="M148.2,150c0-3-2.4-5.4-5.4-5.4s-5.4,2.4-5.4,5.4v136.9c-7.7-5.1-19-8.3-31.5-8.3
		c-23.3,0-42.2,11.1-42.2,24.9s18.9,24.9,42.2,24.9c22.5,0,40.9-10.4,42.1-23.4c0.1-0.4,0.2-0.9,0.2-1.3L148.2,150L148.2,150z"/>
	<path style="fill:#3A3A38;" d="M290.3,82.6c0-3-2.4-5.4-5.4-5.4s-5.4,2.4-5.4,5.4v136.9c-7.7-5.1-19-8.3-31.5-8.3
		c-23.3,0-42.2,11.1-42.2,24.9c0,13.8,18.9,24.9,42.2,24.9c22.5,0,40.9-10.4,42.1-23.4c0.1-0.4,0.2-0.9,0.2-1.3L290.3,82.6
		L290.3,82.6z"/>
	<path style="fill:#3A3A38;" d="M406.2,205.5c0-3-2.4-5.4-5.4-5.4s-5.4,2.4-5.4,5.4v136.9c-7.7-5.1-19-8.3-31.5-8.3
		c-23.3,0-42.2,11.1-42.2,24.9s18.9,24.9,42.2,24.9c22.5,0,40.9-10.4,42.1-23.4c0.1-0.4,0.2-0.9,0.2-1.3L406.2,205.5L406.2,205.5z"
		/>
</g>
<g>
</g>
<g>
</g>
<g>
</g>
<g>
</g>
<g>
</g>
<g>
</g>
<g>
</g>
<g>
</g>
<g>
</g>
<g>
</g>
<g>
</g>
<g>
</g>
<g>
</g>
<g>
</g>
<g>
</g>
</svg>
