<?xml version="1.0" encoding="UTF-8" standalone="no"?>
<svg
   xmlns:dc="http://purl.org/dc/elements/1.1/"
   xmlns:cc="http://creativecommons.org/ns#"
   xmlns:rdf="http://www.w3.org/1999/02/22-rdf-syntax-ns#"
   xmlns:svg="http://www.w3.org/2000/svg"
   xmlns="http://www.w3.org/2000/svg"
   xmlns:sodipodi="http://sodipodi.sourceforge.net/DTD/sodipodi-0.dtd"
   xmlns:inkscape="http://www.inkscape.org/namespaces/inkscape"
   version="1.1"
   x="0px"
   y="0px"
   viewBox="0 0 64 64"
   enable-background="new 0 0 64 64"
   xml:space="preserve"
   id="svg2"
   inkscape:version="0.91 r13725"
   sodipodi:docname="onoff_monochrome-off.svg"><metadata
     id="metadata16"><rdf:RDF><cc:Work
         rdf:about=""><dc:format>image/svg+xml</dc:format><dc:type
           rdf:resource="http://purl.org/dc/dcmitype/StillImage" /></cc:Work></rdf:RDF></metadata><defs
     id="defs14" /><sodipodi:namedview
     pagecolor="#ffffff"
     bordercolor="#666666"
     borderopacity="1"
     objecttolerance="10"
     gridtolerance="10"
     guidetolerance="10"
     inkscape:pageopacity="0"
     inkscape:pageshadow="2"
     inkscape:window-width="640"
     inkscape:window-height="480"
     id="namedview12"
     showgrid="false"
     inkscape:zoom="3.6875"
     inkscape:cx="32"
     inkscape:cy="32"
     inkscape:window-x="0"
     inkscape:window-y="0"
     inkscape:window-maximized="0"
     inkscape:current-layer="svg2" /><path
     fill="#F00014"
     d="M32,59.5C17.939,59.5,6.5,48.061,6.5,34c0-10.074,5.862-19.115,15-23.242v8.013 c-5.014,3.463-8,9.136-8,15.229c0,10.201,8.299,18.5,18.5,18.5S50.5,44.201,50.5,34c0-6.094-2.986-11.767-8-15.229v-8.013 c9.138,4.127,15,13.168,15,23.242C57.5,48.061,46.061,59.5,32,59.5z"
     id="path4"
     style="fill:#999999" /><path
     fill="#D6001A"
     d="M43,11.546C51.553,15.731,57,24.386,57,34c0,13.785-11.215,25-25,25S7,47.785,7,34 c0-9.614,5.447-18.269,14-22.454v6.965c-5.019,3.568-8,9.319-8,15.49c0,10.477,8.523,19,19,19s19-8.523,19-19 c0-6.171-2.981-11.921-8-15.49V11.546 M42,9.996v9.039c4.823,3.229,8,8.725,8,14.965c0,9.941-8.059,18-18,18s-18-8.059-18-18 c0-6.24,3.177-11.736,8-14.965V9.996C12.605,13.914,6,23.185,6,34c0,14.359,11.641,26,26,26c14.359,0,26-11.641,26-26 C58,23.185,51.395,13.914,42,9.996L42,9.996z"
     id="path6"
     style="fill:#666666" /><rect
     x="28.5"
     y="4.5"
     fill="#F00014"
     width="7"
     height="23"
     id="rect8"
     style="fill:#cccccc" /><path
     fill="#D6001A"
     d="M35,5v22h-6V5H35 M36,4h-8v24h8V4L36,4z"
     id="path10"
     style="fill:#999999" /></svg>