<?xml version="1.0" ?><svg id="Ebene_1" style="enable-background:new 0 0 256 256;" version="1.1" viewBox="0 0 256 256" xml:space="preserve" xmlns="http://www.w3.org/2000/svg" xmlns:xlink="http://www.w3.org/1999/xlink"><style type="text/css">
	.st0{fill:none;stroke:#FF0000;stroke-miterlimit:10;}
	.st1{stroke:url(#SVGID_1_);stroke-miterlimit:10;}
</style><g><path d="M36,62.3c0.3-1.2-0.7-2.3-2-2.3h-2c-0.4,0-0.8,0.1-1.2,0.2l-13.4,4.2c-1.9,0.6-1.9,3.2,0,3.8l4.5,1.4   c0.9,0.3,1.8,0.9,2.3,1.8l3.7,62.6c0.1,2.5,3.9,2.5,4,0l3.9-70.3C35.9,63.2,35.9,62.7,36,62.3z"/><path d="M226,87.3c-11.1-17.1-22.2-25.2-33-23.9c-8.3,1-13.6,7.5-15.1,11.6c-0.4,1-0.7,2.4-1.1,3.9l-0.8-19c-0.1-2.1-1.9-3.8-4-3.8   H43.8c-2.1,0-3.9,1.7-4,3.8l-7.8,146.8c-0.8,18.2,13.8,33.4,32,33.4h86.4c18.2,0,32.8-15.2,32-33.4l-0.6-14.5   c1.8,0,3.4-1.3,3.8-3.2c0-0.2,3.5-16.5,4.6-21.3c0.2-0.7,0.9-1.7,2.4-2.4c1.5-0.7,5.6-1.8,12.4,2.1c8.7,5.3,14.8,4,18.3,2   c6.2-3.2,11.9-12,14.8-22.5C241,136,243.3,113.9,226,87.3z M167.7,224.6c-4.6,4.8-10.7,7.4-17.3,7.4H64.1c-6.6,0-12.8-2.6-17.3-7.4   c-4.6-4.8-6.9-11-6.6-17.6l7.6-143h120.5l6.2,143C174.7,213.6,172.3,219.8,167.7,224.6z M230.3,144.7c-2.8,10.2-7.9,16.1-10.8,17.5   c-0.1,0-0.1,0.1-0.2,0.1c-2.5,1.4-6,0.8-10.4-1.9c0,0-0.1,0-0.1-0.1c-9.6-5.4-16.4-3.9-19.6-2.5c-3.6,1.6-6.2,4.5-7,7.9   c-0.3,1.5-0.9,4-1.5,6.8l-3.2-72.5c2.1,0.1,3.9-1.4,4.2-3.5c0.5-4,2.1-15.2,3.5-18.9c0.6-1.8,3.7-5.8,8.5-6.4   c7.3-0.9,16.3,6.4,25.3,20.4C234.9,115.7,232.9,135.2,230.3,144.7z"/></g></svg>