<?xml version="1.0" ?><svg id="Ebene_1" style="enable-background:new 0 0 256 256;" version="1.1" viewBox="0 0 256 256" xml:space="preserve" xmlns="http://www.w3.org/2000/svg" xmlns:xlink="http://www.w3.org/1999/xlink"><style type="text/css">
	.st0{fill:none;stroke:#FF0000;stroke-miterlimit:10;}
	.st1{stroke:url(#SVGID_1_);stroke-miterlimit:10;}
</style><path d="M195.3,191.8l-14.7-14.6c-0.2-0.2-0.4-0.4-0.6-0.5c0-0.2,0-0.4,0-0.7v-16c0-4.4-3.6-8-8-8h-14V98.7c0-1.7,2.1-3.5,2.5-5.1  l6.3-27.8C173.1,40.5,154,16,127.9,16h0c-26.1,0-44.7,24.3-38.9,49.8l6.4,27.8c0.4,1.6,1.6,3.7,2.6,5.1V152H84c-4.4,0-8,3.6-8,8v16  c0,0.2,0,0.4,0,0.7c-0.2,0.1-0.4,0.3-0.6,0.5l-14.7,14.6c-3,3-4.7,7.1-4.7,11.3v26.6c0,5.7,4.6,10.2,10.3,10.2h123.4  c5.7,0,10.3-4.6,10.3-10.2v-26.6C200,198.9,198.3,194.8,195.3,191.8z M84,160h88v16H84V160z M192,229.8c0,1.2-1,2.2-2.3,2.2H66.3  c-1.3,0-2.3-1-2.3-2.2v-26.6c0-2.1,0.9-4.2,2.4-5.7L79.9,184H84h88h4.1l13.5,13.5c1.5,1.5,2.4,3.6,2.4,5.7V229.8z"/></svg>