<?xml version="1.0" ?><svg id="Ebene_1" style="enable-background:new 0 0 256 256;" version="1.1" viewBox="0 0 256 256" xml:space="preserve" xmlns="http://www.w3.org/2000/svg" xmlns:xlink="http://www.w3.org/1999/xlink"><style type="text/css">
	.st0{fill:none;stroke:#FF0000;stroke-miterlimit:10;}
	.st1{stroke:url(#SVGID_1_);stroke-miterlimit:10;}
</style><g><path d="M196,40H60c-2.2,0-4,1.8-4,4v124c0,4.4,3.6,8,8,8h9.4c3.5,0,6.5,2.7,6.9,6.2c3,23.6,23.2,41.8,47.6,41.8   s44.6-18.2,47.6-41.8c0.5-3.5,3.4-6.2,6.9-6.2h9.4c4.4,0,8-3.6,8-8V44C200,41.8,198.2,40,196,40z M192,168h-9.4   c-7.5,0-13.9,5.7-14.9,13.2C165.1,201,148.1,216,128,216s-37.1-15-39.7-34.8c-1-7.5-7.4-13.2-14.9-13.2H64V48h128V168z"/><path d="M91.4,36h9.2c1.9,0,3.4-1.5,3.4-3.4V19.4c0-1.9-1.5-3.4-3.4-3.4h-9.2c-1.9,0-3.4,1.5-3.4,3.4v13.2C88,34.5,89.5,36,91.4,36   z M92,20h8v12h-8V20z"/><path d="M155.4,36h9.2c1.9,0,3.4-1.5,3.4-3.4V19.4c0-1.9-1.5-3.4-3.4-3.4h-9.2c-1.9,0-3.4,1.5-3.4,3.4v13.2   C152,34.5,153.5,36,155.4,36z M156,20h8v12h-8V20z"/><path d="M85,22H44c-2.2,0-4,1.8-4,4c0,2.2,1.8,4,4,4h41V22z"/><rect height="8" width="41" x="107" y="22"/><path d="M212,22h-42v8h42c2.2,0,4-1.8,4-4C216,23.8,214.2,22,212,22z"/><path d="M147,156.5c0.3-2.4-1.6-4.5-4-4.5H113c-2.4,0-4.3,2.1-4,4.5c1.1,8.8,5.1,27.5,19,27.5c6.4,0,10.6-3.9,13.5-9   c1.4,0,6.9-0.2,9.6-2.4l5-7.6c0-3.3-3.8-6-8-6h-1.5C146.8,158.1,146.9,157.3,147,156.5z M148.1,163c1.7,0,3,0.7,3.6,1.4l-3.5,5.4   c-0.9,0.5-2.4,0.8-4,1.1l3.5-7.8H148.1z M128,180c-4.5,0-8-2.7-10.7-8.2c-2.6-5.2-3.8-11.4-4.3-15.8h30v0c-1,4.3-1.7,10.6-4.3,15.8   C135.9,177.3,132.5,180,128,180z"/><path d="M119.1,130.9c-0.4,0.4-1.1,1-1.8,1.8c-0.7,0.8-1.2,2.1-1.3,3.2c0,0.3,0,0.5,0,0.9c0,0.2,0,0.4,0.1,0.6   c0.1,0.4,0.1,0.9,0.2,1.3c0.2,0.8,0.4,1.5,0.7,2.1c0.5,1.2,1,2.2,1.5,2.8c0.2,0.3,0.4,0.6,0.5,0.7c0.1,0.2,0.2,0.3,0.2,0.3   c0.2,0.3,0.6,0.5,1,0.4c0.5-0.1,0.9-0.7,0.8-1.2l0-0.1c0,0-0.1-0.4-0.2-1c-0.1-0.7-0.3-1.6-0.5-2.7c-0.1-0.6-0.2-1.1-0.2-1.7   c0-0.3,0-0.6,0-0.8c0-0.2,0-0.4,0-0.6c0,0,0-0.2,0-0.3c0.1-0.4,0.2-0.6,0.6-1c0.3-0.4,0.9-0.9,1.6-1.6c0.7-0.7,1.4-1.8,1.7-3   c0.3-1.4,0.1-2.2,0-3c-0.3-1.7-0.7-3.1-1.2-4.3c-0.4-1.2-0.9-2.1-1.2-2.8c-0.3-0.7-0.5-1-0.5-1l0,0c-0.2-0.3-0.6-0.5-1-0.5   c-0.6,0.1-0.9,0.6-0.8,1.2c0,0,0.1,0.4,0.2,1.1c0.1,0.7,0.2,1.7,0.4,2.8c0.2,1.2,0.3,2.5,0.4,3.9c0,0.6,0,1.5-0.1,1.6   C119.8,130.1,119.6,130.4,119.1,130.9z"/><path d="M128.9,119.7c-0.2-0.3-0.6-0.5-1-0.5c-0.6,0.1-0.9,0.6-0.8,1.2c0,0,0.1,0.4,0.2,1.1c0.1,0.7,0.2,1.7,0.4,2.8   c0.2,1.2,0.3,2.5,0.4,3.9c0,0.6,0,1.5-0.1,1.6c-0.1,0.3-0.3,0.6-0.8,1.1c-0.4,0.4-1.1,1-1.8,1.8c-0.7,0.8-1.2,2.1-1.3,3.2   c0,0.3,0,0.5,0,0.9c0,0.2,0,0.4,0.1,0.6c0.1,0.4,0.1,0.9,0.2,1.3c0.2,0.8,0.4,1.5,0.7,2.1c0.5,1.2,1,2.2,1.5,2.8   c0.2,0.3,0.4,0.6,0.5,0.7c0.1,0.2,0.2,0.3,0.2,0.3c0.2,0.3,0.6,0.5,1,0.4c0.5-0.1,0.9-0.7,0.8-1.2l0-0.1c0,0-0.1-0.4-0.2-1   c-0.1-0.7-0.3-1.6-0.5-2.7c-0.1-0.6-0.2-1.1-0.2-1.7c0-0.3,0-0.6,0-0.8c0-0.2,0-0.4,0-0.6c0,0,0-0.2,0-0.3c0.1-0.4,0.2-0.6,0.6-1   c0.3-0.4,0.9-0.9,1.6-1.6c0.7-0.7,1.4-1.8,1.7-3c0.3-1.4,0.1-2.2,0-3c-0.3-1.7-0.7-3.1-1.2-4.3c-0.4-1.2-0.9-2.1-1.2-2.8   C129.2,120,128.9,119.7,128.9,119.7L128.9,119.7z"/><path d="M135.1,130.9c-0.4,0.4-1.1,1-1.8,1.8c-0.7,0.8-1.2,2.1-1.3,3.2c0,0.3,0,0.5,0,0.9c0,0.2,0,0.4,0.1,0.6   c0.1,0.4,0.1,0.9,0.2,1.3c0.2,0.8,0.4,1.5,0.7,2.1c0.5,1.2,1,2.2,1.5,2.8c0.2,0.3,0.4,0.6,0.5,0.7c0.1,0.2,0.2,0.3,0.2,0.3   c0.2,0.3,0.6,0.5,1,0.4c0.5-0.1,0.9-0.7,0.8-1.2l0-0.1c0,0-0.1-0.4-0.2-1c-0.1-0.7-0.3-1.6-0.5-2.7c-0.1-0.6-0.2-1.1-0.2-1.7   c0-0.3,0-0.6,0-0.8c0-0.2,0-0.4,0-0.6c0,0,0-0.2,0-0.3c0.1-0.4,0.2-0.6,0.6-1c0.3-0.4,0.9-0.9,1.6-1.6c0.7-0.7,1.4-1.8,1.7-3   c0.3-1.4,0.1-2.2,0-3c-0.3-1.7-0.7-3.1-1.2-4.3c-0.4-1.2-0.9-2.1-1.2-2.8c-0.3-0.7-0.5-1-0.5-1l0,0c-0.2-0.3-0.6-0.5-1-0.5   c-0.6,0.1-0.9,0.6-0.8,1.2c0,0,0.1,0.4,0.2,1.1c0.1,0.7,0.2,1.7,0.4,2.8c0.2,1.2,0.3,2.5,0.4,3.9c0,0.6,0,1.5-0.1,1.6   C135.8,130.1,135.6,130.4,135.1,130.9z"/><path d="M81.4,100c3.3,0,6.2-0.7,8.7-2.1l-1.3-3c-2,0.7-4.2,1.1-6.7,1.1c-1.6,0-2.8-0.6-3.7-1.9s-1.2-3.3-1.2-6.3   c0-2.9,0.4-5,1.3-6.2c0.9-1.2,2-1.8,3.4-1.8c1.4,0,2.4,0.1,3.1,0.4c0.1,1.3,0.4,2.8,0.7,2.8H89c0.3,0,0.6-1.3,0.7-2.2   c0.2-0.9,0.3-1.5,0.3-1.9c0-0.4,0-0.6,0-0.8c-2-1.4-4.9-2.1-7.6-2.1c-3.3,0-5.9,1-7.7,3c-1.8,2-2.7,5.1-2.7,9.2   c0,4.2,0.7,7.2,2.2,9C75.7,99.1,78.1,100,81.4,100z"/><path d="M101,100c3.3,0,5.9-1,7.7-3.1c1.8-2.1,2.7-5.2,2.7-9.3s-0.8-7.1-2.5-8.9s-4.1-2.7-7.4-2.7s-5.9,1-7.7,3   c-1.8,2-2.7,5.1-2.7,9.2s0.8,7.2,2.5,9C95.2,99.1,97.7,100,101,100z M97.6,81.6c0.8-1.2,2-1.8,3.6-1.8c3.3,0,5,2.7,5,8.2   c0,2.9-0.4,5-1.3,6.3c-0.9,1.3-2.1,1.9-3.6,1.9s-2.8-0.7-3.6-2c-0.9-1.3-1.3-3.5-1.3-6.4C96.3,84.8,96.7,82.8,97.6,81.6z"/><path d="M113,97l0.3,3h9.6l0.4-3c-0.7-0.6-2.3-1.2-3.3-1.5V90h4.7c0.3,1,0.7,1.1,1,1.4L128,91V85l-2.3-0.3c-0.3,0.3-0.7,0.3-1,1.3   H120v-6h5.3c0.3,1,0.7,2.1,1.2,2.5l2.5-0.3V76h-15.7l-0.3,3c0.3,0.4,1,1,2,1.3v15.5C114,96.1,113.3,96.7,113,97z"/><path d="M131,97l0.3,3h9.6l0.4-3c-0.7-0.6-2.3-1.2-3.3-1.5V90h4.7c0.3,1,0.7,1.1,1,1.4L146,91V85l-2.3-0.3c-0.3,0.3-0.7,0.3-1,1.3   H138v-6h5.3c0.3,1,0.7,2.1,1.2,2.5l2.5-0.3V76h-15.7l-0.3,3c0.3,0.4,1,1,2,1.3v15.5C132,96.1,131.3,96.7,131,97z"/><path d="M149,97l0.3,3H165v-6.2l-2.3-0.3c-0.6,0.5-0.7,1.5-1,2.5H156v-6h4.7c0.3,0,0.7,1,1,1.2l2.3-0.5v-6.1l-2.3-0.2   c-0.3,0.3-0.7,0.5-1,1.5H156v-6h5.3c0.3,1,0.7,2.1,1.2,2.5l2.5-0.3V76h-15.7l-0.3,3c0.3,0.4,1,1,2,1.3v15.5   C150,96.1,149.3,96.7,149,97z"/><path d="M167.3,97l0.6,3H184v-6.2l-2.6-0.3c-0.6,0.5-1,1.5-1.3,2.5H174v-6h5.3c0.3,0,0.4,1,0.7,1.2l2-0.5v-6.1l-2-0.2   c-0.3,0.3-0.4,0.5-0.7,1.5H174v-6h5.9c0.3,1,0.9,2.1,1.4,2.5l2.7-0.3V76h-16.1l-0.6,3c0.3,0.4,0.7,1,1.7,1.3v15.5   C168,96.1,167.6,96.7,167.3,97z"/></g></svg>