<?xml version="1.0" ?><svg id="Ebene_1" style="enable-background:new 0 0 256 256;" version="1.1" viewBox="0 0 256 256" xml:space="preserve" xmlns="http://www.w3.org/2000/svg" xmlns:xlink="http://www.w3.org/1999/xlink"><style type="text/css">
	.st0{fill:none;stroke:#FF0000;stroke-miterlimit:10;}
</style><g><path d="M224,120h-8.8c0.2-2.8,0.4-5.4,0.5-7.6c0.3-4.6-3.4-8.4-8-8.4H48.3c-4.6,0-8.2,3.9-8,8.4C42,142.1,53.1,240,128,240   c42.4,0,64.4-31.4,75.7-64H216c0,0,0,0,0,0c0.4,0,12.1-0.1,16-8c3.9-8.1,8-24.1,8-32S231.8,120,224,120z M167.9,218.1   c-11.1,9.2-24.5,13.9-39.9,13.9s-28.8-4.7-39.9-13.9c-9.5-7.9-17.6-19.4-24-34c-11.7-26.6-14.9-56.6-15.7-72.1h159.4l0,0   c-0.9,15.5-4.1,45.6-15.7,72.2C185.6,198.7,177.5,210.2,167.9,218.1z M224.8,164.5c-1.3,2.6-6.6,3.5-8.8,3.5c0,0,0,0,0,0h-6.9   l9.3-40h5.6c3.4,0,8,4.6,8,8C232,142.6,228.2,157.5,224.8,164.5z"/><path d="M125.5,183.8c0.2,0.1,0.4,0.2,0.5,0.2c0.3,0,0.7-0.2,0.8-0.5l14-22c0.3-0.5,0.2-1.1-0.3-1.4c-0.5-0.3-1.1-0.2-1.4,0.3   l-14,22C124.9,182.9,125,183.5,125.5,183.8z"/><path d="M130.5,183.8c0.2,0.1,0.4,0.2,0.5,0.2c0.3,0,0.7-0.2,0.8-0.5l14-22c0.3-0.5,0.2-1.1-0.3-1.4c-0.5-0.3-1.1-0.2-1.4,0.3   l-14,22C129.9,182.9,130,183.5,130.5,183.8z"/><path d="M115.5,183.8c0.2,0.1,0.4,0.2,0.5,0.2c0.3,0,0.7-0.2,0.8-0.5l14-22c0.3-0.5,0.2-1.1-0.3-1.4c-0.5-0.3-1.1-0.2-1.4,0.3   l-14,22C114.9,182.9,115,183.5,115.5,183.8z"/><path d="M120.5,183.8c0.2,0.1,0.4,0.2,0.5,0.2c0.3,0,0.7-0.2,0.8-0.5l14-22c0.3-0.5,0.2-1.1-0.3-1.4c-0.5-0.3-1.1-0.2-1.4,0.3   l-14,22C119.9,182.9,120,183.5,120.5,183.8z"/><path d="M105.5,183.8c0.2,0.1,0.4,0.2,0.5,0.2c0.3,0,0.7-0.2,0.8-0.5l14-22c0.3-0.5,0.2-1.1-0.3-1.4c-0.5-0.3-1.1-0.2-1.4,0.3   l-14,22C104.9,182.9,105,183.5,105.5,183.8z"/><path d="M110.5,183.8c0.2,0.1,0.4,0.2,0.5,0.2c0.3,0,0.7-0.2,0.8-0.5l14-22c0.3-0.5,0.2-1.1-0.3-1.4c-0.5-0.3-1.1-0.2-1.4,0.3   l-14,22C109.9,182.9,110,183.5,110.5,183.8z"/><path d="M95.5,183.8c0.2,0.1,0.4,0.2,0.5,0.2c0.3,0,0.7-0.2,0.8-0.5l14-22c0.3-0.5,0.2-1.1-0.3-1.4c-0.5-0.3-1.1-0.2-1.4,0.3   l-14,22C94.9,182.9,95,183.5,95.5,183.8z"/><path d="M100.5,183.8c0.2,0.1,0.4,0.2,0.5,0.2c0.3,0,0.7-0.2,0.8-0.5l14-22c0.3-0.5,0.2-1.1-0.3-1.4c-0.5-0.3-1.1-0.2-1.4,0.3   l-14,22C99.9,182.9,100,183.5,100.5,183.8z"/><path d="M90.5,183.8c0.2,0.1,0.4,0.2,0.5,0.2c0.3,0,0.7-0.2,0.8-0.5l14-22c0.3-0.5,0.2-1.1-0.3-1.4c-0.5-0.3-1.1-0.2-1.4,0.3   l-14,22C89.9,182.9,90,183.5,90.5,183.8z"/><path d="M81.6,183.8c0.1-0.1,0.2-0.2,0.3-0.3l14-22c0.3-0.5,0.2-1.1-0.3-1.4c-0.5-0.3-1.1-0.2-1.4,0.3l-13.6,21.3   C80.9,182.5,81.2,183.2,81.6,183.8z"/><path d="M85.5,183.8c0.2,0.1,0.4,0.2,0.5,0.2c0.3,0,0.7-0.2,0.8-0.5l14-22c0.3-0.5,0.2-1.1-0.3-1.4c-0.5-0.3-1.1-0.2-1.4,0.3   l-14,22C84.9,182.9,85,183.5,85.5,183.8z"/><path d="M78.7,177.7c0.3,0.6,0.5,1.1,0.8,1.7l11.4-17.9c0.3-0.5,0.2-1.1-0.3-1.4c-0.5-0.3-1.1-0.2-1.4,0.3l-10.7,16.8   C78.5,177.4,78.6,177.6,78.7,177.7z"/><path d="M75.6,169.9l5.3-8.3c0.3-0.5,0.2-1.1-0.3-1.4c-0.5-0.3-1.1-0.2-1.4,0.3l-4.4,7C75,168.3,75.3,169.1,75.6,169.9z"/><path d="M73.8,164.8l2-3.2c0.3-0.5,0.2-1.1-0.3-1.4c-0.5-0.3-1.1-0.2-1.4,0.3l-1.1,1.8C73.3,163.1,73.5,163.9,73.8,164.8z"/><path d="M77.4,174.7l8.4-13.2c0.3-0.5,0.2-1.1-0.3-1.4c-0.5-0.3-1.1-0.2-1.4,0.3l-7.6,12C76.8,173.2,77.1,174,77.4,174.7z"/><path d="M135.5,183.8c0.2,0.1,0.4,0.2,0.5,0.2c0.3,0,0.7-0.2,0.8-0.5l14-22c0.3-0.5,0.2-1.1-0.3-1.4c-0.5-0.3-1.1-0.2-1.4,0.3   l-14,22C134.9,182.9,135,183.5,135.5,183.8z"/><path d="M140.5,183.8c0.2,0.1,0.4,0.2,0.5,0.2c0.3,0,0.7-0.2,0.8-0.5l14-22c0.3-0.5,0.2-1.1-0.3-1.4c-0.5-0.3-1.1-0.2-1.4,0.3   l-14,22C139.9,182.9,140,183.5,140.5,183.8z"/><path d="M145.5,183.8c0.2,0.1,0.4,0.2,0.5,0.2c0.3,0,0.7-0.2,0.8-0.5l14-22c0.3-0.5,0.2-1.1-0.3-1.4c-0.5-0.3-1.1-0.2-1.4,0.3   l-14,22C144.9,182.9,145,183.5,145.5,183.8z"/><path d="M150.5,183.8c0.2,0.1,0.4,0.2,0.5,0.2c0.3,0,0.7-0.2,0.8-0.5l14-22c0.3-0.5,0.2-1.1-0.3-1.4c-0.5-0.3-1.1-0.2-1.4,0.3   l-14,22C149.9,182.9,150,183.5,150.5,183.8z"/><path d="M155.5,183.8c0.2,0.1,0.4,0.2,0.5,0.2c0.3,0,0.7-0.2,0.8-0.5l14-22c0.3-0.5,0.2-1.1-0.3-1.4c-0.5-0.3-1.1-0.2-1.4,0.3   l-14,22C154.9,182.9,155,183.5,155.5,183.8z"/><path d="M160.5,183.8c0.2,0.1,0.4,0.2,0.5,0.2c0.3,0,0.7-0.2,0.8-0.5l14-22c0.3-0.5,0.2-1.1-0.3-1.4c-0.5-0.3-1.1-0.2-1.4,0.3   l-14,22C159.9,182.9,160,183.5,160.5,183.8z"/><path d="M165.5,183.8c0.2,0.1,0.4,0.2,0.5,0.2c0.3,0,0.7-0.2,0.8-0.5l14-22c0.3-0.5,0.2-1.1-0.3-1.4c-0.5-0.3-1.1-0.2-1.4,0.3   l-14,22C164.9,182.9,165,183.5,165.5,183.8z"/><path d="M170.5,183.8c0.2,0.1,0.4,0.2,0.5,0.2c0.3,0,0.7-0.2,0.8-0.5l14-22c0.3-0.5,0.2-1.1-0.3-1.4c-0.5-0.3-1.1-0.2-1.4,0.3   l-14,22C169.9,182.9,170,183.5,170.5,183.8z"/><path d="M194.7,120H61.3c-2.4,0-4.2,2.1-4,4.4c0.9,7.8,2.3,17.4,4.7,27.6h0c0.1,0.6,0.3,1.1,0.4,1.7c0,0.1,0,0.2,0.1,0.3h0   c2.2,8.9,5,18.2,8.9,26.9c1.7,4,3.6,7.7,5.6,11.1c12.4,21.5,29.2,32,51.1,32s38.7-10.5,51.1-32c2-3.4,3.8-7.1,5.6-11.1   c3.8-8.8,6.7-18,8.9-26.9h0c0-0.1,0-0.2,0.1-0.3c0.1-0.6,0.3-1.1,0.4-1.7h0c2.4-10.2,3.8-19.8,4.7-27.6   C198.9,122.1,197,120,194.7,120z M182.8,180.1c-1.5,3.5-3.2,6.8-4.9,9.9H78.1c-1.7-3.1-3.4-6.4-4.9-9.9c-3.4-7.7-6.3-16.5-8.7-26.1   h126.9C189.1,163.6,186.2,172.4,182.8,180.1z M196.7,124.2c-1.1,9.6-2.7,19-4.8,27.8H64.1c-2.1-8.8-3.6-18.1-4.7-27.8   c-0.1-0.6,0.1-1.1,0.5-1.5c0.4-0.4,0.9-0.7,1.5-0.7h133.5c0.6,0,1,0.2,1.4,0.7C196.6,123.1,196.8,123.6,196.7,124.2z"/><path d="M80,133c2.2,0,4-1.8,4-4s-1.8-4-4-4c-2.2,0-4,1.8-4,4S77.8,133,80,133z M80,127c1.1,0,2,0.9,2,2s-0.9,2-2,2   c-1.1,0-2-0.9-2-2S78.9,127,80,127z"/><circle cx="176" cy="136" r="2"/><circle cx="144" cy="136" r="2"/><circle cx="160" cy="136" r="2"/><circle cx="112" cy="136" r="2"/><circle cx="128" cy="136" r="2"/><circle cx="80" cy="136" r="2"/><circle cx="96" cy="136" r="2"/><path d="M96,133c2.2,0,4-1.8,4-4s-1.8-4-4-4c-2.2,0-4,1.8-4,4S93.8,133,96,133z M96,127c1.1,0,2,0.9,2,2s-0.9,2-2,2   c-1.1,0-2-0.9-2-2S94.9,127,96,127z"/><path d="M112,133c2.2,0,4-1.8,4-4s-1.8-4-4-4c-2.2,0-4,1.8-4,4S109.8,133,112,133z M112,127c1.1,0,2,0.9,2,2s-0.9,2-2,2   c-1.1,0-2-0.9-2-2S110.9,127,112,127z"/><path d="M128,133c2.2,0,4-1.8,4-4s-1.8-4-4-4c-2.2,0-4,1.8-4,4S125.8,133,128,133z M128,127c1.1,0,2,0.9,2,2s-0.9,2-2,2   c-1.1,0-2-0.9-2-2S126.9,127,128,127z"/><path d="M144,133c2.2,0,4-1.8,4-4s-1.8-4-4-4c-2.2,0-4,1.8-4,4S141.8,133,144,133z M144,127c1.1,0,2,0.9,2,2s-0.9,2-2,2   c-1.1,0-2-0.9-2-2S142.9,127,144,127z"/><path d="M160,133c2.2,0,4-1.8,4-4s-1.8-4-4-4c-2.2,0-4,1.8-4,4S157.8,133,160,133z M160,127c1.1,0,2,0.9,2,2s-0.9,2-2,2   c-1.1,0-2-0.9-2-2S158.9,127,160,127z"/><path d="M176,133c2.2,0,4-1.8,4-4s-1.8-4-4-4c-2.2,0-4,1.8-4,4S173.8,133,176,133z M176,127c1.1,0,2,0.9,2,2s-0.9,2-2,2   c-1.1,0-2-0.9-2-2S174.9,127,176,127z"/><path d="M72,131c-2.2,0-4,1.8-4,4s1.8,4,4,4c2.2,0,4-1.8,4-4S74.2,131,72,131z M72,137c-1.1,0-2-0.9-2-2s0.9-2,2-2c1.1,0,2,0.9,2,2   S73.1,137,72,137z"/><path d="M88,131c-2.2,0-4,1.8-4,4s1.8,4,4,4c2.2,0,4-1.8,4-4S90.2,131,88,131z M88,137c-1.1,0-2-0.9-2-2s0.9-2,2-2c1.1,0,2,0.9,2,2   S89.1,137,88,137z"/><path d="M104,131c-2.2,0-4,1.8-4,4s1.8,4,4,4c2.2,0,4-1.8,4-4S106.2,131,104,131z M104,137c-1.1,0-2-0.9-2-2s0.9-2,2-2   c1.1,0,2,0.9,2,2S105.1,137,104,137z"/><path d="M120,131c-2.2,0-4,1.8-4,4s1.8,4,4,4c2.2,0,4-1.8,4-4S122.2,131,120,131z M120,137c-1.1,0-2-0.9-2-2s0.9-2,2-2   c1.1,0,2,0.9,2,2S121.1,137,120,137z"/><path d="M136,131c-2.2,0-4,1.8-4,4s1.8,4,4,4c2.2,0,4-1.8,4-4S138.2,131,136,131z M136,137c-1.1,0-2-0.9-2-2s0.9-2,2-2   c1.1,0,2,0.9,2,2S137.1,137,136,137z"/><path d="M152,131c-2.2,0-4,1.8-4,4s1.8,4,4,4c2.2,0,4-1.8,4-4S154.2,131,152,131z M152,137c-1.1,0-2-0.9-2-2s0.9-2,2-2   c1.1,0,2,0.9,2,2S153.1,137,152,137z"/><path d="M168,131c-2.2,0-4,1.8-4,4s1.8,4,4,4c2.2,0,4-1.8,4-4S170.2,131,168,131z M168,137c-1.1,0-2-0.9-2-2s0.9-2,2-2   c1.1,0,2,0.9,2,2S169.1,137,168,137z"/><path d="M184,131c-2.2,0-4,1.8-4,4s1.8,4,4,4c2.2,0,4-1.8,4-4S186.2,131,184,131z M184,137c-1.1,0-2-0.9-2-2s0.9-2,2-2   c1.1,0,2,0.9,2,2S185.1,137,184,137z"/><path d="M80,140c-2.2,0-4,1.8-4,4s1.8,4,4,4c2.2,0,4-1.8,4-4S82.2,140,80,140z M80,146c-1.1,0-2-0.9-2-2s0.9-2,2-2c1.1,0,2,0.9,2,2   S81.1,146,80,146z"/><circle cx="72" cy="142" r="2"/><circle cx="88" cy="142" r="2"/><circle cx="104" cy="142" r="2"/><circle cx="120" cy="142" r="2"/><circle cx="136" cy="142" r="2"/><circle cx="152" cy="142" r="2"/><circle cx="168" cy="142" r="2"/><circle cx="184" cy="142" r="2"/><circle cx="72" cy="128" r="2"/><circle cx="88" cy="128" r="2"/><circle cx="104" cy="128" r="2"/><circle cx="120" cy="128" r="2"/><circle cx="136" cy="128" r="2"/><circle cx="152" cy="128" r="2"/><circle cx="168" cy="128" r="2"/><circle cx="184" cy="128" r="2"/><path d="M96,140c-2.2,0-4,1.8-4,4s1.8,4,4,4c2.2,0,4-1.8,4-4S98.2,140,96,140z M96,146c-1.1,0-2-0.9-2-2s0.9-2,2-2c1.1,0,2,0.9,2,2   S97.1,146,96,146z"/><path d="M112,140c-2.2,0-4,1.8-4,4s1.8,4,4,4c2.2,0,4-1.8,4-4S114.2,140,112,140z M112,146c-1.1,0-2-0.9-2-2s0.9-2,2-2   c1.1,0,2,0.9,2,2S113.1,146,112,146z"/><path d="M128,140c-2.2,0-4,1.8-4,4s1.8,4,4,4c2.2,0,4-1.8,4-4S130.2,140,128,140z M128,146c-1.1,0-2-0.9-2-2s0.9-2,2-2   c1.1,0,2,0.9,2,2S129.1,146,128,146z"/><path d="M144,140c-2.2,0-4,1.8-4,4s1.8,4,4,4c2.2,0,4-1.8,4-4S146.2,140,144,140z M144,146c-1.1,0-2-0.9-2-2s0.9-2,2-2   c1.1,0,2,0.9,2,2S145.1,146,144,146z"/><path d="M160,140c-2.2,0-4,1.8-4,4s1.8,4,4,4c2.2,0,4-1.8,4-4S162.2,140,160,140z M160,146c-1.1,0-2-0.9-2-2s0.9-2,2-2   c1.1,0,2,0.9,2,2S161.1,146,160,146z"/><path d="M176,140c-2.2,0-4,1.8-4,4s1.8,4,4,4c2.2,0,4-1.8,4-4S178.2,140,176,140z M176,146c-1.1,0-2-0.9-2-2s0.9-2,2-2   c1.1,0,2,0.9,2,2S177.1,146,176,146z"/><path d="M116,86c0,0.2,0,0.5,0.1,0.7c0.1,0.5,0.1,1,0.2,1.5c0.2,0.9,0.4,1.7,0.6,2.5c0.5,1.5,1,2.7,1.4,3.5   c0.2,0.4,0.4,0.7,0.5,0.9c0.1,0.2,0.2,0.3,0.2,0.3c0.2,0.3,0.6,0.6,1,0.5c0.5-0.1,0.9-0.6,0.8-1.2l0-0.1c0,0-0.1-0.5-0.2-1.3   c-0.1-0.8-0.3-2-0.5-3.4c-0.1-0.7-0.2-1.4-0.2-2.2c0-0.4,0-0.8,0-1.1c0-0.2,0-0.4,0-0.7l0-0.2c0,0,0-0.1,0-0.1l0-0.2   c0.1-0.6,0.3-1.1,0.7-1.7c0.4-0.6,1-1.2,1.7-2.2c0.3-0.5,0.7-1,1-1.7c0.1-0.3,0.2-0.6,0.3-1c0.1-0.3,0.2-0.7,0.2-1   c0-0.2,0.1-0.4,0.1-0.5l0-0.4l0-0.4l0-0.1l0,0l0,0l0-0.1l0-0.2c0-0.5-0.1-1-0.2-1.5c-0.3-2-0.7-3.7-1.1-5.1   c-0.4-1.5-0.9-2.6-1.2-3.5c-0.3-0.8-0.5-1.3-0.5-1.3l0,0c-0.2-0.4-0.6-0.6-1-0.6c-0.6,0.1-0.9,0.6-0.9,1.1c0,0,0.1,0.5,0.2,1.3   c0.1,0.8,0.2,2.1,0.4,3.5c0.2,1.4,0.3,3.1,0.4,4.8c0,0.4,0,0.9,0,1.3c0,0.1-0.1,1-0.1,1.1c-0.1,0.2-0.2,0.5-0.3,0.8   c-0.1,0.3-0.3,0.6-0.5,0.9c-0.5,0.6-1.2,1.4-1.9,2.4c-0.7,1.1-1.1,2.5-1.1,3.7l0,0.5c0,0.1,0,0.1,0,0.3L116,86z"/><path d="M124,85.8l0,0.2c0,0.2,0,0.5,0.1,0.7c0.1,0.5,0.1,1,0.2,1.5c0.2,0.9,0.4,1.7,0.6,2.5c0.5,1.5,1,2.7,1.4,3.5   c0.2,0.4,0.4,0.7,0.5,0.9c0.1,0.2,0.2,0.3,0.2,0.3c0.2,0.3,0.6,0.6,1,0.5c0.5-0.1,0.9-0.6,0.8-1.2l0-0.1c0,0-0.1-0.5-0.2-1.3   c-0.1-0.8-0.3-2-0.5-3.4c-0.1-0.7-0.2-1.4-0.2-2.2c0-0.4,0-0.8,0-1.1c0-0.2,0-0.4,0-0.7l0-0.2c0,0,0-0.1,0-0.1l0-0.2   c0.1-0.6,0.3-1.1,0.7-1.7c0.4-0.6,1-1.2,1.7-2.2c0.3-0.5,0.7-1,1-1.7c0.1-0.3,0.2-0.6,0.3-1c0.1-0.3,0.2-0.7,0.2-1   c0-0.2,0.1-0.4,0.1-0.5l0-0.4l0-0.4l0-0.1l0,0l0,0l0-0.1l0-0.2c0-0.5-0.1-1-0.2-1.5c-0.3-2-0.7-3.7-1.1-5.1   c-0.4-1.5-0.9-2.6-1.2-3.5c-0.3-0.8-0.5-1.3-0.5-1.3l0,0c-0.2-0.4-0.6-0.6-1-0.6c-0.6,0.1-0.9,0.6-0.9,1.1c0,0,0.1,0.5,0.2,1.3   c0.1,0.8,0.2,2.1,0.4,3.5c0.2,1.4,0.3,3.1,0.4,4.8c0,0.4,0,0.9,0,1.3c0,0.1-0.1,1-0.1,1.1c-0.1,0.2-0.2,0.5-0.3,0.8   c-0.1,0.3-0.3,0.6-0.5,0.9c-0.5,0.6-1.2,1.4-1.9,2.4c-0.7,1.1-1.1,2.5-1.1,3.7l0,0.5C124,85.7,124,85.7,124,85.8z"/><path d="M132,85.8l0,0.2c0,0.2,0,0.5,0.1,0.7c0.1,0.5,0.1,1,0.2,1.5c0.2,0.9,0.4,1.7,0.6,2.5c0.5,1.5,1,2.7,1.4,3.5   c0.2,0.4,0.4,0.7,0.5,0.9c0.1,0.2,0.2,0.3,0.2,0.3c0.2,0.3,0.6,0.6,1,0.5c0.5-0.1,0.9-0.6,0.8-1.2l0-0.1c0,0-0.1-0.5-0.2-1.3   c-0.1-0.8-0.3-2-0.5-3.4c-0.1-0.7-0.2-1.4-0.2-2.2c0-0.4,0-0.8,0-1.1c0-0.2,0-0.4,0-0.7l0-0.2c0,0,0-0.1,0-0.1l0-0.2   c0.1-0.6,0.3-1.1,0.7-1.7c0.4-0.6,1-1.2,1.7-2.2c0.3-0.5,0.7-1,1-1.7c0.1-0.3,0.2-0.6,0.3-1c0.1-0.3,0.2-0.7,0.2-1   c0-0.2,0.1-0.4,0.1-0.5l0-0.4l0-0.4l0-0.1l0,0l0,0l0-0.1l0-0.2c0-0.5-0.1-1-0.2-1.5c-0.3-2-0.7-3.7-1.1-5.1   c-0.4-1.5-0.9-2.6-1.2-3.5c-0.3-0.8-0.5-1.3-0.5-1.3l0,0c-0.2-0.4-0.6-0.6-1-0.6c-0.6,0.1-0.9,0.6-0.9,1.1c0,0,0.1,0.5,0.2,1.3   c0.1,0.8,0.2,2.1,0.4,3.5c0.2,1.4,0.3,3.1,0.4,4.8c0,0.4,0,0.9,0,1.3c0,0.1-0.1,1-0.1,1.1c-0.1,0.2-0.2,0.5-0.3,0.8   c-0.1,0.3-0.3,0.6-0.5,0.9c-0.5,0.6-1.2,1.4-1.9,2.4c-0.7,1.1-1.1,2.5-1.1,3.7l0,0.5C132,85.7,132,85.7,132,85.8z"/></g></svg>