<?xml version="1.0" ?><svg id="Ebene_1" style="enable-background:new 0 0 256 256;" version="1.1" viewBox="0 0 256 256" xml:space="preserve" xmlns="http://www.w3.org/2000/svg" xmlns:xlink="http://www.w3.org/1999/xlink"><style type="text/css">
	.st0{fill:none;stroke:#FF0000;stroke-miterlimit:10;}
	.st1{stroke:url(#SVGID_1_);stroke-miterlimit:10;}
</style><g><path d="M208,129.1c0-0.4,0-0.5,0-0.9c0-0.5,0-1.2,0-1.2h0c-0.1-5-0.5-8.6-1.2-12.7c0,0,0-0.1,0-0.1c0,0,0-0.1,0-0.1c0,0,0,0,0-0.1   c-0.4-2.2-0.9-4.4-1.4-6.6c0,0,0,0,0-0.1c0,0,0,0,0,0c0,0,0,0,0-0.1c-1.1-4.1-2.5-8-4.2-11.8c0,0,0,0,0,0c0,0,0,0,0,0c0,0,0,0,0,0   c-1.6-3.6-3.5-7.1-5.6-10.4c0,0,0,0,0,0c0,0,0,0,0,0c0,0,0,0,0,0c-2.1-3.2-4.4-6.3-6.9-9.2c0,0,0,0,0,0c0,0,0,0,0,0c0,0,0,0,0,0   c-2.5-2.9-5.2-5.6-8-8c0,0,0,0,0,0c0,0,0,0,0,0c0,0,0,0,0,0c-2.9-2.5-6-4.8-9.2-6.9c0,0,0,0,0,0c0,0,0,0,0,0c0,0,0,0,0,0   c-3.3-2.1-6.8-4-10.4-5.6c0,0,0,0,0,0c0,0,0,0,0,0c0,0,0,0,0,0c-3.8-1.7-7.7-3.1-11.8-4.2c0,0,0,0-0.1,0c0,0,0,0,0,0c0,0,0,0-0.1,0   c-2.1-0.6-4.3-1-6.5-1.4c0,0,0,0,0,0c0,0,0,0,0,0c0,0,0,0,0,0c-4.5-0.8-9.1-1.2-13.8-1.2c0,0-0.1,0-0.1,0h0l0,0c0,0,0,0,0,0   c-0.4,0-0.7,0-1.1,0c0,0,0,0,0,0c-6.4,0-12.6,0.9-18.5,2.4c0,0,0,0,0,0c0,0,0,0,0,0c0,0,0,0,0,0C80,57.6,57.6,79.9,50.4,108.3   c0,0,0,0,0,0c0,0,0,0,0,0c0,0,0,0,0,0c-1.5,5.9-2.4,12.1-2.4,18.5v0c0,0.3,0,0.6,0,0.9c0,0,0,0.1,0,0.1c0,4.7,0.4,9.4,1.2,13.9   c0,0,0,0,0,0c0,0,0,0,0,0c0,0,0,0,0,0c0.4,2.2,0.9,4.4,1.4,6.5c0,0,0,0,0,0.1c0,0,0,0,0,0c0,0,0,0,0,0.1c1.1,4.1,2.5,8,4.2,11.8   c0,0,0,0,0,0c0,0,0,0,0,0c0,0,0,0,0,0c1.6,3.6,3.5,7.1,5.6,10.4c0,0,0,0,0,0c0,0,0,0,0,0c0,0,0,0,0,0c2.1,3.2,4.4,6.3,6.9,9.2   c0,0,0,0,0,0c0,0,0,0,0,0c0,0,0,0,0,0c2.5,2.9,5.2,5.6,8,8c0,0,0,0,0,0c0,0,0,0,0,0c0,0,0,0,0,0c2.9,2.5,6,4.8,9.2,6.9c0,0,0,0,0,0   c0,0,0,0,0,0c0,0,0,0,0,0c3.3,2.1,6.8,4,10.4,5.6c0,0,0,0,0,0c0,0,0,0,0,0c0,0,0,0,0,0c3.8,1.7,7.8,3.1,11.8,4.2c0,0,0,0,0.1,0   c0,0,0,0,0,0c0,0,0,0,0.1,0c2.1,0.6,4.3,1,6.5,1.4c0,0,0,0,0,0c0,0,0,0,0,0c0,0,0,0,0,0c4.5,0.8,9.2,1.2,13.9,1.2l0,0l0,0   c0.4,0,0.7,0,1.1,0c0,0,0,0,0,0c6.4,0,12.6-0.9,18.5-2.4c0,0,0,0,0,0c0,0,0,0,0,0c0,0,0,0,0,0c28.4-7.2,50.7-29.5,57.9-57.9   c0,0,0,0,0,0c0,0,0,0,0,0c0,0,0,0,0,0C207.1,141.6,208,135.4,208,129.1L208,129.1z M195.3,163.3l-31.9,31.9c-3,1.6-6.1,3-9.3,4.2   l45.4-45.4C198.2,157.2,196.8,160.3,195.3,163.3z M200.8,149.8l-51,51c-2.3,0.7-4.6,1.3-6.9,1.7l59.6-59.6   C202.1,145.2,201.5,147.5,200.8,149.8z M203.1,139.4l-63.7,63.7c-1.9,0.3-3.9,0.5-5.8,0.6l70.1-70.1   C203.6,135.6,203.4,137.5,203.1,139.4z M130.7,203.9c-0.9,0-1.8,0.1-2.7,0.1c-0.8,0-1.7,0-2.5-0.1l78.5-78.5c0,0.8,0.1,1.7,0.1,2.5   c0,0.9,0,1.8-0.1,2.7L130.7,203.9z M118.1,203.3l85.2-85.2c0.2,1.6,0.4,3.1,0.5,4.7l-81,81C121.2,203.7,119.6,203.5,118.1,203.3z    M111.3,202.1l90.8-90.8c0.3,1.4,0.6,2.9,0.8,4.3L115.6,203C114.2,202.7,112.7,202.4,111.3,202.1z M105,200.4l95.4-95.4   c0.4,1.3,0.8,2.7,1.2,4L109,201.6C107.6,201.2,106.3,200.8,105,200.4z M99.1,198.3l99.2-99.2c0.5,1.2,1,2.5,1.4,3.7l-96.8,96.8   C101.6,199.3,100.4,198.8,99.1,198.3z M93.7,195.8L195.8,93.7c0.6,1.2,1.1,2.3,1.7,3.5L97.2,197.4C96,196.9,94.8,196.3,93.7,195.8z    M88.5,192.9L192.9,88.5c0.7,1.1,1.3,2.2,1.9,3.3l-103,103C90.7,194.2,89.6,193.6,88.5,192.9z M83.7,189.7l106-106   c0.7,1,1.4,2,2.1,3.1l-105,105C85.7,191.1,84.7,190.4,83.7,189.7z M79.2,186.2l107-107c0.8,0.9,1.6,1.9,2.3,2.9L82.1,188.5   C81.1,187.8,80.1,187,79.2,186.2z M75,182.4L182.4,75c0.9,0.9,1.7,1.8,2.5,2.7L77.7,184.9C76.8,184.1,75.9,183.3,75,182.4z    M71.1,178.3L178.3,71.1c0.9,0.8,1.8,1.6,2.7,2.5L73.6,181C72.7,180.1,71.9,179.2,71.1,178.3z M67.5,173.9L173.9,67.5   c1,0.7,1.9,1.5,2.9,2.3l-107,107C69,175.9,68.2,174.9,67.5,173.9z M64.2,169.2l105-105c1,0.7,2.1,1.4,3.1,2.1l-106,106   C65.6,171.3,64.9,170.3,64.2,169.2z M61.2,164.2l103-103c1.1,0.6,2.2,1.2,3.3,1.9L63.1,167.5C62.4,166.4,61.8,165.3,61.2,164.2z    M58.6,158.8L158.8,58.6c1.2,0.5,2.4,1.1,3.5,1.7L60.2,162.3C59.7,161.2,59.1,160,58.6,158.8z M56.3,153.1l96.8-96.8   c1.3,0.4,2.5,0.9,3.7,1.4l-99.2,99.2C57.2,155.6,56.7,154.4,56.3,153.1z M54.4,147L147,54.4c1.4,0.3,2.7,0.7,4,1.2L55.6,151   C55.2,149.7,54.8,148.4,54.4,147z M52,128c0-0.9,0-1.8,0.1-2.7l73.3-73.3c0.9,0,1.8-0.1,2.7-0.1c0.8,0,1.7,0,2.5,0.1l-78.5,78.5   C52,129.7,52,128.8,52,128z M60.7,92.7l31.9-31.9c3-1.6,6.1-3,9.3-4.2L56.6,102C57.8,98.8,59.2,95.7,60.7,92.7z M55.2,106.2l51-51   c2.3-0.7,4.6-1.3,6.9-1.7l-59.6,59.6C53.9,110.8,54.5,108.5,55.2,106.2z M52.9,116.6l63.7-63.7c1.9-0.3,3.8-0.5,5.8-0.6l-70.1,70.1   C52.4,120.4,52.6,118.5,52.9,116.6z M52.2,133.2l81-81c1.6,0.1,3.1,0.3,4.7,0.5l-85.2,85.2C52.5,136.4,52.3,134.8,52.2,133.2z    M53,140.4L140.4,53c1.5,0.2,2.9,0.5,4.3,0.8l-90.8,90.8C53.6,143.3,53.3,141.8,53,140.4z M85.7,64.9L64.9,85.7   C70.4,77.5,77.5,70.4,85.7,64.9z M170.3,191.1l20.8-20.8C185.6,178.5,178.5,185.6,170.3,191.1z"/><path d="M128,16C66.1,16,16,66.1,16,128s50.1,112,112,112s112-50.1,112-112S189.9,16,128,16z M128,232c-57.3,0-104-46.7-104-104   S70.7,24,128,24c57.3,0,104,46.7,104,104S185.3,232,128,232z"/></g></svg>