<?xml version="1.0" ?><svg id="Ebene_1" style="enable-background:new 0 0 256 256;" version="1.1" viewBox="0 0 256 256" xml:space="preserve" xmlns="http://www.w3.org/2000/svg" xmlns:xlink="http://www.w3.org/1999/xlink"><style type="text/css">
	.st0{fill:none;stroke:#FF0000;stroke-miterlimit:10;}
</style><g><path d="M200,152h-6.6c1-6,1.6-11.2,2-15.2c0.5-4.7-3.2-8.8-8-8.8H68.6c-4.7,0-8.4,4.1-8,8.8C63.2,163.1,75.3,240,128,240   c28.8,0,45.4-22.9,55.1-48h8.9c0,0,10,0,12-6l8-18C212,159.6,207.8,152,200,152z M155.1,221.6c-7.9,7-16.8,10.4-27.1,10.4   c-10.3,0-19.2-3.4-27.1-10.4c-6.9-6.2-13-15.1-18.1-26.5c-9.4-21.4-13-46.2-14.2-59h118.8l0,0c-1.3,12.9-4.8,37.6-14.2,59.1   C168.1,206.5,162,215.4,155.1,221.6z M196.7,182.8c0,0.1-0.1,0.2-0.1,0.2c-0.8,0.5-3,1-4.6,1h-3.5l6.6-24h4.9   c2.5,0,3.6,3.5,3.9,6.5L196.7,182.8z"/><path d="M116,110c0,0.2,0,0.5,0.1,0.7c0.1,0.5,0.1,1,0.2,1.5c0.2,0.9,0.4,1.7,0.6,2.5c0.5,1.5,1,2.7,1.4,3.5   c0.2,0.4,0.4,0.7,0.5,0.9c0.1,0.2,0.2,0.3,0.2,0.3c0.2,0.3,0.6,0.6,1,0.5c0.5-0.1,0.9-0.6,0.8-1.2l0-0.1c0,0-0.1-0.5-0.2-1.3   c-0.1-0.8-0.3-2-0.5-3.4c-0.1-0.7-0.2-1.4-0.2-2.2c0-0.4,0-0.8,0-1.1c0-0.2,0-0.4,0-0.7l0-0.2c0,0,0-0.1,0-0.1l0-0.2   c0.1-0.6,0.3-1.1,0.7-1.7c0.4-0.6,1-1.2,1.7-2.2c0.3-0.5,0.7-1,1-1.7c0.1-0.3,0.2-0.6,0.3-1c0.1-0.3,0.2-0.7,0.2-1   c0-0.2,0.1-0.4,0.1-0.5l0-0.4l0-0.4l0-0.1l0,0l0,0l0-0.1l0-0.2c0-0.5-0.1-1-0.2-1.5c-0.3-2-0.7-3.7-1.1-5.1   c-0.4-1.5-0.9-2.6-1.2-3.5c-0.3-0.8-0.5-1.3-0.5-1.3l0,0c-0.2-0.4-0.6-0.6-1-0.6c-0.6,0.1-0.9,0.6-0.9,1.1c0,0,0.1,0.5,0.2,1.3   c0.1,0.8,0.2,2.1,0.4,3.5c0.2,1.4,0.3,3.1,0.4,4.8c0,0.4,0,0.9,0,1.3c0,0.1-0.1,1-0.1,1.1c-0.1,0.2-0.2,0.5-0.3,0.8   c-0.1,0.3-0.3,0.6-0.5,0.9c-0.5,0.6-1.2,1.4-1.9,2.4c-0.7,1.1-1.1,2.5-1.1,3.7l0,0.5c0,0.1,0,0.1,0,0.3L116,110z"/><path d="M124,109.8l0,0.2c0,0.2,0,0.5,0.1,0.7c0.1,0.5,0.1,1,0.2,1.5c0.2,0.9,0.4,1.7,0.6,2.5c0.5,1.5,1,2.7,1.4,3.5   c0.2,0.4,0.4,0.7,0.5,0.9c0.1,0.2,0.2,0.3,0.2,0.3c0.2,0.3,0.6,0.6,1,0.5c0.5-0.1,0.9-0.6,0.8-1.2l0-0.1c0,0-0.1-0.5-0.2-1.3   c-0.1-0.8-0.3-2-0.5-3.4c-0.1-0.7-0.2-1.4-0.2-2.2c0-0.4,0-0.8,0-1.1c0-0.2,0-0.4,0-0.7l0-0.2c0,0,0-0.1,0-0.1l0-0.2   c0.1-0.6,0.3-1.1,0.7-1.7c0.4-0.6,1-1.2,1.7-2.2c0.3-0.5,0.7-1,1-1.7c0.1-0.3,0.2-0.6,0.3-1c0.1-0.3,0.2-0.7,0.2-1   c0-0.2,0.1-0.4,0.1-0.5l0-0.4l0-0.4l0-0.1l0,0l0,0l0-0.1l0-0.2c0-0.5-0.1-1-0.2-1.5c-0.3-2-0.7-3.7-1.1-5.1   c-0.4-1.5-0.9-2.6-1.2-3.5c-0.3-0.8-0.5-1.3-0.5-1.3l0,0c-0.2-0.4-0.6-0.6-1-0.6c-0.6,0.1-0.9,0.6-0.9,1.1c0,0,0.1,0.5,0.2,1.3   c0.1,0.8,0.2,2.1,0.4,3.5c0.2,1.4,0.3,3.1,0.4,4.8c0,0.4,0,0.9,0,1.3c0,0.1-0.1,1-0.1,1.1c-0.1,0.2-0.2,0.5-0.3,0.8   c-0.1,0.3-0.3,0.6-0.5,0.9c-0.5,0.6-1.2,1.4-1.9,2.4c-0.7,1.1-1.1,2.5-1.1,3.7l0,0.5C124,109.7,124,109.7,124,109.8z"/><path d="M132,109.8l0,0.2c0,0.2,0,0.5,0.1,0.7c0.1,0.5,0.1,1,0.2,1.5c0.2,0.9,0.4,1.7,0.6,2.5c0.5,1.5,1,2.7,1.4,3.5   c0.2,0.4,0.4,0.7,0.5,0.9c0.1,0.2,0.2,0.3,0.2,0.3c0.2,0.3,0.6,0.6,1,0.5c0.5-0.1,0.9-0.6,0.8-1.2l0-0.1c0,0-0.1-0.5-0.2-1.3   c-0.1-0.8-0.3-2-0.5-3.4c-0.1-0.7-0.2-1.4-0.2-2.2c0-0.4,0-0.8,0-1.1c0-0.2,0-0.4,0-0.7l0-0.2c0,0,0-0.1,0-0.1l0-0.2   c0.1-0.6,0.3-1.1,0.7-1.7c0.4-0.6,1-1.2,1.7-2.2c0.3-0.5,0.7-1,1-1.7c0.1-0.3,0.2-0.6,0.3-1c0.1-0.3,0.2-0.7,0.2-1   c0-0.2,0.1-0.4,0.1-0.5l0-0.4l0-0.4l0-0.1l0,0l0,0l0-0.1l0-0.2c0-0.5-0.1-1-0.2-1.5c-0.3-2-0.7-3.7-1.1-5.1   c-0.4-1.5-0.9-2.6-1.2-3.5c-0.3-0.8-0.5-1.3-0.5-1.3l0,0c-0.2-0.4-0.6-0.6-1-0.6c-0.6,0.1-0.9,0.6-0.9,1.1c0,0,0.1,0.5,0.2,1.3   c0.1,0.8,0.2,2.1,0.4,3.5c0.2,1.4,0.3,3.1,0.4,4.8c0,0.4,0,0.9,0,1.3c0,0.1-0.1,1-0.1,1.1c-0.1,0.2-0.2,0.5-0.3,0.8   c-0.1,0.3-0.3,0.6-0.5,0.9c-0.5,0.6-1.2,1.4-1.9,2.4c-0.7,1.1-1.1,2.5-1.1,3.7l0,0.5C132,109.7,132,109.7,132,109.8z"/><path d="M173.8,144H82.2c-2.5,0-4.3,2.2-4,4.6c1.3,8.1,3.2,17.7,6.1,27.4h0c1.2,4,2.6,8,4.1,11.9c9.7,24.3,22.6,36.1,39.5,36.1   s29.8-11.8,39.5-36.1c1.6-3.9,2.9-7.9,4.1-11.9h0c2.9-9.7,4.8-19.3,6.1-27.4C178.1,146.2,176.2,144,173.8,144z M175.7,148.3   c-1.4,9.2-3.3,17.8-5.6,25.7H85.9c-2.3-7.9-4.2-16.5-5.6-25.7c-0.1-0.6,0.1-1.1,0.5-1.6c0.4-0.5,0.9-0.7,1.5-0.7h91.5   c0.6,0,1.1,0.2,1.5,0.7C175.7,147.1,175.8,147.7,175.7,148.3z"/><path d="M128.5,152.1c-0.5-0.3-1.1-0.1-1.4,0.4l-8,14c-0.3,0.5-0.1,1.1,0.4,1.4c0.2,0.1,0.3,0.1,0.5,0.1c0.3,0,0.7-0.2,0.9-0.5   l8-14C129.1,153,129,152.4,128.5,152.1z"/><path d="M123.5,152.1c-0.5-0.3-1.1-0.1-1.4,0.4l-8,14c-0.3,0.5-0.1,1.1,0.4,1.4c0.2,0.1,0.3,0.1,0.5,0.1c0.3,0,0.7-0.2,0.9-0.5   l8-14C124.1,153,124,152.4,123.5,152.1z"/><path d="M118.5,152.1c-0.5-0.3-1.1-0.1-1.4,0.4l-8,14c-0.3,0.5-0.1,1.1,0.4,1.4c0.2,0.1,0.3,0.1,0.5,0.1c0.3,0,0.7-0.2,0.9-0.5   l8-14C119.1,153,119,152.4,118.5,152.1z"/><path d="M113.5,152.1c-0.5-0.3-1.1-0.1-1.4,0.4l-8,14c-0.3,0.5-0.1,1.1,0.4,1.4c0.2,0.1,0.3,0.1,0.5,0.1c0.3,0,0.7-0.2,0.9-0.5   l8-14C114.1,153,114,152.4,113.5,152.1z"/><path d="M108.5,152.1c-0.5-0.3-1.1-0.1-1.4,0.4l-8,14c-0.3,0.5-0.1,1.1,0.4,1.4c0.2,0.1,0.3,0.1,0.5,0.1c0.3,0,0.7-0.2,0.9-0.5   l8-14C109.1,153,109,152.4,108.5,152.1z"/><path d="M103.5,152.1c-0.5-0.3-1.1-0.1-1.4,0.4l-8,14c-0.3,0.5-0.1,1.1,0.4,1.4c0.2,0.1,0.3,0.1,0.5,0.1c0.3,0,0.7-0.2,0.9-0.5   l8-14C104.1,153,104,152.4,103.5,152.1z"/><path d="M98.5,152.1c-0.5-0.3-1.1-0.1-1.4,0.4l-8,14c-0.3,0.5-0.1,1.1,0.4,1.4c0.2,0.1,0.3,0.1,0.5,0.1c0.3,0,0.7-0.2,0.9-0.5l8-14   C99.1,153,99,152.4,98.5,152.1z"/><path d="M93.5,152.1c-0.5-0.3-1.1-0.1-1.4,0.4l-5,9c-0.3,0.5-0.1,1.1,0.4,1.4c0.2,0.1,0.3,0.1,0.5,0.1c0.4,0,0.7-0.2,0.9-0.5l5-9   C94.1,153,94,152.4,93.5,152.1z"/><path d="M133.5,152.1c-0.5-0.3-1.1-0.1-1.4,0.4l-8,14c-0.3,0.5-0.1,1.1,0.4,1.4c0.2,0.1,0.3,0.1,0.5,0.1c0.3,0,0.7-0.2,0.9-0.5   l8-14C134.1,153,134,152.4,133.5,152.1z"/><path d="M138.5,152.1c-0.5-0.3-1.1-0.1-1.4,0.4l-8,14c-0.3,0.5-0.1,1.1,0.4,1.4c0.2,0.1,0.3,0.1,0.5,0.1c0.3,0,0.7-0.2,0.9-0.5   l8-14C139.1,153,139,152.4,138.5,152.1z"/><path d="M143.5,152.1c-0.5-0.3-1.1-0.1-1.4,0.4l-8,14c-0.3,0.5-0.1,1.1,0.4,1.4c0.2,0.1,0.3,0.1,0.5,0.1c0.3,0,0.7-0.2,0.9-0.5   l8-14C144.1,153,144,152.4,143.5,152.1z"/><path d="M148.5,152.1c-0.5-0.3-1.1-0.1-1.4,0.4l-8,14c-0.3,0.5-0.1,1.1,0.4,1.4c0.2,0.1,0.3,0.1,0.5,0.1c0.3,0,0.7-0.2,0.9-0.5   l8-14C149.1,153,149,152.4,148.5,152.1z"/><path d="M153.5,152.1c-0.5-0.3-1.1-0.1-1.4,0.4l-8,14c-0.3,0.5-0.1,1.1,0.4,1.4c0.2,0.1,0.3,0.1,0.5,0.1c0.3,0,0.7-0.2,0.9-0.5   l8-14C154.1,153,154,152.4,153.5,152.1z"/><path d="M158.5,152.1c-0.5-0.3-1.1-0.1-1.4,0.4l-8,14c-0.3,0.5-0.1,1.1,0.4,1.4c0.2,0.1,0.3,0.1,0.5,0.1c0.3,0,0.7-0.2,0.9-0.5   l8-14C159.1,153,159,152.4,158.5,152.1z"/><path d="M163.5,152.1c-0.5-0.3-1.1-0.1-1.4,0.4l-8,14c-0.3,0.5-0.1,1.1,0.4,1.4c0.2,0.1,0.3,0.1,0.5,0.1c0.3,0,0.7-0.2,0.9-0.5   l8-14C164.1,153,164,152.4,163.5,152.1z"/><path d="M168.5,152.1c-0.5-0.3-1.1-0.1-1.4,0.4l-8,14c-0.3,0.5-0.1,1.1,0.4,1.4c0.2,0.1,0.3,0.1,0.5,0.1c0.3,0,0.7-0.2,0.9-0.5   l8-14C169.1,153,169,152.4,168.5,152.1z"/><path d="M169.5,159.1c-0.5-0.3-1.1-0.1-1.4,0.4l-4,7c-0.3,0.5-0.1,1.1,0.4,1.4c0.2,0.1,0.3,0.1,0.5,0.1c0.3,0,0.7-0.2,0.9-0.5l4-7   C170.1,160,170,159.4,169.5,159.1z"/></g></svg>