<?xml version="1.0" encoding="iso-8859-1"?>
<!-- Generator: Adobe Illustrator 19.0.0, SVG Export Plug-In . SVG Version: 6.00 Build 0)  -->
<svg version="1.1" id="Layer_1" xmlns="http://www.w3.org/2000/svg" xmlns:xlink="http://www.w3.org/1999/xlink" x="0px" y="0px"
	 viewBox="0 0 496.2 496.2" style="enable-background:new 0 0 496.2 496.2;" xml:space="preserve">
<path style="fill:#32BEA6;" d="M496.2,248.1C496.2,111.1,385.1,0,248.1,0S0,111.1,0,248.1s111.1,248.1,248.1,248.1
	S496.2,385.1,496.2,248.1z"/>
<path style="fill:#A7DCBD;" d="M397.2,109c-0.9-3.4-2.6-6.8-5-9.6c-2.3-2.8-5-5-7.5-7l-0.6-0.5c-1.1-0.8-2-1.6-3-2.5
	s-2.1-1.9-3.1-3.1c-1.9-2.1-3.7-4.5-5.4-7.1c-0.8-1.3-1.6-2.6-2.3-3.9c-0.4-0.7-0.7-1.3-1-2c-0.4-0.8-0.7-1.4-0.9-1.9l0,0
	c0-0.1-0.1-0.1-0.1-0.2c-0.8-1.6-2.4-2.6-4.2-2.4c-0.5,0-1,0.2-1.5,0.4c-1,0.5-1.8,1.3-2.2,2.4c-0.1,0.3-0.2,0.7-0.2,1
	c-0.1,0.3-0.1,0.7-0.1,1.1l5.5,67.7c-5.6-3.3-13.8-3.9-21.6-0.8c-11.9,4.6-18.7,15.7-15.2,24.7s16,12.5,27.9,7.9
	c10.1-3.9,16.5-12.5,16.1-20.4l0,0l-5.4-67.2c1.7,2.2,3.5,4.2,5.3,6c1.3,1.3,2.6,2.4,3.9,3.4c1.1,0.9,2.2,1.7,3.3,2.4l0.7,0.5
	c2.4,1.7,4.8,3.5,6.9,5.7c2,2.1,3.4,4.5,4.2,7c0.8,2.5,1.1,5.3,0.9,8.5c-0.2,2.7-0.6,5.7-1.5,8.9c-0.8,2.8-1.7,5.7-3,8.8
	c-0.4,1.1,0.1,2.3,1.1,2.7c0.3,0.1,0.7,0.2,1,0.2c0.7-0.1,1.4-0.5,1.8-1.2c1.5-3.2,2.7-6.2,3.7-9.2c1.2-3.5,1.9-6.8,2.2-9.9
	C398.2,115.7,398,112.2,397.2,109z"/>
<path style="fill:#878787;" d="M332.4,256.7c-11.5-11.2-10.8-26.5-1-36.6s25.1-11.2,36.6,0c14.2,13.9,14.9,30.5,5.1,40.6
	S346.6,270.5,332.4,256.7z"/>
<g>
	<circle style="fill:#707070;" cx="334.5" cy="223.1" r="1.7"/>
	<circle style="fill:#707070;" cx="330.6" cy="227.1" r="1.7"/>
	<circle style="fill:#707070;" cx="334.7" cy="238.9" r="1.7"/>
	<circle style="fill:#707070;" cx="342.5" cy="230.9" r="1.7"/>
	<circle style="fill:#707070;" cx="330.8" cy="242.9" r="1.7"/>
	<circle style="fill:#707070;" cx="338.6" cy="234.9" r="1.7"/>
	<circle style="fill:#707070;" cx="330.8" cy="235.1" r="1.7"/>
	<circle style="fill:#707070;" cx="338.6" cy="227.1" r="1.7"/>
	<circle style="fill:#707070;" cx="334.7" cy="231.1" r="1.7"/>
	<circle style="fill:#707070;" cx="338.4" cy="219.1" r="1.7"/>
	<circle style="fill:#707070;" cx="350.3" cy="222.9" r="1.7"/>
	<circle style="fill:#707070;" cx="346.4" cy="226.9" r="1.7"/>
	<circle style="fill:#707070;" cx="354.2" cy="218.9" r="1.7"/>
	<circle style="fill:#707070;" cx="346.4" cy="219.1" r="1.7"/>
	<circle style="fill:#707070;" cx="342.5" cy="223.1" r="1.7"/>
	<circle style="fill:#707070;" cx="336.7" cy="244.7" r="1.7"/>
	<circle style="fill:#707070;" cx="344.5" cy="236.7" r="1.7"/>
	<circle style="fill:#707070;" cx="332.8" cy="248.7" r="1.7"/>
	<circle style="fill:#707070;" cx="340.6" cy="240.7" r="1.7"/>
	<circle style="fill:#707070;" cx="352.3" cy="228.7" r="1.7"/>
	<circle style="fill:#707070;" cx="360.1" cy="220.7" r="1.7"/>
	<circle style="fill:#707070;" cx="348.4" cy="232.7" r="1.7"/>
	<circle style="fill:#707070;" cx="356.2" cy="224.7" r="1.7"/>
	<circle style="fill:#707070;" cx="339.7" cy="259.3" r="1.7"/>
	<circle style="fill:#707070;" cx="347.5" cy="251.3" r="1.7"/>
	<circle style="fill:#707070;" cx="355.3" cy="243.3" r="1.7"/>
	<circle style="fill:#707070;" cx="343.5" cy="255.3" r="1.7"/>
	<circle style="fill:#707070;" cx="351.3" cy="247.3" r="1.7"/>
	<circle style="fill:#707070;" cx="363" cy="235.3" r="1.7"/>
	<circle style="fill:#707070;" cx="370.8" cy="227.3" r="1.7"/>
	<circle style="fill:#707070;" cx="359.1" cy="239.3" r="1.7"/>
	<circle style="fill:#707070;" cx="366.9" cy="231.3" r="1.7"/>
	<circle style="fill:#707070;" cx="349.5" cy="257.2" r="1.7"/>
	<circle style="fill:#707070;" cx="357.3" cy="249.1" r="1.7"/>
	<circle style="fill:#707070;" cx="345.6" cy="261.2" r="1.7"/>
	<circle style="fill:#707070;" cx="353.4" cy="253.2" r="1.7"/>
	<circle style="fill:#707070;" cx="365.1" cy="241.1" r="1.7"/>
	<circle style="fill:#707070;" cx="372.9" cy="233.1" r="1.7"/>
	<path style="fill:#707070;" d="M362.4,244c0.7,0.6,0.7,1.7,0,2.4c-0.6,0.7-1.7,0.7-2.4,0c-0.7-0.6-0.7-1.7,0-2.4
		C360.6,243.3,361.7,243.3,362.4,244z"/>
	<circle style="fill:#707070;" cx="369" cy="237.2" r="1.7"/>
	<circle style="fill:#707070;" cx="355.1" cy="258.8" r="1.7"/>
	<circle style="fill:#707070;" cx="362.9" cy="250.8" r="1.7"/>
	<circle style="fill:#707070;" cx="351.2" cy="262.8" r="1.7"/>
	<circle style="fill:#707070;" cx="359" cy="254.8" r="1.7"/>
	<circle style="fill:#707070;" cx="370.7" cy="242.8" r="1.7"/>
	<path style="fill:#707070;" d="M368,245.6c0.7,0.6,0.7,1.7,0,2.4c-0.6,0.7-1.7,0.7-2.4,0c-0.7-0.6-0.7-1.7,0-2.4
		C366.2,245,367.3,244.9,368,245.6z"/>
	<circle style="fill:#707070;" cx="374.6" cy="238.8" r="1.7"/>
</g>
<g>
	<path style="fill:#ADADAC;" d="M379.1,238.6c-3.4,4.4-8,10-13.6,15.8c-5.1,5.3-10.1,9.6-14.1,12.9c2.8,0.5,5.5,0.6,8.1,0.3
		c3.1-2.7,6.4-5.8,9.9-9.4c3.9-4,7.3-7.9,10.2-11.5C379.9,244.1,379.7,241.4,379.1,238.6z"/>
	<path style="fill:#ADADAC;" d="M369.7,221.8c-0.5-0.6-1.1-1.1-1.7-1.7c-0.7-0.7-1.5-1.4-2.3-2c-3.3,4.7-9.1,12.3-16.8,20.2
		c-7.2,7.4-14,12.9-18.5,16.3c0.6,0.7,1.3,1.4,2,2.1c0.6,0.6,1.2,1.2,1.9,1.7c4.6-3.5,11.3-9,18.5-16.4
		C360.4,234.1,366.2,226.6,369.7,221.8z"/>
</g>
<path style="fill:#3A3A38;" d="M379.6,243.7c0,0-2.8,6.1-10,13.6c-7.3,7.5-13.3,10.4-13.3,10.4l85.6,74l0,0c1.1,1,5.1-1.3,9-5.3
	c3.8-4,6.1-8,5-9.1l0,0L379.6,243.7z"/>
<path style="fill:#545454;" d="M369.6,257.3c-7.3,7.5-13.3,10.4-13.3,10.4l85.6,74l0,0c1.1,1,5.1-1.3,9-5.3L369.6,257.3z"/>
<circle style="fill:#3A3A38;" cx="381.2" cy="268.5" r="4.6"/>
<circle style="fill:#727270;" cx="381.2" cy="268.5" r="3"/>
<path style="fill:#DFA17C;" d="M150.8,299.5c8.4-7.9,13.6-37.1,13.6-37.1c-18.2-25-40.9-46.3-41.7-93.7
	c-0.7-47.4,52.9-68.1,52.9-68.1c46.1-19.7,83.3,15.8,83.3,15.8c5.8,7.4,11.1,20.1,14.8,30.8c1.2,3.3,0.9,7.6,1.4,8.8
	c1.1,2.7,4.3,9.5,4.3,9.5c6.8,12.9,19.7,18.9,19.7,18.9c13.6,6.1,3.4,16.7,3.4,16.7c-1.4,2.4-0.9,4.2-0.7,8.1
	c0.1,3.8-12.2,6.2-12.3,9.3c-0.2,3.2,11.9,10.3,11.9,13.2s-2.2,6.3-2.2,6.3c1.5,25.7-25.7,25.7-25.7,25.7c-26-0.3-38.7,13.7-43,18.1
	c-15.3,15.9-25.1,56-25.1,56s-19.5-5-31.5-13.6C161.7,316,150.8,299.5,150.8,299.5z"/>
<path style="fill:#C98D6F;" d="M202.8,224.2c0,0-1.7,18.5,12,27.9c9.3,6.4,30,7.3,30,7.3s-15.7-3-27.8-10.9
	C208.2,242.8,204.2,234.2,202.8,224.2z"/>
<path style="fill:#3A3A38;" d="M269.6,150.9c0,0-16.2-1.4-23.4,0.7c-2.9,0.8-8.3,8.4-8.3,8.4s7.5-1.7,10.3-2.6
	c2.8-0.9,21.9-2.3,21.9-2.3S272.6,151.9,269.6,150.9z"/>
<path style="fill:#644B44;" d="M271.7,164.1c0,0-1,4.4-4.8,7.2c-4,3.1-11.1,4.5-18.7-1.4c0,0,10.5-0.9,15.7-2
	C269,166.7,271.7,164.1,271.7,164.1z"/>
<g>
	<path style="fill:#3A3A38;" d="M274.7,138.8c-7.4,1.1-42.3,6.1-57.3,14.6c-7.6,4.3-15.8,19-23.8,31c-1,1.4,2.7,11.5,1.8,13
		c-0.8,1.3-7.3-3.3-7.3-3.3c-8.6,14.7-14.7,29.2-14.9,39.6c-0.3,21.2-9.7,31.2-9.7,31.2s-86.4-87.3-20.8-146.7
		c21.1-19.1,89-52.8,131.5,12.4C275,131.9,276.6,138.5,274.7,138.8z"/>
	<path style="fill:#3A3A38;" d="M123,116.5c0,0,14.6,11.9,36.1,9.8C159.1,126.4,138.1,147.5,123,116.5z"/>
	<path style="fill:#3A3A38;" d="M118.4,129c0,0,16.7,4,34.1-4.8C152.5,124.2,146.1,149.7,118.4,129z"/>
	<path style="fill:#3A3A38;" d="M145.6,102.6c0,0-6.1,18.6,3.1,37.2C148.7,139.8,124.1,126.3,145.6,102.6z"/>
</g>
<ellipse transform="matrix(-0.331 -0.9436 0.9436 -0.331 43.5393 435.0576)" style="fill:#DFA17C;" cx="175.988" cy="202.095" rx="17.699" ry="14.1"/>
<path style="fill:#15252D;" d="M358.2,344.4c0,0,41.2-1,47.2,24.7C405.4,369.1,370.7,386.9,358.2,344.4z"/>
<path style="fill:#DFA17C;" d="M432.7,300c0,0,9.8-15.3,5-17.6c-4.8-2.3-5.5-1.1-8.9,3.3c0,0,5.1-8.1,0.7-11.1
	c-2.6-1.8-5.4-4.7-12.1,5c0,0,7.8-8.5,2.1-12.5c-5-3.6-7.1-2.4-10.2,2.2c0,0,3.8-5.2-0.4-8.1c-6.1-4.2-9.4-0.1-13.1,5.6
	c-8.6,13.3-15.8,20.1-14.6,28.9c0,0-3.4,23.5-15.7,57.3c0,0-11.7,43.8,30.6,19.2c0,0,9.2-18.4,14.3-24.8
	C422.1,332.9,429.4,314.2,432.7,300z"/>
<g>
	<polygon style="fill:#C48769;" points="400.1,282.1 410,268.3 400.7,282.4 	"/>
	<polygon style="fill:#C48769;" points="410.3,289 419.8,276.6 411,289.3 	"/>
	<polygon style="fill:#C48769;" points="421,296.2 429.4,285 421.7,296.6 	"/>
</g>
<path style="fill:#22A85B;" d="M188.6,489c17.7,4.4,36.2,6.8,55.1,7.2l-36-42C207.7,454.1,196.6,474.8,188.6,489z"/>
<path style="fill:#334D5C;" d="M358.2,344.4L279,444.1L218.9,344l0,0c-16.8-38.9-80.6-50.3-80.6-50.3c-19.8-0.8-67.4,62.9-91.8,98.9
	c33.9,47.2,84,82,142.1,96.4c8-14.2,19.1-34.9,19.1-34.9l36,42c1.5,0,2.9,0.1,4.4,0.1c25.3,0,49.6-3.8,72.6-10.8l84.7-116.3
	C383.1,376.7,358.2,344.4,358.2,344.4z"/>
<g>
</g>
<g>
</g>
<g>
</g>
<g>
</g>
<g>
</g>
<g>
</g>
<g>
</g>
<g>
</g>
<g>
</g>
<g>
</g>
<g>
</g>
<g>
</g>
<g>
</g>
<g>
</g>
<g>
</g>
</svg>
