<?xml version="1.0" encoding="iso-8859-1"?>
<!-- Generator: Adobe Illustrator 19.0.0, SVG Export Plug-In . SVG Version: 6.00 Build 0)  -->
<svg version="1.1" id="Layer_1" xmlns="http://www.w3.org/2000/svg" xmlns:xlink="http://www.w3.org/1999/xlink" x="0px" y="0px"
	 viewBox="0 0 512.001 512.001" style="enable-background:new 0 0 512.001 512.001;" xml:space="preserve">
<g>
	<path style="fill:#FFD960;" d="M336.76,327.082l-8.182-47.699l59.308-57.809c2.517-2.453,3.422-6.123,2.336-9.464
		c-1.086-3.341-3.975-5.777-7.45-6.282L300.81,193.92l-36.654-74.269c-1.554-3.15-4.763-5.145-8.276-5.145
		c-3.514,0-6.723,1.995-8.277,5.145l-36.654,74.269l-81.958,11.908c-3.476,0.506-6.366,2.941-7.451,6.282s-0.18,7.011,2.336,9.464
		l59.308,57.809l-14.002,81.627c-0.593,3.462,0.83,6.963,3.674,9.028c2.841,2.065,6.611,2.338,9.721,0.703l73.306-38.538
		l73.306,38.538c1.35,0.711,2.825,1.06,4.296,1.06c1.912,0,3.817-0.595,5.426-1.763c2.845-2.065,4.267-5.567,3.675-9.028
		L336.76,327.082"/>
	<path style="fill:#FFD960;" d="M180.09,43.24c-0.481-1.481-1.762-2.561-3.301-2.783L140.48,35.18l-16.239-32.9
		c-0.689-1.397-2.11-2.28-3.667-2.28c-1.557,0-2.978,0.883-3.667,2.28l-16.239,32.9l-36.31,5.277
		c-1.539,0.224-2.82,1.302-3.301,2.783c-0.48,1.479-0.079,3.104,1.035,4.191l26.274,25.61l-6.203,36.164
		c-0.263,1.534,0.367,3.083,1.627,3.999c1.26,0.915,2.93,1.036,4.307,0.311l32.476-17.073l32.475,17.073
		c0.598,0.314,1.253,0.47,1.904,0.47c0.847,0,1.691-0.264,2.404-0.781c1.258-0.915,1.889-2.466,1.628-3.999L152.78,73.04
		l26.274-25.609C180.169,46.344,180.571,44.72,180.09,43.24z"/>
	<path style="fill:#FFD960;" d="M300.467,459c-0.36-1.109-1.32-1.917-2.473-2.085l-27.202-3.952l-12.166-24.648
		c-0.513-1.046-1.58-1.708-2.746-1.708c-1.166,0-2.23,0.662-2.746,1.708l-12.164,24.648l-27.202,3.952
		c-1.153,0.168-2.114,0.977-2.475,2.085c-0.36,1.109-0.059,2.327,0.776,3.141l19.684,19.186l-4.648,27.09
		c-0.196,1.149,0.275,2.311,1.218,2.997c0.944,0.686,2.195,0.775,3.227,0.233l24.328-12.792l24.331,12.792
		c0.447,0.235,0.937,0.35,1.424,0.35c0.633,0,1.27-0.196,1.8-0.584c0.944-0.686,1.416-1.848,1.222-2.997l-4.649-27.09l19.684-19.186
		C300.528,461.326,300.827,460.108,300.467,459z"/>
</g>
<g style="opacity:0.1;">
	<path style="fill:#231F20;" d="M199.294,352.062l14.002-81.627l-59.308-57.809c-2.516-2.453-3.421-6.123-2.336-9.464
		c0.075-0.23,0.178-0.444,0.27-0.666l-22.933,3.333c-3.476,0.506-6.366,2.941-7.451,6.282s-0.18,7.011,2.336,9.464l59.308,57.809
		l-14.002,81.627c-0.593,3.462,0.83,6.963,3.674,9.028c2.841,2.065,6.611,2.338,9.721,0.703l19.61-10.31
		C199.877,358.328,198.759,355.184,199.294,352.062z"/>
</g>
<g style="opacity:0.1;">
	<path style="fill:#231F20;" d="M112.279,100.257l6.203-36.164l-26.274-25.61c-0.548-0.534-0.921-1.199-1.104-1.912l-26.745,3.886
		c-1.539,0.224-2.82,1.302-3.301,2.783c-0.48,1.479-0.079,3.104,1.035,4.191l26.274,25.61l-6.203,36.164
		c-0.263,1.534,0.367,3.083,1.627,3.999c1.26,0.915,2.93,1.036,4.307,0.311l24.124-12.682
		C112.227,100.641,112.246,100.449,112.279,100.257z"/>
</g>
<g style="opacity:0.1;">
	<path style="fill:#231F20;" d="M257.22,499.469l4.648-27.09l-19.684-19.186c-0.349-0.34-0.582-0.76-0.734-1.204l-0.481,0.975
		l-27.202,3.952c-1.153,0.168-2.114,0.977-2.475,2.085c-0.36,1.109-0.059,2.327,0.776,3.141l19.684,19.186l-4.648,27.09
		c-0.196,1.149,0.275,2.311,1.218,2.997c0.944,0.686,2.195,0.775,3.227,0.233l24.328-12.792l1.338,0.704
		C257.222,499.529,257.215,499.499,257.22,499.469z"/>
</g>
<g>
	<circle style="fill:#FFD960;" cx="450.892" cy="301.617" r="26.77"/>
	<circle style="fill:#FFD960;" cx="61.109" cy="344.999" r="26.77"/>
</g>
<g>
	<path style="opacity:0.1;fill:#231F20;enable-background:new    ;" d="M442.02,301.621c0-11.647,7.437-21.549,17.82-25.232
		c-2.799-0.992-5.809-1.537-8.949-1.537c-14.786,0-26.77,11.984-26.77,26.77c0,14.784,11.984,26.77,26.77,26.77
		c3.14,0,6.15-0.545,8.949-1.538C449.458,323.17,442.02,313.267,442.02,301.621z"/>
	<path style="opacity:0.1;fill:#231F20;enable-background:new    ;" d="M52.237,344.994c0-11.645,7.437-21.549,17.82-25.232
		c-2.799-0.993-5.81-1.538-8.949-1.538c-14.786,0-26.77,11.984-26.77,26.77c0,14.784,11.984,26.77,26.77,26.77
		c3.139,0,6.15-0.545,8.949-1.538C59.676,366.543,52.237,356.64,52.237,344.994z"/>
</g>
<g>
	<circle style="fill:#FFD960;" cx="382.396" cy="95.3" r="18.694"/>
	<circle style="fill:#FFD960;" cx="424.123" cy="435.063" r="18.695"/>
</g>
<g>
</g>
<g>
</g>
<g>
</g>
<g>
</g>
<g>
</g>
<g>
</g>
<g>
</g>
<g>
</g>
<g>
</g>
<g>
</g>
<g>
</g>
<g>
</g>
<g>
</g>
<g>
</g>
<g>
</g>
</svg>
