<?xml version="1.0" encoding="UTF-8" standalone="no"?>
<!-- Generator: Adobe Illustrator 19.0.0, SVG Export Plug-In . SVG Version: 6.00 Build 0)  -->

<svg
   xmlns:dc="http://purl.org/dc/elements/1.1/"
   xmlns:cc="http://creativecommons.org/ns#"
   xmlns:rdf="http://www.w3.org/1999/02/22-rdf-syntax-ns#"
   xmlns:svg="http://www.w3.org/2000/svg"
   xmlns="http://www.w3.org/2000/svg"
   xmlns:sodipodi="http://sodipodi.sourceforge.net/DTD/sodipodi-0.dtd"
   xmlns:inkscape="http://www.inkscape.org/namespaces/inkscape"
   version="1.1"
   id="Layer_1"
   x="0px"
   y="0px"
   viewBox="0 0 512.001 512.001"
   style="enable-background:new 0 0 512.001 512.001;"
   xml:space="preserve"
   inkscape:version="0.91 r13725"
   sodipodi:docname="stars-off.svg"><metadata
     id="metadata75"><rdf:RDF><cc:Work
         rdf:about=""><dc:format>image/svg+xml</dc:format><dc:type
           rdf:resource="http://purl.org/dc/dcmitype/StillImage" /><dc:title></dc:title></cc:Work></rdf:RDF></metadata><defs
     id="defs73"><filter
       style="color-interpolation-filters:sRGB;"
       inkscape:label="Color Shift"
       id="filter5875"><feColorMatrix
         type="hueRotate"
         values="360"
         result="color1"
         id="feColorMatrix5877" /><feColorMatrix
         type="saturate"
         values="0"
         result="color2"
         id="feColorMatrix5879" /></filter><filter
       style="color-interpolation-filters:sRGB;"
       inkscape:label="Color Shift"
       id="filter5881"><feColorMatrix
         type="hueRotate"
         values="360"
         result="color1"
         id="feColorMatrix5883" /><feColorMatrix
         type="saturate"
         values="0"
         result="color2"
         id="feColorMatrix5885" /></filter><filter
       style="color-interpolation-filters:sRGB;"
       inkscape:label="Color Shift"
       id="filter5887"><feColorMatrix
         type="hueRotate"
         values="360"
         result="color1"
         id="feColorMatrix5889" /><feColorMatrix
         type="saturate"
         values="0"
         result="color2"
         id="feColorMatrix5891" /></filter><filter
       style="color-interpolation-filters:sRGB;"
       inkscape:label="Color Shift"
       id="filter5893"><feColorMatrix
         type="hueRotate"
         values="360"
         result="color1"
         id="feColorMatrix5895" /><feColorMatrix
         type="saturate"
         values="0"
         result="color2"
         id="feColorMatrix5897" /></filter><filter
       style="color-interpolation-filters:sRGB;"
       inkscape:label="Color Shift"
       id="filter5899"><feColorMatrix
         type="hueRotate"
         values="360"
         result="color1"
         id="feColorMatrix5901" /><feColorMatrix
         type="saturate"
         values="0"
         result="color2"
         id="feColorMatrix5903" /></filter><filter
       style="color-interpolation-filters:sRGB;"
       inkscape:label="Color Shift"
       id="filter5905"><feColorMatrix
         type="hueRotate"
         values="360"
         result="color1"
         id="feColorMatrix5907" /><feColorMatrix
         type="saturate"
         values="0"
         result="color2"
         id="feColorMatrix5909" /></filter><filter
       style="color-interpolation-filters:sRGB;"
       inkscape:label="Color Shift"
       id="filter5911"><feColorMatrix
         type="hueRotate"
         values="360"
         result="color1"
         id="feColorMatrix5913" /><feColorMatrix
         type="saturate"
         values="0"
         result="color2"
         id="feColorMatrix5915" /></filter><filter
       style="color-interpolation-filters:sRGB;"
       inkscape:label="Color Shift"
       id="filter5917"><feColorMatrix
         type="hueRotate"
         values="360"
         result="color1"
         id="feColorMatrix5919" /><feColorMatrix
         type="saturate"
         values="0"
         result="color2"
         id="feColorMatrix5921" /></filter><filter
       style="color-interpolation-filters:sRGB;"
       inkscape:label="Color Shift"
       id="filter5923"><feColorMatrix
         type="hueRotate"
         values="360"
         result="color1"
         id="feColorMatrix5925" /><feColorMatrix
         type="saturate"
         values="0"
         result="color2"
         id="feColorMatrix5927" /></filter><filter
       style="color-interpolation-filters:sRGB;"
       inkscape:label="Color Shift"
       id="filter5929"><feColorMatrix
         type="hueRotate"
         values="360"
         result="color1"
         id="feColorMatrix5931" /><feColorMatrix
         type="saturate"
         values="0"
         result="color2"
         id="feColorMatrix5933" /></filter><filter
       style="color-interpolation-filters:sRGB;"
       inkscape:label="Color Shift"
       id="filter5935"><feColorMatrix
         type="hueRotate"
         values="360"
         result="color1"
         id="feColorMatrix5937" /><feColorMatrix
         type="saturate"
         values="0"
         result="color2"
         id="feColorMatrix5939" /></filter><filter
       style="color-interpolation-filters:sRGB;"
       inkscape:label="Color Shift"
       id="filter5941"><feColorMatrix
         type="hueRotate"
         values="360"
         result="color1"
         id="feColorMatrix5943" /><feColorMatrix
         type="saturate"
         values="0"
         result="color2"
         id="feColorMatrix5945" /></filter><filter
       style="color-interpolation-filters:sRGB;"
       inkscape:label="Color Shift"
       id="filter5947"><feColorMatrix
         type="hueRotate"
         values="360"
         result="color1"
         id="feColorMatrix5949" /><feColorMatrix
         type="saturate"
         values="0"
         result="color2"
         id="feColorMatrix5951" /></filter><filter
       style="color-interpolation-filters:sRGB;"
       inkscape:label="Color Shift"
       id="filter5953"><feColorMatrix
         type="hueRotate"
         values="360"
         result="color1"
         id="feColorMatrix5955" /><feColorMatrix
         type="saturate"
         values="0"
         result="color2"
         id="feColorMatrix5957" /></filter><filter
       style="color-interpolation-filters:sRGB;"
       inkscape:label="Color Shift"
       id="filter5959"><feColorMatrix
         type="hueRotate"
         values="360"
         result="color1"
         id="feColorMatrix5961" /><feColorMatrix
         type="saturate"
         values="0"
         result="color2"
         id="feColorMatrix5963" /></filter><filter
       style="color-interpolation-filters:sRGB;"
       inkscape:label="Color Shift"
       id="filter5965"><feColorMatrix
         type="hueRotate"
         values="360"
         result="color1"
         id="feColorMatrix5967" /><feColorMatrix
         type="saturate"
         values="0"
         result="color2"
         id="feColorMatrix5969" /></filter><filter
       style="color-interpolation-filters:sRGB;"
       inkscape:label="Color Shift"
       id="filter5971"><feColorMatrix
         type="hueRotate"
         values="360"
         result="color1"
         id="feColorMatrix5973" /><feColorMatrix
         type="saturate"
         values="0"
         result="color2"
         id="feColorMatrix5975" /></filter><filter
       style="color-interpolation-filters:sRGB;"
       inkscape:label="Color Shift"
       id="filter5977"><feColorMatrix
         type="hueRotate"
         values="360"
         result="color1"
         id="feColorMatrix5979" /><feColorMatrix
         type="saturate"
         values="0"
         result="color2"
         id="feColorMatrix5981" /></filter><filter
       style="color-interpolation-filters:sRGB;"
       inkscape:label="Color Shift"
       id="filter5983"><feColorMatrix
         type="hueRotate"
         values="360"
         result="color1"
         id="feColorMatrix5985" /><feColorMatrix
         type="saturate"
         values="0"
         result="color2"
         id="feColorMatrix5987" /></filter><filter
       style="color-interpolation-filters:sRGB;"
       inkscape:label="Color Shift"
       id="filter5989"><feColorMatrix
         type="hueRotate"
         values="360"
         result="color1"
         id="feColorMatrix5991" /><feColorMatrix
         type="saturate"
         values="0"
         result="color2"
         id="feColorMatrix5993" /></filter><filter
       style="color-interpolation-filters:sRGB;"
       inkscape:label="Color Shift"
       id="filter5995"><feColorMatrix
         type="hueRotate"
         values="360"
         result="color1"
         id="feColorMatrix5997" /><feColorMatrix
         type="saturate"
         values="0"
         result="color2"
         id="feColorMatrix5999" /></filter><filter
       style="color-interpolation-filters:sRGB;"
       inkscape:label="Color Shift"
       id="filter6001"><feColorMatrix
         type="hueRotate"
         values="360"
         result="color1"
         id="feColorMatrix6003" /><feColorMatrix
         type="saturate"
         values="0"
         result="color2"
         id="feColorMatrix6005" /></filter></defs><sodipodi:namedview
     pagecolor="#ffffff"
     bordercolor="#666666"
     borderopacity="1"
     objecttolerance="10"
     gridtolerance="10"
     guidetolerance="10"
     inkscape:pageopacity="0"
     inkscape:pageshadow="2"
     inkscape:window-width="1920"
     inkscape:window-height="1017"
     id="namedview71"
     showgrid="false"
     inkscape:zoom="0.46093662"
     inkscape:cx="256.00049"
     inkscape:cy="256.00049"
     inkscape:window-x="-8"
     inkscape:window-y="-8"
     inkscape:window-maximized="1"
     inkscape:current-layer="Layer_1" /><g
     id="g3"
     style="filter:url(#filter5875)"><path
       style="fill:#FFD960;"
       d="M336.76,327.082l-8.182-47.699l59.308-57.809c2.517-2.453,3.422-6.123,2.336-9.464   c-1.086-3.341-3.975-5.777-7.45-6.282L300.81,193.92l-36.654-74.269c-1.554-3.15-4.763-5.145-8.276-5.145   c-3.514,0-6.723,1.995-8.277,5.145l-36.654,74.269l-81.958,11.908c-3.476,0.506-6.366,2.941-7.451,6.282s-0.18,7.011,2.336,9.464   l59.308,57.809l-14.002,81.627c-0.593,3.462,0.83,6.963,3.674,9.028c2.841,2.065,6.611,2.338,9.721,0.703l73.306-38.538   l73.306,38.538c1.35,0.711,2.825,1.06,4.296,1.06c1.912,0,3.817-0.595,5.426-1.763c2.845-2.065,4.267-5.567,3.675-9.028   L336.76,327.082"
       id="path5" /><path
       style="fill:#FFD960;"
       d="M180.09,43.24c-0.481-1.481-1.762-2.561-3.301-2.783L140.48,35.18l-16.239-32.9   c-0.689-1.397-2.11-2.28-3.667-2.28c-1.557,0-2.978,0.883-3.667,2.28l-16.239,32.9l-36.31,5.277   c-1.539,0.224-2.82,1.302-3.301,2.783c-0.48,1.479-0.079,3.104,1.035,4.191l26.274,25.61l-6.203,36.164   c-0.263,1.534,0.367,3.083,1.627,3.999c1.26,0.915,2.93,1.036,4.307,0.311l32.476-17.073l32.475,17.073   c0.598,0.314,1.253,0.47,1.904,0.47c0.847,0,1.691-0.264,2.404-0.781c1.258-0.915,1.889-2.466,1.628-3.999L152.78,73.04   l26.274-25.609C180.169,46.344,180.571,44.72,180.09,43.24z"
       id="path7" /><path
       style="fill:#FFD960;"
       d="M300.467,459c-0.36-1.109-1.32-1.917-2.473-2.085l-27.202-3.952l-12.166-24.648   c-0.513-1.046-1.58-1.708-2.746-1.708c-1.166,0-2.23,0.662-2.746,1.708l-12.164,24.648l-27.202,3.952   c-1.153,0.168-2.114,0.977-2.475,2.085c-0.36,1.109-0.059,2.327,0.776,3.141l19.684,19.186l-4.648,27.09   c-0.196,1.149,0.275,2.311,1.218,2.997c0.944,0.686,2.195,0.775,3.227,0.233l24.328-12.792l24.331,12.792   c0.447,0.235,0.937,0.35,1.424,0.35c0.633,0,1.27-0.196,1.8-0.584c0.944-0.686,1.416-1.848,1.222-2.997l-4.649-27.09l19.684-19.186   C300.528,461.326,300.827,460.108,300.467,459z"
       id="path9" /></g><g
     style="opacity:0.1;filter:url(#filter5881)"
     id="g11"><path
       style="fill:#231F20;"
       d="M199.294,352.062l14.002-81.627l-59.308-57.809c-2.516-2.453-3.421-6.123-2.336-9.464   c0.075-0.23,0.178-0.444,0.27-0.666l-22.933,3.333c-3.476,0.506-6.366,2.941-7.451,6.282s-0.18,7.011,2.336,9.464l59.308,57.809   l-14.002,81.627c-0.593,3.462,0.83,6.963,3.674,9.028c2.841,2.065,6.611,2.338,9.721,0.703l19.61-10.31   C199.877,358.328,198.759,355.184,199.294,352.062z"
       id="path13" /></g><g
     style="opacity:0.1;filter:url(#filter5887)"
     id="g15"><path
       style="fill:#231F20;"
       d="M112.279,100.257l6.203-36.164l-26.274-25.61c-0.548-0.534-0.921-1.199-1.104-1.912l-26.745,3.886   c-1.539,0.224-2.82,1.302-3.301,2.783c-0.48,1.479-0.079,3.104,1.035,4.191l26.274,25.61l-6.203,36.164   c-0.263,1.534,0.367,3.083,1.627,3.999c1.26,0.915,2.93,1.036,4.307,0.311l24.124-12.682   C112.227,100.641,112.246,100.449,112.279,100.257z"
       id="path17" /></g><g
     style="opacity:0.1;filter:url(#filter5893)"
     id="g19"><path
       style="fill:#231F20;"
       d="M257.22,499.469l4.648-27.09l-19.684-19.186c-0.349-0.34-0.582-0.76-0.734-1.204l-0.481,0.975   l-27.202,3.952c-1.153,0.168-2.114,0.977-2.475,2.085c-0.36,1.109-0.059,2.327,0.776,3.141l19.684,19.186l-4.648,27.09   c-0.196,1.149,0.275,2.311,1.218,2.997c0.944,0.686,2.195,0.775,3.227,0.233l24.328-12.792l1.338,0.704   C257.222,499.529,257.215,499.499,257.22,499.469z"
       id="path21" /></g><g
     id="g23"
     style="filter:url(#filter5899)"><circle
       style="fill:#FFD960;"
       cx="450.892"
       cy="301.617"
       r="26.77"
       id="circle25" /><circle
       style="fill:#FFD960;"
       cx="61.109"
       cy="344.999"
       r="26.77"
       id="circle27" /></g><g
     id="g29"
     style="filter:url(#filter5905)"><path
       style="opacity:0.1;fill:#231F20;enable-background:new    ;"
       d="M442.02,301.621c0-11.647,7.437-21.549,17.82-25.232   c-2.799-0.992-5.809-1.537-8.949-1.537c-14.786,0-26.77,11.984-26.77,26.77c0,14.784,11.984,26.77,26.77,26.77   c3.14,0,6.15-0.545,8.949-1.538C449.458,323.17,442.02,313.267,442.02,301.621z"
       id="path31" /><path
       style="opacity:0.1;fill:#231F20;enable-background:new    ;"
       d="M52.237,344.994c0-11.645,7.437-21.549,17.82-25.232   c-2.799-0.993-5.81-1.538-8.949-1.538c-14.786,0-26.77,11.984-26.77,26.77c0,14.784,11.984,26.77,26.77,26.77   c3.139,0,6.15-0.545,8.949-1.538C59.676,366.543,52.237,356.64,52.237,344.994z"
       id="path33" /></g><g
     id="g35"
     style="filter:url(#filter5911)"><circle
       style="fill:#FFD960;"
       cx="382.396"
       cy="95.3"
       r="18.694"
       id="circle37" /><circle
       style="fill:#FFD960;"
       cx="424.123"
       cy="435.063"
       r="18.695"
       id="circle39" /></g><g
     id="g41"
     style="filter:url(#filter5917)" /><g
     id="g43"
     style="filter:url(#filter5923)" /><g
     id="g45"
     style="filter:url(#filter5929)" /><g
     id="g47"
     style="filter:url(#filter5935)" /><g
     id="g49"
     style="filter:url(#filter5941)" /><g
     id="g51"
     style="filter:url(#filter5947)" /><g
     id="g53"
     style="filter:url(#filter5953)" /><g
     id="g55"
     style="filter:url(#filter5959)" /><g
     id="g57"
     style="filter:url(#filter5965)" /><g
     id="g59"
     style="filter:url(#filter5971)" /><g
     id="g61"
     style="filter:url(#filter5977)" /><g
     id="g63"
     style="filter:url(#filter5983)" /><g
     id="g65"
     style="filter:url(#filter5989)" /><g
     id="g67"
     style="filter:url(#filter5995)" /><g
     id="g69"
     style="filter:url(#filter6001)" /></svg>