<?xml version="1.0" encoding="iso-8859-1"?>
<!-- Generator: Adobe Illustrator 19.0.0, SVG Export Plug-In . SVG Version: 6.00 Build 0)  -->
<svg version="1.1" id="Layer_1" xmlns="http://www.w3.org/2000/svg" xmlns:xlink="http://www.w3.org/1999/xlink" x="0px" y="0px"
	 viewBox="0 0 491.173 491.173" style="enable-background:new 0 0 491.173 491.173;" xml:space="preserve">
<path style="fill:#D5D6DB;" d="M296.975,275.165V56.156C296.975,25.142,271.834,0,240.82,0h-0.001
	c-31.013,0-56.156,25.142-56.156,56.156v219.009c-35.281,19.717-59.149,57.413-59.149,100.703
	c0,63.681,51.624,115.305,115.305,115.305c63.683,0,115.307-51.624,115.307-115.305
	C356.126,332.578,332.257,294.882,296.975,275.165z"/>
<path style="fill:#EBF0F3;" d="M240.82,482.841c-58.985,0-106.974-47.988-106.974-106.974c0-38.711,21.03-74.512,54.882-93.431
	l4.266-2.386V56.156c0-26.373,21.453-47.826,47.826-47.826s47.826,21.453,47.826,47.826V280.05l4.266,2.386
	c33.852,18.919,54.882,54.72,54.882,93.431C347.793,434.853,299.805,482.841,240.82,482.841z"/>
<path style="fill:#E1E6E9;" d="M252.926,56.153c0-6.671-5.433-12.104-12.105-12.104c-6.672,0-12.105,5.434-12.105,12.104v112.749
	h24.21V56.153z"/>
<path style="fill:#E56353;" d="M275.452,313.601l-6.875-3.851c-9.667-5.415-15.651-15.63-15.651-26.713V168.902h-24.21v114.141
	c0,11.078-5.985,21.292-15.648,26.707l-6.913,3.876c-29.308,16.364-44.19,51.695-32.696,85.601
	c8.466,24.973,30.928,43.473,57.034,47.163c43.858,6.196,81.579-27.84,81.579-70.522
	C312.072,350.08,298.058,326.228,275.452,313.601z"/>
<g>
	<rect x="317.167" y="53.12" style="fill:#3A556A;" width="30.628" height="8.929"/>
	<rect x="317.167" y="72.418" style="fill:#3A556A;" width="48.492" height="8.929"/>
	<rect x="317.167" y="91.72" style="fill:#3A556A;" width="30.628" height="8.929"/>
	<rect x="317.167" y="111.017" style="fill:#3A556A;" width="30.628" height="8.929"/>
	<rect x="317.167" y="130.32" style="fill:#3A556A;" width="48.492" height="8.929"/>
	<rect x="317.167" y="149.637" style="fill:#3A556A;" width="30.628" height="8.929"/>
	<rect x="317.167" y="168.94" style="fill:#3A556A;" width="30.628" height="8.929"/>
	<rect x="317.167" y="188.217" style="fill:#3A556A;" width="48.492" height="8.929"/>
	<rect x="317.167" y="207.519" style="fill:#3A556A;" width="30.628" height="8.929"/>
	<rect x="317.167" y="226.796" style="fill:#3A556A;" width="30.628" height="8.929"/>
	<rect x="317.167" y="246.098" style="fill:#3A556A;" width="48.492" height="8.929"/>
</g>
<g>
</g>
<g>
</g>
<g>
</g>
<g>
</g>
<g>
</g>
<g>
</g>
<g>
</g>
<g>
</g>
<g>
</g>
<g>
</g>
<g>
</g>
<g>
</g>
<g>
</g>
<g>
</g>
<g>
</g>
</svg>
