<?xml version="1.0" encoding="UTF-8" standalone="no"?>
<!-- Generator: Adobe Illustrator 19.0.0, SVG Export Plug-In . SVG Version: 6.00 Build 0)  -->

<svg
   xmlns:dc="http://purl.org/dc/elements/1.1/"
   xmlns:cc="http://creativecommons.org/ns#"
   xmlns:rdf="http://www.w3.org/1999/02/22-rdf-syntax-ns#"
   xmlns:svg="http://www.w3.org/2000/svg"
   xmlns="http://www.w3.org/2000/svg"
   xmlns:sodipodi="http://sodipodi.sourceforge.net/DTD/sodipodi-0.dtd"
   xmlns:inkscape="http://www.inkscape.org/namespaces/inkscape"
   version="1.1"
   id="Layer_1"
   x="0px"
   y="0px"
   viewBox="0 0 512 512"
   style="enable-background:new 0 0 512 512;"
   xml:space="preserve"
   inkscape:version="0.91 r13725"
   sodipodi:docname="thermometer_green.svg"><metadata
     id="metadata53"><rdf:RDF><cc:Work
         rdf:about=""><dc:format>image/svg+xml</dc:format><dc:type
           rdf:resource="http://purl.org/dc/dcmitype/StillImage" /></cc:Work></rdf:RDF></metadata><defs
     id="defs51" /><sodipodi:namedview
     pagecolor="#ffffff"
     bordercolor="#666666"
     borderopacity="1"
     objecttolerance="10"
     gridtolerance="10"
     guidetolerance="10"
     inkscape:pageopacity="0"
     inkscape:pageshadow="2"
     inkscape:window-width="1920"
     inkscape:window-height="1017"
     id="namedview49"
     showgrid="false"
     inkscape:snap-bbox="true"
     inkscape:bbox-paths="true"
     inkscape:bbox-nodes="true"
     inkscape:snap-bbox-edge-midpoints="true"
     inkscape:snap-bbox-midpoints="true"
     inkscape:snap-page="true"
     inkscape:zoom="0.4609375"
     inkscape:cx="256"
     inkscape:cy="256"
     inkscape:window-x="-8"
     inkscape:window-y="-8"
     inkscape:window-maximized="1"
     inkscape:current-layer="g11" /><g
     id="g3"><path
       style="fill:#FFFFFF;"
       d="M55.855,27.927c-10.264,0-18.618,8.35-18.618,18.618s8.354,18.618,18.618,18.618   s18.618-8.35,18.618-18.618S66.118,27.927,55.855,27.927z"
       id="path5" /><path
       style="fill:#FFFFFF;"
       d="M372.364,55.855c5.145,0,9.309,4.168,9.309,9.309s-4.164,9.309-9.309,9.309h-18.618v46.545h46.545   V41.9c0-12.836-10.436-23.282-23.273-23.282c-12.836,0-23.273,10.445-23.273,23.282v13.955H372.364z"
       id="path7" /></g><path
     style="fill:#5ecb66"
     d="m 287.45997,303.8 c -3.864,-1.227 -6.491,-4.814 -6.491,-8.873 l 0,-155.245 -46.545,0 0,46.5 18.618,0 c 5.145,0 9.309,4.168 9.309,9.309 0,5.141 -4.164,9.309 -9.309,9.309 l -18.618,0 0,46.545 18.618,0 c 5.145,0 9.309,4.168 9.309,9.309 0,5.141 -4.164,9.309 -9.309,9.309 l -18.618,0 0,24.964 c 0,4.059 -2.627,7.646 -6.491,8.873 -40.664,12.9 -67.982,50.073 -67.982,92.5 0,53.532 43.845,97.082 97.745,97.082 53.9,0 97.745,-43.55 97.745,-97.082 0.001,-42.427 -27.318,-79.6 -67.981,-92.5 z"
     id="path9"
     inkscape:connector-curvature="0" /><g
     id="g11"><path
       style="fill:#314e55"
       d="m 299.58697,288.323 0,-148.687 0,-9.264 0,-88.472 c 0,-23.104 -18.791,-41.9 -41.891,-41.9 -23.1,0 -41.891,18.796 -41.891,41.9 l 0,88.473 0,9.264 0,148.686 c -44.818,17.127 -74.473,59.695 -74.473,107.977 0,63.795 52.2,115.7 116.364,115.7 64.164,0 116.364,-51.904 116.364,-115.7 0,-48.282 -29.655,-90.85 -74.473,-107.977 z m -41.891,-269.705 c 12.836,0 23.273,10.445 23.273,23.282 l 0,79.118 -46.545,0 0,-46.545 18.618,0 c 5.145,0 9.309,-4.168 9.309,-9.309 0,-5.141 -4.164,-9.309 -9.309,-9.309 l -18.618,0 0,-13.955 c -0.001,-12.836 10.436,-23.282 23.272,-23.282 z m 0,474.764 c -53.9,0 -97.745,-43.55 -97.745,-97.082 0,-42.427 27.318,-79.6 67.982,-92.5 3.864,-1.227 6.491,-4.814 6.491,-8.873 l 0,-24.964 18.618,0 c 5.145,0 9.309,-4.168 9.309,-9.309 0,-5.141 -4.164,-9.309 -9.309,-9.309 l -18.618,0 0,-46.545 18.618,0 c 5.145,0 9.309,-4.168 9.309,-9.309 0,-5.141 -4.164,-9.309 -9.309,-9.309 l -18.618,0 0,-46.5 46.545,0 0,155.245 c 0,4.059 2.627,7.646 6.491,8.873 40.664,12.9 67.982,50.073 67.982,92.5 0,53.532 -43.846,97.082 -97.746,97.082 z"
       id="path13"
       inkscape:connector-curvature="0" /></g><g
     id="g19" /><g
     id="g21" /><g
     id="g23" /><g
     id="g25" /><g
     id="g27" /><g
     id="g29" /><g
     id="g31" /><g
     id="g33" /><g
     id="g35" /><g
     id="g37" /><g
     id="g39" /><g
     id="g41" /><g
     id="g43" /><g
     id="g45" /><g
     id="g47" /></svg>