<?xml version="1.0" encoding="iso-8859-1"?>
<!-- Generator: Adobe Illustrator 19.0.0, SVG Export Plug-In . SVG Version: 6.00 Build 0)  -->
<svg version="1.1" id="Layer_1" xmlns="http://www.w3.org/2000/svg" xmlns:xlink="http://www.w3.org/1999/xlink" x="0px" y="0px"
	 viewBox="0 0 512 512" style="enable-background:new 0 0 512 512;" xml:space="preserve">
<path style="fill:#607D8B;" d="M42.667,8.533h426.667c18.85,0,34.133,15.283,34.133,34.133v426.667
	c0,18.85-15.283,34.133-34.133,34.133H42.667c-18.85,0-34.133-15.283-34.133-34.133V42.667C8.533,23.817,23.817,8.533,42.667,8.533z
	"/>
<path style="fill:#CFD8DC;" d="M42.667,8.533H435.2c18.85,0,34.133,15.283,34.133,34.133v426.667
	c0,18.85-15.283,34.133-34.133,34.133H42.667c-18.85,0-34.133-15.283-34.133-34.133V42.667C8.533,23.817,23.817,8.533,42.667,8.533z
	"/>
<path d="M59.733,264.533c-4.71,0-8.533-3.823-8.533-8.533c0-113.109,91.691-204.8,204.8-204.8c4.71,0,8.533,3.823,8.533,8.533
	s-3.823,8.533-8.533,8.533C152.32,68.267,68.267,152.32,68.267,256C68.267,260.71,64.444,264.533,59.733,264.533z"/>
<path d="M452.267,263.424c-4.71,0-8.533-3.823-8.533-8.533c0-2.731,0-5.461,0-8.533c-0.239-4.71,3.396-8.721,8.107-8.96
	c4.71-0.239,8.721,3.396,8.96,8.107c0,2.961,0,5.803,0,8.533c0,4.71-3.823,8.533-8.533,8.533V263.424z M447.403,220.757
	c-4.07,0.102-7.637-2.688-8.533-6.656c-0.623-2.671-1.28-5.291-1.963-7.851c-1.246-4.548,1.425-9.25,5.973-10.496
	s9.25,1.425,10.496,5.973c0.794,2.842,1.51,5.692,2.133,8.533c1.007,4.591-1.894,9.131-6.485,10.155L447.403,220.757z
	 M433.493,180.907c-3.311,0.026-6.34-1.869-7.765-4.864c-1.135-2.449-2.364-4.864-3.669-7.253
	c-2.287-4.122-0.802-9.318,3.311-11.605c4.113-2.287,9.318-0.802,11.605,3.311c0.068,0.119,0.128,0.23,0.188,0.358
	c1.365,2.62,2.705,5.265,4.011,7.936c2.022,4.258,0.222,9.344-4.036,11.375c-1.135,0.546-2.381,0.828-3.644,0.828L433.493,180.907
	L433.493,180.907z M411.307,144.64c-2.637-0.009-5.129-1.237-6.741-3.328c-1.647-2.159-3.354-4.267-5.12-6.315
	c-3.038-3.601-2.577-8.994,1.024-12.032c3.601-3.038,8.994-2.577,12.032,1.024c1.877,2.304,3.755,4.608,5.632,6.912
	c2.876,3.738,2.176,9.097-1.553,11.964c-1.485,1.143-3.311,1.766-5.188,1.775L411.307,144.64z M381.781,114.005
	c-1.997,0-3.925-0.691-5.461-1.963l-6.4-5.12c-3.746-2.876-4.454-8.243-1.579-11.989c2.876-3.746,8.243-4.454,11.989-1.579
	l6.997,5.547c3.627,3.004,4.13,8.388,1.126,12.015c-1.621,1.963-4.045,3.098-6.588,3.089
	C381.867,114.005,381.781,114.005,381.781,114.005z M346.368,90.368c-1.365,0.009-2.714-0.316-3.925-0.939l-7.424-4.096
	c-4.224-2.082-5.965-7.202-3.883-11.426c2.031-4.113,6.946-5.888,11.136-4.019l7.595,4.352c4.198,2.15,5.854,7.287,3.703,11.486
	c-1.468,2.859-4.412,4.659-7.629,4.642C345.941,90.368,346.368,90.368,346.368,90.368z M306.603,74.923
	c-0.734,0.094-1.485,0.094-2.219,0l-7.936-1.963c-4.71-1.015-7.714-5.658-6.699-10.368s5.658-7.714,10.368-6.699l8.533,2.133
	c4.71,0.614,8.038,4.932,7.424,9.643c-0.614,4.71-4.932,8.038-9.643,7.424L306.603,74.923z M264.533,68.267L264.533,68.267H256
	c-4.71,0-8.533-3.823-8.533-8.533S251.29,51.2,256,51.2h8.533c4.71,0,8.533,3.823,8.533,8.533S269.244,68.267,264.533,68.267z"/>
<path style="fill:#00838F;" d="M401.067,256c0,80.119-64.947,145.067-145.067,145.067l0,0c-5.7,0.009-11.401-0.333-17.067-1.024
	c-79.556-9.506-136.337-81.698-126.839-161.246c7.945-66.483,60.356-118.895,126.839-126.839c5.666-0.691,11.366-1.033,17.067-1.024
	C336.119,110.933,401.067,175.881,401.067,256z"/>
<path style="fill:#00BCD4;" d="M366.933,256c-0.009,73.506-54.997,135.398-128,144.043
	c-79.556-9.506-136.337-81.698-126.839-161.246c7.945-66.483,60.356-118.895,126.839-126.839
	C311.936,120.602,366.925,182.494,366.933,256z"/>
<path d="M256,409.6c-84.83,0-153.6-68.77-153.6-153.6S171.17,102.4,256,102.4S409.6,171.17,409.6,256S340.83,409.6,256,409.6z
	 M256,119.467c-75.409,0-136.533,61.124-136.533,136.533S180.591,392.533,256,392.533S392.533,331.409,392.533,256
	S331.409,119.467,256,119.467z"/>
<circle style="fill:#00838F;" cx="256" cy="256" r="59.733"/>
<path d="M256,324.267c-37.7,0-68.267-30.566-68.267-68.267S218.3,187.733,256,187.733S324.267,218.3,324.267,256
	S293.7,324.267,256,324.267z M256,204.8c-28.279,0-51.2,22.921-51.2,51.2c0,28.279,22.921,51.2,51.2,51.2
	c28.279,0,51.2-22.921,51.2-51.2C307.2,227.721,284.279,204.8,256,204.8z"/>
<path d="M256,204.8c-4.71,0-8.533-3.823-8.533-8.533v-34.133c0-4.71,3.823-8.533,8.533-8.533c4.71,0,8.533,3.823,8.533,8.533v34.133
	C264.533,200.977,260.71,204.8,256,204.8z"/>
<path d="M256,136.533c-4.71,0-8.533-3.823-8.533-8.533v-17.067c0-4.71,3.823-8.533,8.533-8.533c4.71,0,8.533,3.823,8.533,8.533V128
	C264.533,132.71,260.71,136.533,256,136.533z"/>
<path d="M256,409.6c-4.71,0-8.533-3.823-8.533-8.533V384c0-4.71,3.823-8.533,8.533-8.533c4.71,0,8.533,3.823,8.533,8.533v17.067
	C264.533,405.777,260.71,409.6,256,409.6z"/>
<path d="M212.224,144.299c-3.593,0-6.801-2.253-8.021-5.632l-5.803-16.043c-1.476-4.471,0.956-9.301,5.427-10.778
	c4.301-1.417,8.951,0.768,10.615,4.975l5.803,16.043c1.604,4.429-0.691,9.318-5.12,10.923
	C214.195,144.128,213.214,144.299,212.224,144.299z"/>
<path d="M305.579,401.067c-3.593,0-6.801-2.253-8.021-5.632l-5.803-16.043c-1.476-4.471,0.956-9.301,5.427-10.778
	c4.301-1.417,8.951,0.768,10.615,4.975l5.803,16.043c1.604,4.429-0.691,9.318-5.12,10.923
	C307.55,400.896,306.569,401.067,305.579,401.067z"/>
<path d="M173.739,166.485c-2.534,0-4.949-1.118-6.571-3.072l-11.008-13.056c-3.038-3.601-2.577-8.994,1.024-12.032
	c3.601-3.038,8.994-2.577,12.032,1.024l11.008,13.056c3.012,3.618,2.526,9.003-1.092,12.015c-1.51,1.263-3.422,1.963-5.393,1.98
	L173.739,166.485z"/>
<path d="M349.269,375.467c-2.534,0-4.949-1.118-6.571-3.072l-11.008-13.056c-3.038-3.601-2.577-8.994,1.024-12.032
	c3.601-3.038,8.994-2.577,12.032,1.024l11.008,13.056c3.063,3.584,2.645,8.969-0.939,12.032
	C353.271,374.741,351.3,375.467,349.269,375.467z"/>
<path d="M145.067,200.533c-1.493,0.009-2.97-0.375-4.267-1.109l-14.763-8.533c-4.173-2.185-5.794-7.339-3.61-11.52
	c2.185-4.173,7.339-5.794,11.52-3.61c0.213,0.111,0.418,0.23,0.623,0.358l14.763,8.533c4.053,2.406,5.393,7.637,2.987,11.691
	C150.801,198.921,148.045,200.499,145.067,200.533z"/>
<path d="M381.611,337.067c-1.493,0.009-2.97-0.375-4.267-1.109l-14.763-8.533c-3.977-2.526-5.154-7.799-2.62-11.776
	c2.381-3.746,7.228-5.035,11.153-2.987l14.763,8.533c4.096,2.321,5.538,7.535,3.217,11.631c-1.527,2.697-4.386,4.343-7.484,4.326
	V337.067z"/>
<path d="M129.963,242.347h-1.451l-17.067-2.987c-4.71-0.828-7.868-5.316-7.04-10.027s5.316-7.868,10.027-7.04l17.067,2.987
	c4.71,0.401,8.209,4.548,7.808,9.259c-0.401,4.71-4.548,8.209-9.259,7.808L129.963,242.347L129.963,242.347z"/>
<path d="M398.848,290.133h-1.451l-17.067-2.987c-4.71-0.828-7.868-5.316-7.04-10.027s5.316-7.868,10.027-7.04l17.067,2.987
	c4.71,0.401,8.209,4.548,7.808,9.259s-4.548,8.209-9.259,7.808H398.848z"/>
<path d="M113.152,290.133c-4.71,0.401-8.858-3.098-9.259-7.808c-0.401-4.71,3.098-8.858,7.808-9.259l17.067-2.987
	c4.71-0.828,9.199,2.33,10.027,7.04c0.828,4.71-2.33,9.199-7.04,10.027l-17.067,2.987L113.152,290.133L113.152,290.133z"/>
<path d="M382.037,242.347c-4.71,0.401-8.858-3.098-9.259-7.808c-0.401-4.71,3.098-8.858,7.808-9.259l17.067-2.987
	c4.71-0.828,9.199,2.33,10.027,7.04c0.828,4.71-2.33,9.199-7.04,10.027l-17.067,2.987L382.037,242.347L382.037,242.347z"/>
<path d="M130.389,337.067c-4.71,0.034-8.559-3.763-8.593-8.474c-0.026-3.098,1.63-5.956,4.326-7.484l14.763-8.533
	c4.173-2.185,9.335-0.572,11.52,3.61c2.057,3.925,0.759,8.781-2.987,11.153l-14.763,8.533
	C133.367,336.64,131.891,337.05,130.389,337.067z"/>
<path d="M366.933,200.533c-4.71,0.034-8.559-3.763-8.593-8.474c-0.026-3.098,1.63-5.956,4.326-7.484l14.763-8.533
	c3.977-2.526,9.25-1.357,11.776,2.62s1.357,9.25-2.62,11.776c-0.205,0.128-0.41,0.247-0.623,0.358L371.2,199.33
	C369.911,200.107,368.435,200.516,366.933,200.533z"/>
<path d="M162.731,375.467c-4.71-0.043-8.499-3.891-8.465-8.602c0.017-1.971,0.717-3.874,1.98-5.393l11.008-13.056
	c3.038-3.601,8.431-4.062,12.032-1.024c3.601,3.038,4.062,8.431,1.024,12.032l0,0l-11.008,13.056
	C167.663,374.4,165.257,375.492,162.731,375.467z"/>
<path d="M338.261,166.485c-4.71-0.043-8.499-3.891-8.465-8.602c0.017-1.971,0.717-3.874,1.98-5.393l11.008-13.056
	c3.038-3.601,8.431-4.062,12.032-1.024c3.601,3.038,4.062,8.431,1.024,12.032l-11.008,13.056
	C343.194,165.419,340.787,166.511,338.261,166.485z"/>
<path d="M206.421,401.067c-0.99,0-1.971-0.171-2.901-0.512c-4.429-1.604-6.724-6.494-5.12-10.923l5.803-16.043
	c1.724-4.386,6.682-6.537,11.068-4.813c4.207,1.655,6.391,6.315,4.975,10.615l-5.803,16.043
	C213.222,398.814,210.014,401.067,206.421,401.067z"/>
<path d="M299.776,144.299c-0.99,0-1.971-0.171-2.901-0.512c-4.429-1.604-6.724-6.494-5.12-10.923l5.803-16.043
	c1.724-4.386,6.682-6.537,11.068-4.813c4.207,1.655,6.391,6.315,4.975,10.615l-5.803,16.043
	C306.577,142.046,303.369,144.299,299.776,144.299z"/>
<path d="M469.333,512H42.667C19.106,512,0,492.894,0,469.333V42.667C0,19.106,19.106,0,42.667,0h426.667
	C492.894,0,512,19.106,512,42.667v426.667C512,492.894,492.894,512,469.333,512z M42.667,17.067c-14.14,0-25.6,11.46-25.6,25.6
	v426.667c0,14.14,11.46,25.6,25.6,25.6l0,0h426.667c14.14,0,25.6-11.46,25.6-25.6l0,0V42.667c0-14.14-11.46-25.6-25.6-25.6H42.667z"
	/>
<circle style="fill:#F44335;" cx="443.733" cy="443.733" r="25.6"/>
<path d="M443.733,477.867c-18.85,0-34.133-15.283-34.133-34.133s15.283-34.133,34.133-34.133s34.133,15.283,34.133,34.133
	S462.583,477.867,443.733,477.867z M443.733,426.667c-9.429,0-17.067,7.637-17.067,17.067c0,9.429,7.637,17.067,17.067,17.067
	c9.429,0,17.067-7.637,17.067-17.067C460.8,434.304,453.163,426.667,443.733,426.667z"/>
<path d="M51.2,477.867h-1.707l-1.536-0.512c-0.546-0.188-1.058-0.444-1.536-0.768l-1.28-1.024c-0.751-0.828-1.357-1.783-1.792-2.816
	c-0.461-1.075-0.691-2.244-0.683-3.413c-0.017-2.27,0.879-4.446,2.475-6.059l1.28-1.024c0.478-0.324,0.99-0.58,1.536-0.768
	c0.469-0.307,0.99-0.538,1.536-0.683c1.092-0.256,2.236-0.256,3.328,0c0.563,0.077,1.109,0.256,1.621,0.512
	c0.521,0.171,1.015,0.427,1.451,0.768l1.365,1.024c1.596,1.681,2.483,3.908,2.475,6.229c-0.017,1.118-0.247,2.219-0.683,3.243
	c-0.435,1.033-1.041,1.988-1.792,2.816l-1.365,1.024c-0.435,0.341-0.93,0.597-1.451,0.768c-0.512,0.256-1.058,0.427-1.621,0.512
	L51.2,477.867z"/>
<path d="M187.733,477.867H76.8c-4.71,0-8.533-3.823-8.533-8.533c0-4.71,3.823-8.533,8.533-8.533h110.933
	c4.71,0,8.533,3.823,8.533,8.533C196.267,474.044,192.444,477.867,187.733,477.867z"/>
<g>
</g>
<g>
</g>
<g>
</g>
<g>
</g>
<g>
</g>
<g>
</g>
<g>
</g>
<g>
</g>
<g>
</g>
<g>
</g>
<g>
</g>
<g>
</g>
<g>
</g>
<g>
</g>
<g>
</g>
</svg>
