<?xml version="1.0" encoding="iso-8859-1"?>
<!-- Generator: Adobe Illustrator 19.0.0, SVG Export Plug-In . SVG Version: 6.00 Build 0)  -->
<svg version="1.1" id="Layer_1" xmlns="http://www.w3.org/2000/svg" xmlns:xlink="http://www.w3.org/1999/xlink" x="0px" y="0px"
	 viewBox="0 0 513.067 513.067" style="enable-background:new 0 0 513.067 513.067;" xml:space="preserve">
<circle style="fill:#8AD7F8;" cx="217.067" cy="216.533" r="216.533"/>
<g>
	<path style="fill:#415A6B;" d="M363.2,57.6c-2.133-2.133-3.2-3.2-5.333-5.333C357.867,56.533,361.067,56.533,363.2,57.6z"/>
	<path style="fill:#415A6B;" d="M0.533,216.533c0,76.8,39.467,142.933,99.2,181.333c-1.067-3.2-2.133-6.4-4.267-8.533
		c-2.133-3.2-4.267-5.333-6.4-8.533L88,379.733c-3.2-4.267-6.4-8.533-9.6-12.8c-1.067-1.067-2.133-3.2-3.2-4.267
		c-2.133-2.133-5.333-3.2-7.467-2.133s-3.2,0-4.267-1.067c-2.133-4.267-3.2-7.467-5.333-11.733
		c-1.067-2.133-1.067-4.267-2.133-5.333c-3.2-3.2-5.333-8.533-9.6-11.733c-2.133-1.067-3.2-2.133-5.333-2.133
		c0-2.133-1.067-3.2-1.067-4.267c1.067,0,1.067,0,2.133,0c-1.067-3.2-1.067-6.4-2.133-9.6c1.067-2.133,2.133-4.267,2.133-6.4
		c0-1.067-1.067-2.133-2.133-2.133s-1.067,1.067-2.133,1.067c1.067-3.2-4.267-6.4-2.133-9.6c-2.133-2.133-4.267-4.267-5.333-6.4
		c-1.067-2.133-3.2-4.267-2.133-7.467c-1.067,0-2.133,0-3.2,0c0,0-1.067,0-1.067,1.067c1.067,1.067,2.133,2.133,3.2,4.267
		c-4.267,0-7.467,0-9.6,0c-1.067-2.133-2.133-4.267-2.133-6.4c3.2-1.067,3.2-3.2,2.133-5.333c-1.067-3.2-1.067-5.333,1.067-7.467
		c1.067-2.133,2.133-3.2,2.133-5.333c2.133-4.267,2.133-4.267,5.333-6.4c1.067-1.067,2.133-1.067,3.2-1.067
		c2.133-1.067,5.333-2.133,7.467-3.2c2.133,1.067,3.2,1.067,5.333,2.133v-1.067c1.067-1.067,2.133-2.133,3.2-2.133
		c6.4-5.333,8.533-7.467,8.533-11.733c-1.067,0-2.133-1.067-3.2,1.067c0,2.133-2.133,3.2-4.267,2.133c0-5.333,5.333-6.4,7.467-9.6
		c6.4,1.067,8.533,1.067,9.6-5.333c-1.067,0-1.067-1.067-1.067-1.067c0-3.2,0-6.4,0-9.6c0-2.133,0-3.2,0-5.333c0-3.2,0-6.4,0-8.533
		c0-4.267,0-7.467,1.067-11.733s-1.067-9.6,2.133-13.867v-2.133c-1.067-3.2-1.067-5.333-3.2-8.533c-2.133-3.2-3.2-6.4-5.333-9.6
		c-3.2-4.267-3.2-9.6-5.333-13.867c2.133-1.067,2.133-3.2,3.2-4.267c2.133-5.333,5.333-9.6,8.533-13.867
		c1.067-1.067,3.2-2.133,4.267-4.267c2.133-5.333,6.4-9.6,10.667-13.867c3.2-3.2,8.533-5.333,9.6-10.667l1.067-1.067
		c3.2-1.067,3.2-3.2,4.267-5.333c1.067-3.2,2.133-5.333,5.333-7.467c2.133-1.067,3.2-3.2,4.267-4.267
		c4.267-3.2,8.533-7.467,14.933-8.533c0,0,1.067,0,1.067-1.067c1.067-2.133,2.133-4.267,2.133-6.4c0-2.133,1.067-3.2,3.2-4.267
		c1.067-1.067,3.2-2.133,4.267-3.2c3.2-3.2,2.133-5.333-2.133-6.4c2.133-6.4,8.533-8.533,12.8-13.867c0,2.133-3.2,3.2,0,6.4
		c2.133-1.067,2.133-1.067,3.2-2.133c1.067-1.067,2.133-2.133,3.2-2.133c2.133-1.067,4.267-2.133,7.467-2.133
		c-3.2-1.067-5.333-2.133-8.533-4.267c3.2-1.067,5.333-2.133,7.467-2.133c4.267,0,5.333-1.067,6.4-5.333
		c0-1.067,1.067-1.067,1.067-2.133c0,0,0-1.067,0-2.133c0,0,1.067,0,2.133-1.067l1.067-1.067c-2.133-2.133,0-3.2,1.067-4.267
		c-1.067-2.133-4.267,0-4.267-3.2c0,0,0,0,0-3.2C67.733,33.067,0.533,116.267,0.533,216.533z"/>
	<path style="fill:#415A6B;" d="M299.2,21.333c-3.2,0-6.4,0-8.533,3.2c-1.067,2.133-4.267,3.2-7.467,5.333l0,0
		c1.067-1.067,2.133-3.2,2.133-4.267c0,0,0,0-1.067-1.067c-3.2,2.133-7.467,2.133-9.6,7.467l-1.067-1.067
		c-5.333,0-3.2,5.333-5.333,6.4c0,0-1.067,0-1.067-1.067c0,0-1.067,0-1.067-1.067c-1.067,3.2-2.133,5.333-2.133,7.467h-1.067
		c0-2.133,0-3.2,1.067-5.333C259.733,42.667,256.533,48,252.267,51.2c0,0,1.067,0,2.133-1.067c-2.133,2.133-3.2,5.333-5.333,7.467
		c-3.2-1.067-2.133,3.2-3.2,4.267c-2.133,0-4.267,0-5.333,2.133c-1.067,2.133-1.067,4.267-3.2,6.4c0,0-1.067,1.067-1.067,2.133
		c1.067,0,1.067,0,2.133,0c0,4.267-4.267,3.2-6.4,5.333c0,1.067,0,1.067,0,2.133l0,0c2.133,2.133,2.133-2.133,4.267-1.067
		c-1.067,2.133-3.2,3.2-3.2,5.333s-1.067,4.267-2.133,6.4c-1.067,2.133-1.067,4.267-1.067,6.4c-1.067,3.2,1.067,6.4-1.067,9.6
		c-1.067,2.133-3.2,4.267-3.2,6.4c0,5.333-4.267,7.467-5.333,11.733c-2.133,4.267-4.267,7.467-6.4,10.667
		c-1.067,1.067-1.067,2.133-1.067,3.2c2.133,5.333,7.467,4.267,10.667,8.533c3.2-1.067,1.067,2.133,3.2,3.2
		c4.267,0,8.533-2.133,10.667-6.4c2.133-4.267,3.2-8.533,5.333-12.8c1.067,0,2.133,0,4.267,1.067c4.267,1.067,7.467,3.2,12.8,3.2
		c1.067,0,1.067,1.067,2.133,1.067c2.133,2.133,4.267,2.133,7.467-1.067c-1.067,0-1.067-1.067-2.133-1.067
		c2.133-2.133,4.267-4.267,6.4-6.4c-1.067-4.267-1.067-6.4-4.267-9.6c-1.067,0-2.133,1.067-2.133,1.067
		c1.067-1.067,1.067-2.133,2.133-3.2c-3.2,1.067-5.333,2.133-8.533,3.2c2.133-3.2,4.267-6.4,7.467-9.6
		c-1.067,1.067-2.133,1.067-2.133,1.067c-1.067-1.067-1.067-3.2-2.133-4.267c-2.133-1.067-2.133-3.2-2.133-5.333
		c0-4.267,1.067-8.533,4.267-12.8c1.067-2.133,2.133-3.2,3.2-5.333c0-1.067,1.067-3.2,0-3.2c-2.133-2.133-2.133-5.333-2.133-7.467
		c2.133-2.133,5.333-4.267,6.4-6.4c2.133-3.2,5.333-4.267,8.533-4.267c2.133,0,3.2,0,5.333,2.133c-1.067,1.067-3.2,2.133-4.267,3.2
		c-1.067,5.333-2.133,9.6-2.133,13.867c-1.067,2.133-3.2,2.133-3.2,5.333c-2.133-1.067,0-1.067,1.067,0
		c1.067,1.067,3.2,1.067,4.267,2.133c5.333,0,9.6-3.2,12.8-8.533c1.067-2.133,2.133-3.2,4.267-5.333
		c5.333-3.2,8.533-8.533,10.667-13.867c1.067-2.133,2.133-3.2,4.267-4.267c4.267-1.067,7.467-3.2,11.733-4.267
		c1.067,2.133,2.133,4.267,3.2,5.333c0,1.067-1.067,2.133-1.067,3.2c-3.2,3.2-3.2,3.2,0,5.333C328,67.2,328,68.267,328,69.333
		c1.067,2.133,1.067,3.2-2.133,3.2c-2.133,0-3.2,1.067-4.267,2.133c0,1.067-1.067,1.067-1.067,2.133c0-3.2,1.067-6.4,1.067-8.533
		c-4.267-1.067-7.467,0-9.6,3.2c-1.067,1.067,0,2.133,1.067,3.2c-1.067,1.067-3.2,2.133-2.133,4.267
		c1.067,1.067,3.2,3.2,5.333,1.067c0,2.133,0,3.2-1.067,5.333c-2.133-3.2-4.267-1.067-6.4-1.067c-3.2,0-4.267,2.133-5.333,4.267
		c-1.067,0-2.133-1.067-3.2-1.067c-1.067,6.4-1.067,6.4,3.2,9.6c1.067,1.067,1.067,2.133,2.133,3.2c0,1.067,0,3.2,0,4.267
		c0,1.067-1.067,1.067-1.067,2.133c-1.067-4.267-1.067-4.267-4.267-4.267c-1.067,0-2.133-1.067-3.2-1.067s-2.133,0-4.267-1.067
		c0,2.133,0,3.2,0,4.267c-1.067,0-1.067,0-2.133,0c1.067,2.133,2.133,3.2,3.2,5.333c2.133,1.067,3.2-1.067,5.333-2.133
		c2.133-1.067,3.2-1.067,5.333,0c-2.133,3.2-4.267,6.4-7.467,9.6c-1.067,0-2.133,1.067-3.2,1.067c-1.067,3.2-2.133,5.333-3.2,8.533
		c-1.067-1.067-2.133-1.067-3.2-2.133c-2.133-1.067-3.2-1.067-4.267,1.067c-2.133,4.267-4.267,8.533-7.467,12.8
		c1.067,0,2.133,1.067,2.133,1.067c-1.067,1.067-2.133,2.133-3.2,3.2c1.067,0,1.067,0,2.133,0c0,0,1.067,0,1.067-1.067
		c1.067,2.133,1.067,3.2-1.067,5.333c0,1.067-2.133,1.067-3.2,2.133c-1.067,1.067-2.133,1.067-3.2,2.133s-2.133,2.133-3.2,3.2
		c-1.067-2.133-3.2,0-5.333,0c-2.133-1.067-3.2,1.067-5.333,1.067c0,0,0,1.067,0,2.133c2.133,0,3.2-1.067,4.267-1.067
		c0,0,0,0,0,1.067c-3.2,3.2-6.4,5.333-9.6,8.533c1.067,1.067,1.067,1.067,2.133,2.133c-1.067,1.067-2.133,1.067-3.2,1.067
		c1.067,2.133,2.133,3.2,2.133,4.267c-1.067,1.067-2.133,2.133-3.2,3.2c-2.133,1.067-2.133,3.2-3.2,4.267
		c-1.067,1.067-3.2,3.2-3.2,4.267c-1.067,3.2-2.133,4.267-5.333,4.267c-1.067,0-3.2,0-3.2,2.133
		c1.067,1.067,1.067,1.067,2.133,1.067c-1.067,4.267-5.333,5.333-3.2,10.667c-1.067,0-2.133,1.067-3.2,1.067
		c-1.067,1.067-2.133,3.2-2.133,3.2c1.067,3.2,0,3.2-2.133,4.267c-3.2,1.067-6.4,3.2-8.533,7.467c2.133,0,3.2,0,4.267,0
		c3.2-2.133,7.467-2.133,7.467-7.467c1.067,0,3.2,0,4.267,1.067c1.067,1.067,1.067,2.133,2.133,3.2
		c1.067-1.067,3.2-1.067,4.267-2.133c3.2,0,3.2,4.267,6.4,4.267c0,1.067,0,3.2-1.067,4.267c-1.067,2.133,0,3.2,2.133,3.2
		c-1.067,3.2-4.267,5.333-6.4,6.4c-5.333,4.267-10.667,8.533-16,11.733c-4.267,2.133-4.267,6.4-6.4,9.6
		c2.133,1.067,3.2,1.067,4.267,1.067c1.067,1.067,2.133,2.133,4.267,3.2c2.133,2.133,3.2,4.267,3.2,7.467
		c0,2.133,1.067,3.2,1.067,5.333H232c0-1.067,0-3.2,1.067-4.267c2.133,3.2,4.267,6.4,6.4,8.533c3.2-2.133,5.333-4.267,8.533-7.467
		c1.067-1.067,1.067-2.133,2.133-4.267c1.067,2.133,1.067,3.2,2.133,5.333c1.067,0,2.133,0,3.2,0c1.067-4.267,3.2-7.467,6.4-9.6
		c1.067-1.067,2.133-2.133,3.2-3.2c0,0,1.067-1.067,1.067-2.133c1.067-4.267,1.067-8.533,2.133-12.8c-1.067,0-2.133,0-4.267,0
		c0-4.267,0-7.467,0-10.667c0-1.067,0-1.067,1.067-2.133c2.133-3.2,3.2-5.333,5.333-8.533c-2.133-2.133-3.2-4.267-5.333-5.333
		c1.067-2.133,2.133-4.267,3.2-5.333c1.067-1.067,2.133-2.133,3.2-2.133c6.4,1.067,8.533-2.133,9.6-7.467
		c0-1.067,1.067-1.067,1.067-1.067c1.067-1.067,1.067-2.133,2.133-4.267c0-2.133,2.133-3.2,4.267-4.267c2.133,0,4.267-3.2,6.4,0
		c1.067,1.067,2.133,1.067,3.2,1.067c5.333,0,9.6,0,14.933-2.133c2.133-1.067,5.333-2.133,7.467-2.133c1.067,0,2.133,1.067,3.2,0
		c3.2-2.133,5.333,0,7.467,1.067c0,2.133,1.067,3.2,1.067,5.333c3.2-3.2,1.067-6.4,2.133-9.6c-2.133,0-3.2,0-4.267,0
		c-4.267-4.267,1.067-4.267,3.2-7.467c-4.267-1.067-8.533,2.133-11.733,3.2c0-1.067,0-2.133,1.067-4.267
		c-4.267,4.267-8.533,5.333-13.867,3.2c-1.067-1.067-3.2,0-5.333,0c-3.2,1.067-6.4,2.133-9.6,3.2
		c-2.133,1.067-4.267,2.133-7.467,2.133c0-1.067,1.067-2.133,2.133-3.2c2.133-2.133,4.267-4.267,5.333-6.4
		c1.067-2.133,2.133-3.2,3.2-4.267c1.067-1.067,3.2-2.133,4.267,0c0,1.067,1.067,1.067,2.133,1.067
		c1.067-1.067,1.067-2.133,2.133-3.2c4.267,1.067,8.533,2.133,12.8,1.067c1.067,0,2.133-1.067,3.2-1.067
		c4.267-1.067,8.533-2.133,12.8-3.2c1.067,2.133,3.2,4.267,4.267,6.4c3.2,0,6.4,0,9.6,1.067l0,0c1.067,0,3.2,0,4.267,0
		c-1.067,3.2,4.267,2.133,4.267,4.267c2.133-1.067,4.267-2.133,6.4-3.2c-1.067-1.067-2.133-1.067-3.2-2.133
		c1.067-1.067,1.067-1.067,2.133-2.133c-1.067-1.067-1.067-1.067-2.133-1.067c1.067-2.133,3.2-3.2,4.267-4.267
		c-2.133,0-3.2-1.067-5.333,0c-1.067,1.067-3.2,1.067-3.2,0c-2.133-2.133-6.4-2.133-8.533-4.267l1.067-1.067
		c3.2-1.067,5.333-2.133,6.4-5.333c1.067-4.267,6.4-3.2,7.467-7.467l0,0c3.2,1.067,3.2-1.067,4.267-3.2
		c1.067-3.2,4.267-4.267,7.467-6.4c-1.067,2.133-1.067,3.2-1.067,4.267s-1.067,2.133-2.133,2.133c-2.133,1.067-5.333,3.2-6.4,5.333
		c1.067,2.133,2.133,3.2,2.133,5.333c3.2,0-1.067-3.2,1.067-3.2c1.067,1.067,3.2,2.133,4.267,3.2
		c-1.067,1.067-2.133,1.067-3.2,1.067v1.067c3.2-2.133,6.4-1.067,8.533,1.067c3.2-1.067,6.4-4.267,9.6-3.2
		c1.067,0,2.133-1.067,2.133-1.067c2.133-1.067,0-4.267,1.067-6.4c2.133,0,4.267-1.067,6.4-1.067c2.133,0,3.2-1.067,4.267-2.133
		c2.133-1.067,2.133-3.2,3.2-5.333s1.067-4.267,4.267-5.333c0-1.067,0-2.133,0-2.133c3.2,0,3.2,3.2,4.267,4.267
		c4.267,3.2,5.333,7.467,6.4,12.8c0,1.067,1.067,2.133,1.067,3.2c3.2,4.267,2.133,7.467-1.067,11.733
		c-1.067,1.067-2.133,3.2-2.133,4.267c4.267,2.133,7.467,4.267,11.733,5.333c-11.734-65.067-60.8-124.8-125.867-152.533
		C301.333,19.2,300.267,20.267,299.2,21.333z"/>
	<path style="fill:#415A6B;" d="M429.333,181.333c-1.067,0-1.067-1.067-2.133-1.067c-3.2-1.067-5.333-2.133-7.467-4.267
		c-1.067-2.133-3.2-1.067-4.267,1.067c0,1.067-1.067,2.133-1.067,3.2c-3.2,1.067-5.333,2.133-8.533,3.2
		c-1.067,0-1.067,1.067-1.067,1.067c-1.067,1.067-3.2,1.067-4.267,2.133c-4.267,2.133-9.6,3.2-12.8,7.467
		c-3.2-2.133-6.4,1.067-8.533,2.133c-1.067,0-2.133,1.067-3.2,1.067c-5.333,0-8.533,2.133-10.667,7.467
		c-1.067,2.133,0,3.2,2.133,4.267c1.067,1.067,2.133,2.133,3.2,3.2c0,0,0,0,1.067,0c0-1.067,1.067-2.133,1.067-2.133
		c2.133,0,4.267,0,5.333-1.067c4.267-2.133,7.467-4.267,11.733-6.4c1.067,0,2.133,0,3.2-1.067c-2.133,3.2-5.333,4.267-7.467,5.333
		c-4.267,2.133-4.267,3.2-1.067,6.4c0,0,0,0,0,1.067c-3.2,0-6.4,1.067-9.6,3.2c-1.067,0-2.133,0-2.133,0c-3.2,0-5.333,0-8.533,0
		c-3.2,0-6.4,2.133-8.533,4.267c-2.133,2.133-3.2,3.2-5.333,2.133c-1.067,0-3.2,0-4.267,1.067c0-1.067-1.067-2.133-1.067-3.2
		c-4.267,0-7.467,2.133-9.6,5.333c-1.067,1.067-1.067,2.133-2.133,3.2c-1.067,1.067-2.133,1.067-2.133,1.067
		c-3.2,0-7.467,0-10.667,0c0-2.133,1.067-4.267,1.067-6.4c0-3.2-3.2-2.133-5.333-2.133c0-2.133,0-3.2,0-4.267
		c-2.133,2.133-2.133,2.133-4.267,2.133c-2.133,0-3.2,1.067-3.2,2.133c-1.067,2.133-2.133,5.333-5.333,6.4
		c-2.133,1.067-3.2,2.133-4.267,4.267c-1.067,2.133-3.2,4.267-5.333,4.267c-1.067,0-2.133,1.067-3.2,2.133
		c-2.133,3.2-5.333,6.4-8.533,9.6c-2.133,2.133-4.267,5.333-3.2,8.533c-3.2,0-3.2,2.133-4.267,4.267c0,3.2-2.133,5.333-5.333,6.4
		c-1.067,1.067-2.133,1.067-3.2,2.133c-2.133,3.2-5.333,4.267-9.6,3.2c-1.067,4.267,1.067,5.333,4.267,6.4
		c-1.067,1.067-2.133,2.133-3.2,3.2c-1.067,2.133-2.133,5.333-3.2,8.533c-2.133,4.267-1.067,8.533,0,12.8
		c0,1.067,1.067,3.2,2.133,3.2c2.133,1.067,2.133,2.133,2.133,3.2c0,4.267-1.067,8.533-2.133,12.8c-1.067,3.2-3.2,5.333-2.133,9.6
		c0,1.067,0,2.133,0,2.133c-2.133,3.2-1.067,6.4,0,8.533c1.067,2.133,2.133,5.333,1.067,7.467c-1.067,6.4,4.267,12.8,10.667,13.867
		c3.2,1.067,6.4,0,9.6,0c3.2,0,5.333,1.067,6.4,2.133c1.067,1.067,2.133,2.133,2.133,4.267s2.133,2.133,4.267,2.133
		c0-1.067,0-3.2,0-4.267c2.133,1.067,3.2,1.067,4.267,3.2c0,1.067,2.133,2.133,4.267,2.133c1.067,0,3.2,0,4.267-1.067
		c-1.067,1.067-2.133,2.133-2.133,3.2c-3.2,0-7.467-1.067-11.733-1.067c-1.067,3.2,1.067,3.2,3.2,3.2
		c3.2,1.067,7.467,2.133,8.533,6.4c-2.133,3.2-2.133,5.333,0,9.6c1.067,2.133,3.2,3.2,5.333,3.2s5.333,0,7.467,0
		c1.067,0,2.133,1.067,3.2,1.067c1.067,1.067,1.067,2.133,2.133,2.133c1.067,0,2.133-1.067,3.2-1.067c2.133,0,5.333,0,7.467,1.067
		c18.133-10.667,34.133-23.467,49.067-39.467l5.333-5.333c33.067-38.4,53.333-87.467,53.333-140.8
		C432.533,203.733,431.467,192,429.333,181.333z"/>
</g>
<path style="fill:#F3F3F3;" d="M435.733,331.733V185.6c0-26.667-21.333-48-48-48c-26.667,0-48,21.333-48,48v146.133
	c-28.8,17.067-48,48-48,84.267c0,53.333,43.733,97.067,97.067,97.067s97.067-43.733,97.067-97.067
	C483.733,379.733,464.533,347.733,435.733,331.733z"/>
<path style="fill:#F3705A;" d="M406.933,359.467V262.4h-39.467v97.067C344,368,326.933,389.333,326.933,416
	c0,33.067,26.667,59.733,59.733,59.733S446.4,449.067,446.4,416C447.467,389.333,430.4,366.933,406.933,359.467z"/>
<g>
	<path style="fill:#415A6B;" d="M504,192h-33.067c-5.333,0-8.533,4.267-8.533,8.533l0,0c0,5.333,4.267,8.533,8.533,8.533H504
		c5.333,0,8.533-4.267,8.533-8.533l0,0C512.533,196.267,508.267,192,504,192z"/>
	<path style="fill:#415A6B;" d="M504,245.333h-33.067c-5.333,0-8.533,4.267-8.533,8.533l0,0c0,5.333,4.267,8.533,8.533,8.533H504
		c5.333,0,8.533-4.267,8.533-8.533l0,0C512.533,249.6,508.267,245.333,504,245.333z"/>
	<path style="fill:#415A6B;" d="M504,297.6h-33.067c-5.333,0-8.533,4.267-8.533,8.533l0,0c0,5.333,4.267,8.533,8.533,8.533H504
		c5.333,0,8.533-4.267,8.533-8.533l0,0C512.533,301.867,508.267,297.6,504,297.6z"/>
</g>
<g>
</g>
<g>
</g>
<g>
</g>
<g>
</g>
<g>
</g>
<g>
</g>
<g>
</g>
<g>
</g>
<g>
</g>
<g>
</g>
<g>
</g>
<g>
</g>
<g>
</g>
<g>
</g>
<g>
</g>
</svg>
