<?xml version="1.0" encoding="UTF-8" standalone="no"?>
<!-- Generator: Adobe Illustrator 19.0.0, SVG Export Plug-In . SVG Version: 6.00 Build 0)  -->

<svg
   xmlns:dc="http://purl.org/dc/elements/1.1/"
   xmlns:cc="http://creativecommons.org/ns#"
   xmlns:rdf="http://www.w3.org/1999/02/22-rdf-syntax-ns#"
   xmlns:svg="http://www.w3.org/2000/svg"
   xmlns="http://www.w3.org/2000/svg"
   xmlns:sodipodi="http://sodipodi.sourceforge.net/DTD/sodipodi-0.dtd"
   xmlns:inkscape="http://www.inkscape.org/namespaces/inkscape"
   version="1.1"
   id="Capa_1"
   x="0px"
   y="0px"
   viewBox="0 0 491.52 491.52"
   style="enable-background:new 0 0 491.52 491.52;"
   xml:space="preserve"
   inkscape:version="0.91 r13725"
   sodipodi:docname="volume_round_red-100.svg"><metadata
     id="metadata53"><rdf:RDF><cc:Work
         rdf:about=""><dc:format>image/svg+xml</dc:format><dc:type
           rdf:resource="http://purl.org/dc/dcmitype/StillImage" /><dc:title></dc:title></cc:Work></rdf:RDF></metadata><defs
     id="defs51" /><sodipodi:namedview
     pagecolor="#ffffff"
     bordercolor="#666666"
     borderopacity="1"
     objecttolerance="10"
     gridtolerance="10"
     guidetolerance="10"
     inkscape:pageopacity="0"
     inkscape:pageshadow="2"
     inkscape:window-width="717"
     inkscape:window-height="480"
     id="namedview49"
     showgrid="false"
     inkscape:zoom="0.48014324"
     inkscape:cx="245.75999"
     inkscape:cy="245.75999"
     inkscape:window-x="0"
     inkscape:window-y="0"
     inkscape:window-maximized="0"
     inkscape:current-layer="Capa_1" /><circle
     style="fill:#E05B49;"
     cx="245.76"
     cy="245.76"
     r="245.76"
     id="circle3" /><g
     id="g5"><path
       style="fill:#64798A;"
       d="M302.861,295.966c-1.787,0-3.565-0.676-4.926-2.028c-2.721-2.704-2.721-7.085,0-9.789   c21.301-21.164,21.301-55.613,0-76.777c-2.721-2.704-2.721-7.085,0-9.789c2.722-2.704,7.131-2.704,9.852,0   c26.735,26.563,26.735,69.792,0,96.355C306.427,295.289,304.649,295.966,302.861,295.966z"
       id="path7" /><path
       style="fill:#64798A;"
       d="M324.081,317.048c-1.787,0-3.566-0.676-4.926-2.028c-2.721-2.704-2.721-7.085,0-9.789   c33.004-32.791,33.004-86.151,0-118.942c-2.721-2.704-2.721-7.085,0-9.789c2.722-2.704,7.131-2.704,9.852,0   c38.438,38.19,38.438,100.329,0,138.52C327.646,316.372,325.868,317.048,324.081,317.048z"
       id="path9" /><path
       style="fill:#64798A;"
       d="M344.402,337.238c-1.787,0-3.566-0.676-4.926-2.028c-2.722-2.704-2.722-7.085,0-9.789   c44.208-43.923,44.208-115.4,0-159.323c-2.722-2.704-2.722-7.085,0-9.788c2.721-2.704,7.13-2.704,9.852,0   c49.642,49.322,49.642,129.579,0,178.9C347.967,336.563,346.189,337.238,344.402,337.238z"
       id="path11" /></g><rect
     x="246.477"
     y="104.96"
     style="fill:#D5D6DB;"
     width="26.04"
     height="281.6"
     id="rect13" /><polygon
     style="fill:#EBF0F3;"
     points="162.037,313.012 246.494,386.56 246.494,104.96 162.037,178.433 "
     id="polygon15" /><path
     style="fill:#64798A;"
     d="M113.982,178.508c-4.983,0-9.022,4.014-9.022,8.962v116.58c0,4.949,4.039,8.963,9.022,8.963h48.055  V178.508H113.982z"
     id="path17" /><g
     id="g19" /><g
     id="g21" /><g
     id="g23" /><g
     id="g25" /><g
     id="g27" /><g
     id="g29" /><g
     id="g31" /><g
     id="g33" /><g
     id="g35" /><g
     id="g37" /><g
     id="g39" /><g
     id="g41" /><g
     id="g43" /><g
     id="g45" /><g
     id="g47" /></svg>