<?xml version="1.0" encoding="iso-8859-1"?>
<!-- Generator: Adobe Illustrator 19.0.0, SVG Export Plug-In . SVG Version: 6.00 Build 0)  -->
<svg version="1.1" id="Capa_1" xmlns="http://www.w3.org/2000/svg" xmlns:xlink="http://www.w3.org/1999/xlink" x="0px" y="0px"
	 viewBox="0 0 491.52 491.52" style="enable-background:new 0 0 491.52 491.52;" xml:space="preserve">
<circle style="fill:#E05B49;" cx="245.76" cy="245.76" r="245.76"/>
<g>
	<path style="fill:#64798A;" d="M302.861,295.966c-1.787,0-3.565-0.676-4.926-2.028c-2.721-2.704-2.721-7.085,0-9.789
		c21.301-21.164,21.301-55.613,0-76.777c-2.721-2.704-2.721-7.085,0-9.789c2.722-2.704,7.131-2.704,9.852,0
		c26.735,26.563,26.735,69.792,0,96.355C306.427,295.289,304.649,295.966,302.861,295.966z"/>
	<path style="fill:#64798A;" d="M324.081,317.048c-1.787,0-3.566-0.676-4.926-2.028c-2.721-2.704-2.721-7.085,0-9.789
		c33.004-32.791,33.004-86.151,0-118.942c-2.721-2.704-2.721-7.085,0-9.789c2.722-2.704,7.131-2.704,9.852,0
		c38.438,38.19,38.438,100.329,0,138.52C327.646,316.372,325.868,317.048,324.081,317.048z"/>
	<path style="fill:#64798A;" d="M344.402,337.238c-1.787,0-3.566-0.676-4.926-2.028c-2.722-2.704-2.722-7.085,0-9.789
		c44.208-43.923,44.208-115.4,0-159.323c-2.722-2.704-2.722-7.085,0-9.788c2.721-2.704,7.13-2.704,9.852,0
		c49.642,49.322,49.642,129.579,0,178.9C347.967,336.563,346.189,337.238,344.402,337.238z"/>
</g>
<rect x="246.477" y="104.96" style="fill:#D5D6DB;" width="26.04" height="281.6"/>
<polygon style="fill:#EBF0F3;" points="162.037,313.012 246.494,386.56 246.494,104.96 162.037,178.433 "/>
<path style="fill:#64798A;" d="M113.982,178.508c-4.983,0-9.022,4.014-9.022,8.962v116.58c0,4.949,4.039,8.963,9.022,8.963h48.055
	V178.508H113.982z"/>
<g>
</g>
<g>
</g>
<g>
</g>
<g>
</g>
<g>
</g>
<g>
</g>
<g>
</g>
<g>
</g>
<g>
</g>
<g>
</g>
<g>
</g>
<g>
</g>
<g>
</g>
<g>
</g>
<g>
</g>
</svg>
